{
	"asset":{
		"generator":"Khronos glTF Blender I/O v4.1.62",
		"version":"2.0"
	},
	"scene":0,
	"scenes":[
		{
			"name":"Scene",
			"nodes":[
				0,
				1
			]
		}
	],
	"nodes":[
		{
			"mesh":0,
			"name":"skyscraperA"
		},
		{
			"mesh":1,
			"name":"COL01",
			"scale":[
				0.6500003337860107,
				1.7999999523162842,
				0.6500003337860107
			],
			"translation":[
				0,
				1.059999942779541,
				0
			]
		}
	],
	"materials":[
		{
			"name":"border",
			"pbrMetallicRoughness":{
				"baseColorFactor":[
					0.5607843399047852,
					0.5686274766921997,
					0.6000000238418579,
					1
				]
			}
		},
		{
			"name":"door",
			"pbrMetallicRoughness":{
				"baseColorFactor":[
					0.38823530077934265,
					0.4000000059604645,
					0.4470588266849518,
					1
				]
			}
		},
		{
			"name":"_defaultMat",
			"pbrMetallicRoughness":{
				"baseColorFactor":[
					0.7641509771347046,
					0.7641509771347046,
					0.7641509771347046,
					1
				]
			}
		},
		{
			"name":"window",
			"pbrMetallicRoughness":{
				"baseColorFactor":[
					0.7372549176216125,
					0.886274516582489,
					1,
					1
				]
			}
		},
		{
			"name":"trim",
			"pbrMetallicRoughness":{
				"baseColorFactor":[
					0.7372549176216125,
					0.886274516582489,
					1,
					1
				]
			}
		}
	],
	"meshes":[
		{
			"name":"Mesh skyscraperA",
			"primitives":[
				{
					"attributes":{
						"POSITION":0,
						"NORMAL":1,
						"TEXCOORD_0":2
					},
					"indices":3,
					"material":0
				},
				{
					"attributes":{
						"POSITION":4,
						"NORMAL":5,
						"TEXCOORD_0":6
					},
					"indices":7,
					"material":1
				},
				{
					"attributes":{
						"POSITION":8,
						"NORMAL":9,
						"TEXCOORD_0":10
					},
					"indices":11,
					"material":2
				},
				{
					"attributes":{
						"POSITION":12,
						"NORMAL":13,
						"TEXCOORD_0":14
					},
					"indices":15,
					"material":3
				},
				{
					"attributes":{
						"POSITION":16,
						"NORMAL":17,
						"TEXCOORD_0":18
					},
					"indices":19,
					"material":4
				}
			]
		},
		{
			"name":"\u7acb\u65b9\u4f53",
			"primitives":[
				{
					"attributes":{
						"POSITION":20,
						"NORMAL":21,
						"TEXCOORD_0":22
					},
					"indices":23
				}
			]
		}
	],
	"accessors":[
		{
			"bufferView":0,
			"componentType":5126,
			"count":392,
			"max":[
				0.6200000047683716,
				2.879999876022339,
				0.6200000047683716
			],
			"min":[
				-0.6200000047683716,
				-1.2022240344150706e-31,
				-0.6200000047683716
			],
			"type":"VEC3"
		},
		{
			"bufferView":1,
			"componentType":5126,
			"count":392,
			"type":"VEC3"
		},
		{
			"bufferView":2,
			"componentType":5126,
			"count":392,
			"type":"VEC2"
		},
		{
			"bufferView":3,
			"componentType":5123,
			"count":798,
			"type":"SCALAR"
		},
		{
			"bufferView":4,
			"componentType":5126,
			"count":76,
			"max":[
				0.6000000238418579,
				2.799999952316284,
				0.6000000238418579
			],
			"min":[
				-0.6000000238418579,
				1.804778527019556e-16,
				-0.6000000238418579
			],
			"type":"VEC3"
		},
		{
			"bufferView":5,
			"componentType":5126,
			"count":76,
			"type":"VEC3"
		},
		{
			"bufferView":6,
			"componentType":5126,
			"count":76,
			"type":"VEC2"
		},
		{
			"bufferView":7,
			"componentType":5123,
			"count":192,
			"type":"SCALAR"
		},
		{
			"bufferView":8,
			"componentType":5126,
			"count":187,
			"max":[
				0.6000000238418579,
				2.799999952316284,
				0.6000000238418579
			],
			"min":[
				-0.6000000238418579,
				0.4000000059604645,
				-0.6000000238418579
			],
			"type":"VEC3"
		},
		{
			"bufferView":9,
			"componentType":5126,
			"count":187,
			"type":"VEC3"
		},
		{
			"bufferView":10,
			"componentType":5126,
			"count":187,
			"type":"VEC2"
		},
		{
			"bufferView":11,
			"componentType":5123,
			"count":192,
			"type":"SCALAR"
		},
		{
			"bufferView":12,
			"componentType":5126,
			"count":100,
			"max":[
				0.6000000238418579,
				2.6346242427825928,
				0.6000000238418579
			],
			"min":[
				-0.6000000238418579,
				0.019999999552965164,
				-0.6000000238418579
			],
			"type":"VEC3"
		},
		{
			"bufferView":13,
			"componentType":5126,
			"count":100,
			"type":"VEC3"
		},
		{
			"bufferView":14,
			"componentType":5126,
			"count":100,
			"type":"VEC2"
		},
		{
			"bufferView":15,
			"componentType":5123,
			"count":150,
			"type":"SCALAR"
		},
		{
			"bufferView":16,
			"componentType":5126,
			"count":110,
			"max":[
				0.6000000238418579,
				2.6676993370056152,
				0.6000000238418579
			],
			"min":[
				-0.6000000238418579,
				0.9323005676269531,
				-0.6000000238418579
			],
			"type":"VEC3"
		},
		{
			"bufferView":17,
			"componentType":5126,
			"count":110,
			"type":"VEC3"
		},
		{
			"bufferView":18,
			"componentType":5126,
			"count":110,
			"type":"VEC2"
		},
		{
			"bufferView":19,
			"componentType":5123,
			"count":384,
			"type":"SCALAR"
		},
		{
			"bufferView":20,
			"componentType":5126,
			"count":24,
			"max":[
				1,
				1,
				1
			],
			"min":[
				-1,
				-0.5880320072174072,
				-1
			],
			"type":"VEC3"
		},
		{
			"bufferView":21,
			"componentType":5126,
			"count":24,
			"type":"VEC3"
		},
		{
			"bufferView":22,
			"componentType":5126,
			"count":24,
			"type":"VEC2"
		},
		{
			"bufferView":23,
			"componentType":5123,
			"count":36,
			"type":"SCALAR"
		}
	],
	"bufferViews":[
		{
			"buffer":0,
			"byteLength":4704,
			"byteOffset":0,
			"target":34962
		},
		{
			"buffer":0,
			"byteLength":4704,
			"byteOffset":4704,
			"target":34962
		},
		{
			"buffer":0,
			"byteLength":3136,
			"byteOffset":9408,
			"target":34962
		},
		{
			"buffer":0,
			"byteLength":1596,
			"byteOffset":12544,
			"target":34963
		},
		{
			"buffer":0,
			"byteLength":912,
			"byteOffset":14140,
			"target":34962
		},
		{
			"buffer":0,
			"byteLength":912,
			"byteOffset":15052,
			"target":34962
		},
		{
			"buffer":0,
			"byteLength":608,
			"byteOffset":15964,
			"target":34962
		},
		{
			"buffer":0,
			"byteLength":384,
			"byteOffset":16572,
			"target":34963
		},
		{
			"buffer":0,
			"byteLength":2244,
			"byteOffset":16956,
			"target":34962
		},
		{
			"buffer":0,
			"byteLength":2244,
			"byteOffset":19200,
			"target":34962
		},
		{
			"buffer":0,
			"byteLength":1496,
			"byteOffset":21444,
			"target":34962
		},
		{
			"buffer":0,
			"byteLength":384,
			"byteOffset":22940,
			"target":34963
		},
		{
			"buffer":0,
			"byteLength":1200,
			"byteOffset":23324,
			"target":34962
		},
		{
			"buffer":0,
			"byteLength":1200,
			"byteOffset":24524,
			"target":34962
		},
		{
			"buffer":0,
			"byteLength":800,
			"byteOffset":25724,
			"target":34962
		},
		{
			"buffer":0,
			"byteLength":300,
			"byteOffset":26524,
			"target":34963
		},
		{
			"buffer":0,
			"byteLength":1320,
			"byteOffset":26824,
			"target":34962
		},
		{
			"buffer":0,
			"byteLength":1320,
			"byteOffset":28144,
			"target":34962
		},
		{
			"buffer":0,
			"byteLength":880,
			"byteOffset":29464,
			"target":34962
		},
		{
			"buffer":0,
			"byteLength":768,
			"byteOffset":30344,
			"target":34963
		},
		{
			"buffer":0,
			"byteLength":288,
			"byteOffset":31112,
			"target":34962
		},
		{
			"buffer":0,
			"byteLength":288,
			"byteOffset":31400,
			"target":34962
		},
		{
			"buffer":0,
			"byteLength":192,
			"byteOffset":31688,
			"target":34962
		},
		{
			"buffer":0,
			"byteLength":72,
			"byteOffset":31880,
			"target":34963
		}
	],
	"buffers":[
		{
			"byteLength":31952,
			"uri":"skyscraperA.bin"
		}
	]
}
