{
	"asset":{
		"generator":"Khronos glTF Blender I/O v4.1.62",
		"version":"2.0"
	},
	"scene":0,
	"scenes":[
		{
			"name":"Scene",
			"nodes":[
				0,
				2,
				3
			]
		}
	],
	"nodes":[
		{
			"mesh":0,
			"name":"COL02",
			"scale":[
				0.2149999737739563,
				0.15000024437904358,
				0.2200000137090683
			],
			"translation":[
				0,
				0.5599998831748962,
				0.009999999776482582
			]
		},
		{
			"mesh":1,
			"name":"low_buildingH"
		},
		{
			"children":[
				1
			],
			"name":"tmpParent"
		},
		{
			"mesh":2,
			"name":"COL01",
			"scale":[
				0.26499998569488525,
				0.2600002884864807,
				0.27000001072883606
			],
			"translation":[
				0,
				0.2600001394748688,
				0.009999999776482582
			]
		}
	],
	"materials":[
		{
			"name":"_defaultMat.017",
			"pbrMetallicRoughness":{
				"baseColorFactor":[
					0.7641509771347046,
					0.7641509771347046,
					0.7641509771347046,
					1
				]
			}
		},
		{
			"name":"border.017",
			"pbrMetallicRoughness":{
				"baseColorFactor":[
					0.5607843399047852,
					0.5686274766921997,
					0.6000000238418579,
					1
				]
			}
		}
	],
	"meshes":[
		{
			"name":"\u7acb\u65b9\u4f53",
			"primitives":[
				{
					"attributes":{
						"POSITION":0,
						"NORMAL":1,
						"TEXCOORD_0":2
					},
					"indices":3
				}
			]
		},
		{
			"name":"Mesh low_buildingH",
			"primitives":[
				{
					"attributes":{
						"POSITION":4,
						"NORMAL":5,
						"TEXCOORD_0":6
					},
					"indices":7,
					"material":0
				},
				{
					"attributes":{
						"POSITION":8,
						"NORMAL":9,
						"TEXCOORD_0":10
					},
					"indices":11,
					"material":1
				}
			]
		},
		{
			"name":"\u7acb\u65b9\u4f53.014",
			"primitives":[
				{
					"attributes":{
						"POSITION":12,
						"NORMAL":13,
						"TEXCOORD_0":14
					},
					"indices":3
				}
			]
		}
	],
	"accessors":[
		{
			"bufferView":0,
			"componentType":5126,
			"count":24,
			"max":[
				1,
				1,
				1
			],
			"min":[
				-1,
				-1,
				-1
			],
			"type":"VEC3"
		},
		{
			"bufferView":1,
			"componentType":5126,
			"count":24,
			"type":"VEC3"
		},
		{
			"bufferView":2,
			"componentType":5126,
			"count":24,
			"type":"VEC2"
		},
		{
			"bufferView":3,
			"componentType":5123,
			"count":36,
			"type":"SCALAR"
		},
		{
			"bufferView":4,
			"componentType":5126,
			"count":126,
			"max":[
				0.25,
				0.699999988079071,
				0.25
			],
			"min":[
				-0.25,
				0,
				-0.25
			],
			"type":"VEC3"
		},
		{
			"bufferView":5,
			"componentType":5126,
			"count":126,
			"type":"VEC3"
		},
		{
			"bufferView":6,
			"componentType":5126,
			"count":126,
			"type":"VEC2"
		},
		{
			"bufferView":7,
			"componentType":5123,
			"count":150,
			"type":"SCALAR"
		},
		{
			"bufferView":8,
			"componentType":5126,
			"count":12,
			"max":[
				0.25,
				0.6499999761581421,
				0.25
			],
			"min":[
				-0.25,
				0.5,
				-0.25
			],
			"type":"VEC3"
		},
		{
			"bufferView":9,
			"componentType":5126,
			"count":12,
			"type":"VEC3"
		},
		{
			"bufferView":10,
			"componentType":5126,
			"count":12,
			"type":"VEC2"
		},
		{
			"bufferView":11,
			"componentType":5123,
			"count":30,
			"type":"SCALAR"
		},
		{
			"bufferView":12,
			"componentType":5126,
			"count":24,
			"max":[
				1,
				1,
				1
			],
			"min":[
				-1,
				-1,
				-1
			],
			"type":"VEC3"
		},
		{
			"bufferView":13,
			"componentType":5126,
			"count":24,
			"type":"VEC3"
		},
		{
			"bufferView":14,
			"componentType":5126,
			"count":24,
			"type":"VEC2"
		}
	],
	"bufferViews":[
		{
			"buffer":0,
			"byteLength":288,
			"byteOffset":0,
			"target":34962
		},
		{
			"buffer":0,
			"byteLength":288,
			"byteOffset":288,
			"target":34962
		},
		{
			"buffer":0,
			"byteLength":192,
			"byteOffset":576,
			"target":34962
		},
		{
			"buffer":0,
			"byteLength":72,
			"byteOffset":768,
			"target":34963
		},
		{
			"buffer":0,
			"byteLength":1512,
			"byteOffset":840,
			"target":34962
		},
		{
			"buffer":0,
			"byteLength":1512,
			"byteOffset":2352,
			"target":34962
		},
		{
			"buffer":0,
			"byteLength":1008,
			"byteOffset":3864,
			"target":34962
		},
		{
			"buffer":0,
			"byteLength":300,
			"byteOffset":4872,
			"target":34963
		},
		{
			"buffer":0,
			"byteLength":144,
			"byteOffset":5172,
			"target":34962
		},
		{
			"buffer":0,
			"byteLength":144,
			"byteOffset":5316,
			"target":34962
		},
		{
			"buffer":0,
			"byteLength":96,
			"byteOffset":5460,
			"target":34962
		},
		{
			"buffer":0,
			"byteLength":60,
			"byteOffset":5556,
			"target":34963
		},
		{
			"buffer":0,
			"byteLength":288,
			"byteOffset":5616,
			"target":34962
		},
		{
			"buffer":0,
			"byteLength":288,
			"byteOffset":5904,
			"target":34962
		},
		{
			"buffer":0,
			"byteLength":192,
			"byteOffset":6192,
			"target":34962
		}
	],
	"buffers":[
		{
			"byteLength":6384,
			"uri":"low_buildingH.bin"
		}
	]
}
