{
	"asset":{
		"generator":"Khronos glTF Blender I/O v4.1.62",
		"version":"2.0"
	},
	"scene":0,
	"scenes":[
		{
			"name":"Scene",
			"nodes":[
				0,
				2,
				3,
				4
			]
		}
	],
	"nodes":[
		{
			"mesh":0,
			"name":"COL01",
			"scale":[
				0.2749999761581421,
				0.25999993085861206,
				0.2800000011920929
			],
			"translation":[
				0,
				0.25000008940696716,
				0
			]
		},
		{
			"mesh":1,
			"name":"low_buildingA"
		},
		{
			"children":[
				1
			],
			"name":"tmpParent"
		},
		{
			"mesh":2,
			"name":"COL02",
			"scale":[
				0.20750001072883606,
				0.25999993085861206,
				0.2199999988079071
			],
			"translation":[
				0,
				0.7500000596046448,
				0
			]
		},
		{
			"mesh":3,
			"name":"COL03",
			"scale":[
				0.1574999839067459,
				0.25999993085861206,
				0.15999996662139893
			],
			"translation":[
				0,
				1.2400000095367432,
				0
			]
		}
	],
	"materials":[
		{
			"name":"_defaultMat.010",
			"pbrMetallicRoughness":{
				"baseColorFactor":[
					0.7641509771347046,
					0.7641509771347046,
					0.7641509771347046,
					1
				]
			}
		},
		{
			"name":"border.010",
			"pbrMetallicRoughness":{
				"baseColorFactor":[
					0.5607843399047852,
					0.5686274766921997,
					0.6000000238418579,
					1
				]
			}
		}
	],
	"meshes":[
		{
			"name":"\u7acb\u65b9\u4f53",
			"primitives":[
				{
					"attributes":{
						"POSITION":0,
						"NORMAL":1,
						"TEXCOORD_0":2
					},
					"indices":3
				}
			]
		},
		{
			"name":"Mesh low_buildingA",
			"primitives":[
				{
					"attributes":{
						"POSITION":4,
						"NORMAL":5,
						"TEXCOORD_0":6
					},
					"indices":7,
					"material":0
				},
				{
					"attributes":{
						"POSITION":8,
						"NORMAL":9,
						"TEXCOORD_0":10
					},
					"indices":11,
					"material":1
				}
			]
		},
		{
			"name":"\u7acb\u65b9\u4f53.007",
			"primitives":[
				{
					"attributes":{
						"POSITION":12,
						"NORMAL":13,
						"TEXCOORD_0":14
					},
					"indices":3
				}
			]
		},
		{
			"name":"\u7acb\u65b9\u4f53.008",
			"primitives":[
				{
					"attributes":{
						"POSITION":15,
						"NORMAL":16,
						"TEXCOORD_0":17
					},
					"indices":3
				}
			]
		}
	],
	"accessors":[
		{
			"bufferView":0,
			"componentType":5126,
			"count":24,
			"max":[
				1,
				1,
				1
			],
			"min":[
				-1,
				-1,
				-1
			],
			"type":"VEC3"
		},
		{
			"bufferView":1,
			"componentType":5126,
			"count":24,
			"type":"VEC3"
		},
		{
			"bufferView":2,
			"componentType":5126,
			"count":24,
			"type":"VEC2"
		},
		{
			"bufferView":3,
			"componentType":5123,
			"count":36,
			"type":"SCALAR"
		},
		{
			"bufferView":4,
			"componentType":5126,
			"count":276,
			"max":[
				0.25,
				1.774999976158142,
				0.25
			],
			"min":[
				-0.25,
				0,
				-0.25
			],
			"type":"VEC3"
		},
		{
			"bufferView":5,
			"componentType":5126,
			"count":276,
			"type":"VEC3"
		},
		{
			"bufferView":6,
			"componentType":5126,
			"count":276,
			"type":"VEC2"
		},
		{
			"bufferView":7,
			"componentType":5123,
			"count":282,
			"type":"SCALAR"
		},
		{
			"bufferView":8,
			"componentType":5126,
			"count":36,
			"max":[
				0.25,
				1.475000023841858,
				0.25
			],
			"min":[
				-0.25,
				1.804778606428895e-15,
				-0.25
			],
			"type":"VEC3"
		},
		{
			"bufferView":9,
			"componentType":5126,
			"count":36,
			"type":"VEC3"
		},
		{
			"bufferView":10,
			"componentType":5126,
			"count":36,
			"type":"VEC2"
		},
		{
			"bufferView":11,
			"componentType":5123,
			"count":90,
			"type":"SCALAR"
		},
		{
			"bufferView":12,
			"componentType":5126,
			"count":24,
			"max":[
				1,
				1,
				1
			],
			"min":[
				-1,
				-1,
				-1
			],
			"type":"VEC3"
		},
		{
			"bufferView":13,
			"componentType":5126,
			"count":24,
			"type":"VEC3"
		},
		{
			"bufferView":14,
			"componentType":5126,
			"count":24,
			"type":"VEC2"
		},
		{
			"bufferView":15,
			"componentType":5126,
			"count":24,
			"max":[
				1,
				1,
				1
			],
			"min":[
				-1,
				-1,
				-1
			],
			"type":"VEC3"
		},
		{
			"bufferView":16,
			"componentType":5126,
			"count":24,
			"type":"VEC3"
		},
		{
			"bufferView":17,
			"componentType":5126,
			"count":24,
			"type":"VEC2"
		}
	],
	"bufferViews":[
		{
			"buffer":0,
			"byteLength":288,
			"byteOffset":0,
			"target":34962
		},
		{
			"buffer":0,
			"byteLength":288,
			"byteOffset":288,
			"target":34962
		},
		{
			"buffer":0,
			"byteLength":192,
			"byteOffset":576,
			"target":34962
		},
		{
			"buffer":0,
			"byteLength":72,
			"byteOffset":768,
			"target":34963
		},
		{
			"buffer":0,
			"byteLength":3312,
			"byteOffset":840,
			"target":34962
		},
		{
			"buffer":0,
			"byteLength":3312,
			"byteOffset":4152,
			"target":34962
		},
		{
			"buffer":0,
			"byteLength":2208,
			"byteOffset":7464,
			"target":34962
		},
		{
			"buffer":0,
			"byteLength":564,
			"byteOffset":9672,
			"target":34963
		},
		{
			"buffer":0,
			"byteLength":432,
			"byteOffset":10236,
			"target":34962
		},
		{
			"buffer":0,
			"byteLength":432,
			"byteOffset":10668,
			"target":34962
		},
		{
			"buffer":0,
			"byteLength":288,
			"byteOffset":11100,
			"target":34962
		},
		{
			"buffer":0,
			"byteLength":180,
			"byteOffset":11388,
			"target":34963
		},
		{
			"buffer":0,
			"byteLength":288,
			"byteOffset":11568,
			"target":34962
		},
		{
			"buffer":0,
			"byteLength":288,
			"byteOffset":11856,
			"target":34962
		},
		{
			"buffer":0,
			"byteLength":192,
			"byteOffset":12144,
			"target":34962
		},
		{
			"buffer":0,
			"byteLength":288,
			"byteOffset":12336,
			"target":34962
		},
		{
			"buffer":0,
			"byteLength":288,
			"byteOffset":12624,
			"target":34962
		},
		{
			"buffer":0,
			"byteLength":192,
			"byteOffset":12912,
			"target":34962
		}
	],
	"buffers":[
		{
			"byteLength":13104,
			"uri":"low_buildingA.bin"
		}
	]
}
