{
	"asset":{
		"generator":"Khronos glTF Blender I/O v4.1.62",
		"version":"2.0"
	},
	"scene":0,
	"scenes":[
		{
			"name":"Scene",
			"nodes":[
				1
			]
		}
	],
	"nodes":[
		{
			"mesh":0,
			"name":"light_square",
			"translation":[
				0,
				0,
				0.75
			]
		},
		{
			"children":[
				0
			],
			"name":"tmpParent"
		}
	],
	"materials":[
		{
			"name":"pavement.065",
			"pbrMetallicRoughness":{
				"baseColorFactor":[
					0.7568627595901489,
					0.7568627595901489,
					0.800000011920929,
					1
				]
			}
		},
		{
			"name":"light.005",
			"pbrMetallicRoughness":{
				"baseColorFactor":[
					0.9450980424880981,
					0.9490196108818054,
					0.9647058844566345,
					1
				]
			}
		}
	],
	"meshes":[
		{
			"name":"Mesh light_square.001",
			"primitives":[
				{
					"attributes":{
						"POSITION":0,
						"NORMAL":1,
						"TEXCOORD_0":2
					},
					"indices":3,
					"material":0
				},
				{
					"attributes":{
						"POSITION":4,
						"NORMAL":5,
						"TEXCOORD_0":6
					},
					"indices":7,
					"material":1
				}
			]
		}
	],
	"accessors":[
		{
			"bufferView":0,
			"componentType":5126,
			"count":100,
			"max":[
				0.02500000037252903,
				0.6000000238418579,
				0.21249999105930328
			],
			"min":[
				-0.02500000037252903,
				0,
				-0.02500000037252903
			],
			"type":"VEC3"
		},
		{
			"bufferView":1,
			"componentType":5126,
			"count":100,
			"type":"VEC3"
		},
		{
			"bufferView":2,
			"componentType":5126,
			"count":100,
			"type":"VEC2"
		},
		{
			"bufferView":3,
			"componentType":5123,
			"count":168,
			"type":"SCALAR"
		},
		{
			"bufferView":4,
			"componentType":5126,
			"count":6,
			"max":[
				0.02500000037252903,
				0.574999988079071,
				0.21249999105930328
			],
			"min":[
				-0.02500000037252903,
				0.574999988079071,
				0.11249999701976776
			],
			"type":"VEC3"
		},
		{
			"bufferView":5,
			"componentType":5126,
			"count":6,
			"type":"VEC3"
		},
		{
			"bufferView":6,
			"componentType":5126,
			"count":6,
			"type":"VEC2"
		},
		{
			"bufferView":7,
			"componentType":5123,
			"count":12,
			"type":"SCALAR"
		}
	],
	"bufferViews":[
		{
			"buffer":0,
			"byteLength":1200,
			"byteOffset":0,
			"target":34962
		},
		{
			"buffer":0,
			"byteLength":1200,
			"byteOffset":1200,
			"target":34962
		},
		{
			"buffer":0,
			"byteLength":800,
			"byteOffset":2400,
			"target":34962
		},
		{
			"buffer":0,
			"byteLength":336,
			"byteOffset":3200,
			"target":34963
		},
		{
			"buffer":0,
			"byteLength":72,
			"byteOffset":3536,
			"target":34962
		},
		{
			"buffer":0,
			"byteLength":72,
			"byteOffset":3608,
			"target":34962
		},
		{
			"buffer":0,
			"byteLength":48,
			"byteOffset":3680,
			"target":34962
		},
		{
			"buffer":0,
			"byteLength":24,
			"byteOffset":3728,
			"target":34963
		}
	],
	"buffers":[
		{
			"byteLength":3752,
			"uri":"light_square.bin"
		}
	]
}
