{
	"asset":{
		"generator":"Khronos glTF Blender I/O v4.1.62",
		"version":"2.0"
	},
	"scene":0,
	"scenes":[
		{
			"name":"Scene",
			"nodes":[
				0,
				2,
				3
			]
		}
	],
	"nodes":[
		{
			"mesh":0,
			"name":"COL01",
			"scale":[
				0.6600000262260437,
				1.0499999523162842,
				0.6399999856948853
			],
			"translation":[
				0,
				1.0500001907348633,
				0
			]
		},
		{
			"mesh":1,
			"name":"large_buildingE"
		},
		{
			"children":[
				1
			],
			"name":"tmpParent"
		},
		{
			"mesh":2,
			"name":"COL02",
			"scale":[
				0.23000001907348633,
				1,
				0.09000003337860107
			],
			"translation":[
				-0.019999999552965164,
				1.0699999332427979,
				0.6599999666213989
			]
		}
	],
	"materials":[
		{
			"name":"_defaultMat.007",
			"pbrMetallicRoughness":{
				"baseColorFactor":[
					0.7641509771347046,
					0.7641509771347046,
					0.7641509771347046,
					1
				]
			}
		},
		{
			"name":"border.007",
			"pbrMetallicRoughness":{
				"baseColorFactor":[
					0.5607843399047852,
					0.5686274766921997,
					0.6000000238418579,
					1
				]
			}
		},
		{
			"name":"window.006",
			"pbrMetallicRoughness":{
				"baseColorFactor":[
					0.7372549176216125,
					0.886274516582489,
					1,
					1
				]
			}
		},
		{
			"name":"door.006",
			"pbrMetallicRoughness":{
				"baseColorFactor":[
					0.38823530077934265,
					0.4000000059604645,
					0.4470588266849518,
					1
				]
			}
		},
		{
			"name":"roof.005",
			"pbrMetallicRoughness":{
				"baseColorFactor":[
					0.33725491166114807,
					0.7372549176216125,
					0.6000000238418579,
					1
				]
			}
		}
	],
	"meshes":[
		{
			"name":"\u7acb\u65b9\u4f53",
			"primitives":[
				{
					"attributes":{
						"POSITION":0,
						"NORMAL":1,
						"TEXCOORD_0":2
					},
					"indices":3
				}
			]
		},
		{
			"name":"Mesh large_buildingE",
			"primitives":[
				{
					"attributes":{
						"POSITION":4,
						"NORMAL":5,
						"TEXCOORD_0":6
					},
					"indices":7,
					"material":0
				},
				{
					"attributes":{
						"POSITION":8,
						"NORMAL":9,
						"TEXCOORD_0":10
					},
					"indices":11,
					"material":1
				},
				{
					"attributes":{
						"POSITION":12,
						"NORMAL":13,
						"TEXCOORD_0":14
					},
					"indices":15,
					"material":2
				},
				{
					"attributes":{
						"POSITION":16,
						"NORMAL":17,
						"TEXCOORD_0":18
					},
					"indices":19,
					"material":3
				},
				{
					"attributes":{
						"POSITION":20,
						"NORMAL":21,
						"TEXCOORD_0":22
					},
					"indices":23,
					"material":4
				}
			]
		},
		{
			"name":"\u7acb\u65b9\u4f53.002",
			"primitives":[
				{
					"attributes":{
						"POSITION":24,
						"NORMAL":25,
						"TEXCOORD_0":26
					},
					"indices":3
				}
			]
		}
	],
	"accessors":[
		{
			"bufferView":0,
			"componentType":5126,
			"count":24,
			"max":[
				1,
				1,
				1
			],
			"min":[
				-1,
				-1,
				-1
			],
			"type":"VEC3"
		},
		{
			"bufferView":1,
			"componentType":5126,
			"count":24,
			"type":"VEC3"
		},
		{
			"bufferView":2,
			"componentType":5126,
			"count":24,
			"type":"VEC2"
		},
		{
			"bufferView":3,
			"componentType":5123,
			"count":36,
			"type":"SCALAR"
		},
		{
			"bufferView":4,
			"componentType":5126,
			"count":716,
			"max":[
				0.6000000238418579,
				2,
				0.699999988079071
			],
			"min":[
				-0.6000000238418579,
				0.44999998807907104,
				-0.6000000238418579
			],
			"type":"VEC3"
		},
		{
			"bufferView":5,
			"componentType":5126,
			"count":716,
			"type":"VEC3"
		},
		{
			"bufferView":6,
			"componentType":5126,
			"count":716,
			"type":"VEC2"
		},
		{
			"bufferView":7,
			"componentType":5123,
			"count":768,
			"type":"SCALAR"
		},
		{
			"bufferView":8,
			"componentType":5126,
			"count":1640,
			"max":[
				0.6200000047683716,
				2.0799999237060547,
				0.7199999690055847
			],
			"min":[
				-0.6200000047683716,
				0,
				-0.6200000047683716
			],
			"type":"VEC3"
		},
		{
			"bufferView":9,
			"componentType":5126,
			"count":1640,
			"type":"VEC3"
		},
		{
			"bufferView":10,
			"componentType":5126,
			"count":1640,
			"type":"VEC2"
		},
		{
			"bufferView":11,
			"componentType":5123,
			"count":3408,
			"type":"SCALAR"
		},
		{
			"bufferView":12,
			"componentType":5126,
			"count":180,
			"max":[
				0.5799999833106995,
				1.850000023841858,
				0.6800000071525574
			],
			"min":[
				-0.5799999833106995,
				0.019999999552965164,
				-0.5799999833106995
			],
			"type":"VEC3"
		},
		{
			"bufferView":13,
			"componentType":5126,
			"count":180,
			"type":"VEC3"
		},
		{
			"bufferView":14,
			"componentType":5126,
			"count":180,
			"type":"VEC2"
		},
		{
			"bufferView":15,
			"componentType":5123,
			"count":270,
			"type":"SCALAR"
		},
		{
			"bufferView":16,
			"componentType":5126,
			"count":104,
			"max":[
				0.6000000238418579,
				2,
				0.699999988079071
			],
			"min":[
				-0.6000000238418579,
				0,
				-0.6000000238418579
			],
			"type":"VEC3"
		},
		{
			"bufferView":17,
			"componentType":5126,
			"count":104,
			"type":"VEC3"
		},
		{
			"bufferView":18,
			"componentType":5126,
			"count":104,
			"type":"VEC2"
		},
		{
			"bufferView":19,
			"componentType":5123,
			"count":264,
			"type":"SCALAR"
		},
		{
			"bufferView":20,
			"componentType":5126,
			"count":56,
			"max":[
				0.6000000238418579,
				0.4000000059604645,
				0.7141420841217041
			],
			"min":[
				-0.6000000238418579,
				0.30000001192092896,
				0.6000000238418579
			],
			"type":"VEC3"
		},
		{
			"bufferView":21,
			"componentType":5126,
			"count":56,
			"type":"VEC3"
		},
		{
			"bufferView":22,
			"componentType":5126,
			"count":56,
			"type":"VEC2"
		},
		{
			"bufferView":23,
			"componentType":5123,
			"count":114,
			"type":"SCALAR"
		},
		{
			"bufferView":24,
			"componentType":5126,
			"count":24,
			"max":[
				1,
				1,
				1
			],
			"min":[
				-1,
				-1,
				-1
			],
			"type":"VEC3"
		},
		{
			"bufferView":25,
			"componentType":5126,
			"count":24,
			"type":"VEC3"
		},
		{
			"bufferView":26,
			"componentType":5126,
			"count":24,
			"type":"VEC2"
		}
	],
	"bufferViews":[
		{
			"buffer":0,
			"byteLength":288,
			"byteOffset":0,
			"target":34962
		},
		{
			"buffer":0,
			"byteLength":288,
			"byteOffset":288,
			"target":34962
		},
		{
			"buffer":0,
			"byteLength":192,
			"byteOffset":576,
			"target":34962
		},
		{
			"buffer":0,
			"byteLength":72,
			"byteOffset":768,
			"target":34963
		},
		{
			"buffer":0,
			"byteLength":8592,
			"byteOffset":840,
			"target":34962
		},
		{
			"buffer":0,
			"byteLength":8592,
			"byteOffset":9432,
			"target":34962
		},
		{
			"buffer":0,
			"byteLength":5728,
			"byteOffset":18024,
			"target":34962
		},
		{
			"buffer":0,
			"byteLength":1536,
			"byteOffset":23752,
			"target":34963
		},
		{
			"buffer":0,
			"byteLength":19680,
			"byteOffset":25288,
			"target":34962
		},
		{
			"buffer":0,
			"byteLength":19680,
			"byteOffset":44968,
			"target":34962
		},
		{
			"buffer":0,
			"byteLength":13120,
			"byteOffset":64648,
			"target":34962
		},
		{
			"buffer":0,
			"byteLength":6816,
			"byteOffset":77768,
			"target":34963
		},
		{
			"buffer":0,
			"byteLength":2160,
			"byteOffset":84584,
			"target":34962
		},
		{
			"buffer":0,
			"byteLength":2160,
			"byteOffset":86744,
			"target":34962
		},
		{
			"buffer":0,
			"byteLength":1440,
			"byteOffset":88904,
			"target":34962
		},
		{
			"buffer":0,
			"byteLength":540,
			"byteOffset":90344,
			"target":34963
		},
		{
			"buffer":0,
			"byteLength":1248,
			"byteOffset":90884,
			"target":34962
		},
		{
			"buffer":0,
			"byteLength":1248,
			"byteOffset":92132,
			"target":34962
		},
		{
			"buffer":0,
			"byteLength":832,
			"byteOffset":93380,
			"target":34962
		},
		{
			"buffer":0,
			"byteLength":528,
			"byteOffset":94212,
			"target":34963
		},
		{
			"buffer":0,
			"byteLength":672,
			"byteOffset":94740,
			"target":34962
		},
		{
			"buffer":0,
			"byteLength":672,
			"byteOffset":95412,
			"target":34962
		},
		{
			"buffer":0,
			"byteLength":448,
			"byteOffset":96084,
			"target":34962
		},
		{
			"buffer":0,
			"byteLength":228,
			"byteOffset":96532,
			"target":34963
		},
		{
			"buffer":0,
			"byteLength":288,
			"byteOffset":96760,
			"target":34962
		},
		{
			"buffer":0,
			"byteLength":288,
			"byteOffset":97048,
			"target":34962
		},
		{
			"buffer":0,
			"byteLength":192,
			"byteOffset":97336,
			"target":34962
		}
	],
	"buffers":[
		{
			"byteLength":97528,
			"uri":"large_buildingE.bin"
		}
	]
}
