{
	"asset":{
		"generator":"Khronos glTF Blender I/O v4.1.62",
		"version":"2.0"
	},
	"scene":0,
	"scenes":[
		{
			"name":"Scene",
			"nodes":[
				1,
				2
			]
		}
	],
	"nodes":[
		{
			"mesh":0,
			"name":"skyscraperD"
		},
		{
			"children":[
				0
			],
			"name":"tmpParent"
		},
		{
			"mesh":1,
			"name":"COL01",
			"scale":[
				0.6800003051757812,
				5.25,
				0.7100002765655518
			],
			"translation":[
				-0.019999999552965164,
				0,
				0.019999999552965164
			]
		}
	],
	"materials":[
		{
			"name":"border.003",
			"pbrMetallicRoughness":{
				"baseColorFactor":[
					0.5607843399047852,
					0.5686274766921997,
					0.6000000238418579,
					1
				]
			}
		},
		{
			"name":"trim.002",
			"pbrMetallicRoughness":{
				"baseColorFactor":[
					0.7372549176216125,
					0.886274516582489,
					1,
					1
				]
			}
		},
		{
			"name":"door.003",
			"pbrMetallicRoughness":{
				"baseColorFactor":[
					0.38823530077934265,
					0.4000000059604645,
					0.4470588266849518,
					1
				]
			}
		},
		{
			"name":"window.003",
			"pbrMetallicRoughness":{
				"baseColorFactor":[
					0.7372549176216125,
					0.886274516582489,
					1,
					1
				]
			}
		},
		{
			"name":"_defaultMat.003",
			"pbrMetallicRoughness":{
				"baseColorFactor":[
					0.7641509771347046,
					0.7641509771347046,
					0.7641509771347046,
					1
				]
			}
		},
		{
			"name":"roof",
			"pbrMetallicRoughness":{
				"baseColorFactor":[
					0.33725491166114807,
					0.7372549176216125,
					0.6000000238418579,
					1
				]
			}
		}
	],
	"meshes":[
		{
			"name":"Mesh skyscraperD",
			"primitives":[
				{
					"attributes":{
						"POSITION":0,
						"NORMAL":1,
						"TEXCOORD_0":2
					},
					"indices":3,
					"material":0
				},
				{
					"attributes":{
						"POSITION":4,
						"NORMAL":5,
						"TEXCOORD_0":6
					},
					"indices":7,
					"material":1
				},
				{
					"attributes":{
						"POSITION":8,
						"NORMAL":9,
						"TEXCOORD_0":10
					},
					"indices":11,
					"material":2
				},
				{
					"attributes":{
						"POSITION":12,
						"NORMAL":13,
						"TEXCOORD_0":14
					},
					"indices":15,
					"material":3
				},
				{
					"attributes":{
						"POSITION":16,
						"NORMAL":17,
						"TEXCOORD_0":18
					},
					"indices":19,
					"material":4
				},
				{
					"attributes":{
						"POSITION":20,
						"NORMAL":21,
						"TEXCOORD_0":22
					},
					"indices":23,
					"material":5
				}
			]
		},
		{
			"name":"\u7acb\u65b9\u4f53.002",
			"primitives":[
				{
					"attributes":{
						"POSITION":24,
						"NORMAL":25,
						"TEXCOORD_0":26
					},
					"indices":27
				}
			]
		}
	],
	"accessors":[
		{
			"bufferView":0,
			"componentType":5126,
			"count":675,
			"max":[
				0.6200000047683716,
				5.389999866485596,
				0.699999988079071
			],
			"min":[
				-0.6200000047683716,
				0,
				-0.6200000047683716
			],
			"type":"VEC3"
		},
		{
			"bufferView":1,
			"componentType":5126,
			"count":675,
			"type":"VEC3"
		},
		{
			"bufferView":2,
			"componentType":5126,
			"count":675,
			"type":"VEC2"
		},
		{
			"bufferView":3,
			"componentType":5123,
			"count":1455,
			"type":"SCALAR"
		},
		{
			"bufferView":4,
			"componentType":5126,
			"count":182,
			"max":[
				0.550000011920929,
				4.833075046539307,
				0.550000011920929
			],
			"min":[
				-0.550000011920929,
				1.2000000476837158,
				-0.550000011920929
			],
			"type":"VEC3"
		},
		{
			"bufferView":5,
			"componentType":5126,
			"count":182,
			"type":"VEC3"
		},
		{
			"bufferView":6,
			"componentType":5126,
			"count":182,
			"type":"VEC2"
		},
		{
			"bufferView":7,
			"componentType":5123,
			"count":306,
			"type":"SCALAR"
		},
		{
			"bufferView":8,
			"componentType":5126,
			"count":355,
			"max":[
				0.6000000238418579,
				5.5,
				0.6000000238418579
			],
			"min":[
				-0.6000000238418579,
				0,
				-0.6000000238418579
			],
			"type":"VEC3"
		},
		{
			"bufferView":9,
			"componentType":5126,
			"count":355,
			"type":"VEC3"
		},
		{
			"bufferView":10,
			"componentType":5126,
			"count":355,
			"type":"VEC2"
		},
		{
			"bufferView":11,
			"componentType":5123,
			"count":660,
			"type":"SCALAR"
		},
		{
			"bufferView":12,
			"componentType":5126,
			"count":214,
			"max":[
				0.550000011920929,
				5.001548767089844,
				0.5799999833106995
			],
			"min":[
				-0.550000011920929,
				0.019999999552965164,
				-0.550000011920929
			],
			"type":"VEC3"
		},
		{
			"bufferView":13,
			"componentType":5126,
			"count":214,
			"type":"VEC3"
		},
		{
			"bufferView":14,
			"componentType":5126,
			"count":214,
			"type":"VEC2"
		},
		{
			"bufferView":15,
			"componentType":5123,
			"count":354,
			"type":"SCALAR"
		},
		{
			"bufferView":16,
			"componentType":5126,
			"count":106,
			"max":[
				0.6000000238418579,
				5.199999809265137,
				0.6000000238418579
			],
			"min":[
				-0.6000000238418579,
				0.4000000059604645,
				-0.6000000238418579
			],
			"type":"VEC3"
		},
		{
			"bufferView":17,
			"componentType":5126,
			"count":106,
			"type":"VEC3"
		},
		{
			"bufferView":18,
			"componentType":5126,
			"count":106,
			"type":"VEC2"
		},
		{
			"bufferView":19,
			"componentType":5123,
			"count":111,
			"type":"SCALAR"
		},
		{
			"bufferView":20,
			"componentType":5126,
			"count":36,
			"max":[
				0.20000000298023224,
				0.4000000059604645,
				0.7478913068771362
			],
			"min":[
				-0.20000000298023224,
				0.32563260197639465,
				0.6000000238418579
			],
			"type":"VEC3"
		},
		{
			"bufferView":21,
			"componentType":5126,
			"count":36,
			"type":"VEC3"
		},
		{
			"bufferView":22,
			"componentType":5126,
			"count":36,
			"type":"VEC2"
		},
		{
			"bufferView":23,
			"componentType":5123,
			"count":72,
			"type":"SCALAR"
		},
		{
			"bufferView":24,
			"componentType":5126,
			"count":24,
			"max":[
				1,
				1,
				1
			],
			"min":[
				-1,
				-0.0013735293177887797,
				-1
			],
			"type":"VEC3"
		},
		{
			"bufferView":25,
			"componentType":5126,
			"count":24,
			"type":"VEC3"
		},
		{
			"bufferView":26,
			"componentType":5126,
			"count":24,
			"type":"VEC2"
		},
		{
			"bufferView":27,
			"componentType":5123,
			"count":36,
			"type":"SCALAR"
		}
	],
	"bufferViews":[
		{
			"buffer":0,
			"byteLength":8100,
			"byteOffset":0,
			"target":34962
		},
		{
			"buffer":0,
			"byteLength":8100,
			"byteOffset":8100,
			"target":34962
		},
		{
			"buffer":0,
			"byteLength":5400,
			"byteOffset":16200,
			"target":34962
		},
		{
			"buffer":0,
			"byteLength":2910,
			"byteOffset":21600,
			"target":34963
		},
		{
			"buffer":0,
			"byteLength":2184,
			"byteOffset":24512,
			"target":34962
		},
		{
			"buffer":0,
			"byteLength":2184,
			"byteOffset":26696,
			"target":34962
		},
		{
			"buffer":0,
			"byteLength":1456,
			"byteOffset":28880,
			"target":34962
		},
		{
			"buffer":0,
			"byteLength":612,
			"byteOffset":30336,
			"target":34963
		},
		{
			"buffer":0,
			"byteLength":4260,
			"byteOffset":30948,
			"target":34962
		},
		{
			"buffer":0,
			"byteLength":4260,
			"byteOffset":35208,
			"target":34962
		},
		{
			"buffer":0,
			"byteLength":2840,
			"byteOffset":39468,
			"target":34962
		},
		{
			"buffer":0,
			"byteLength":1320,
			"byteOffset":42308,
			"target":34963
		},
		{
			"buffer":0,
			"byteLength":2568,
			"byteOffset":43628,
			"target":34962
		},
		{
			"buffer":0,
			"byteLength":2568,
			"byteOffset":46196,
			"target":34962
		},
		{
			"buffer":0,
			"byteLength":1712,
			"byteOffset":48764,
			"target":34962
		},
		{
			"buffer":0,
			"byteLength":708,
			"byteOffset":50476,
			"target":34963
		},
		{
			"buffer":0,
			"byteLength":1272,
			"byteOffset":51184,
			"target":34962
		},
		{
			"buffer":0,
			"byteLength":1272,
			"byteOffset":52456,
			"target":34962
		},
		{
			"buffer":0,
			"byteLength":848,
			"byteOffset":53728,
			"target":34962
		},
		{
			"buffer":0,
			"byteLength":222,
			"byteOffset":54576,
			"target":34963
		},
		{
			"buffer":0,
			"byteLength":432,
			"byteOffset":54800,
			"target":34962
		},
		{
			"buffer":0,
			"byteLength":432,
			"byteOffset":55232,
			"target":34962
		},
		{
			"buffer":0,
			"byteLength":288,
			"byteOffset":55664,
			"target":34962
		},
		{
			"buffer":0,
			"byteLength":144,
			"byteOffset":55952,
			"target":34963
		},
		{
			"buffer":0,
			"byteLength":288,
			"byteOffset":56096,
			"target":34962
		},
		{
			"buffer":0,
			"byteLength":288,
			"byteOffset":56384,
			"target":34962
		},
		{
			"buffer":0,
			"byteLength":192,
			"byteOffset":56672,
			"target":34962
		},
		{
			"buffer":0,
			"byteLength":72,
			"byteOffset":56864,
			"target":34963
		}
	],
	"buffers":[
		{
			"byteLength":56936,
			"uri":"skyscraperD.bin"
		}
	]
}
