{
	"asset":{
		"generator":"Khronos glTF Blender I/O v4.1.62",
		"version":"2.0"
	},
	"scene":0,
	"scenes":[
		{
			"name":"Scene",
			"nodes":[
				1
			]
		}
	],
	"nodes":[
		{
			"mesh":0,
			"name":"construction_light",
			"translation":[
				0,
				0,
				0.75
			]
		},
		{
			"children":[
				0
			],
			"name":"tmpParent"
		}
	],
	"materials":[
		{
			"name":"asphaltEdge.032",
			"pbrMetallicRoughness":{
				"baseColorFactor":[
					0.32156863808631897,
					0.33725491166114807,
					0.3960784375667572,
					1
				]
			}
		},
		{
			"name":"cone.001",
			"pbrMetallicRoughness":{
				"baseColorFactor":[
					0.9607843160629272,
					0.4313725531101227,
					0.14509804546833038,
					1
				]
			}
		},
		{
			"name":"pavement.068",
			"pbrMetallicRoughness":{
				"baseColorFactor":[
					0.7568627595901489,
					0.7568627595901489,
					0.800000011920929,
					1
				]
			}
		},
		{
			"name":"light.007",
			"pbrMetallicRoughness":{
				"baseColorFactor":[
					0.9450980424880981,
					0.9490196108818054,
					0.9647058844566345,
					1
				]
			}
		}
	],
	"meshes":[
		{
			"name":"Mesh construction_light",
			"primitives":[
				{
					"attributes":{
						"POSITION":0,
						"NORMAL":1,
						"TEXCOORD_0":2
					},
					"indices":3,
					"material":0
				},
				{
					"attributes":{
						"POSITION":4,
						"NORMAL":5,
						"TEXCOORD_0":6
					},
					"indices":7,
					"material":1
				},
				{
					"attributes":{
						"POSITION":8,
						"NORMAL":9,
						"TEXCOORD_0":10
					},
					"indices":11,
					"material":2
				},
				{
					"attributes":{
						"POSITION":12,
						"NORMAL":13,
						"TEXCOORD_0":14
					},
					"indices":15,
					"material":3
				}
			]
		}
	],
	"accessors":[
		{
			"bufferView":0,
			"componentType":5126,
			"count":28,
			"max":[
				0.03750000149011612,
				0.01875000074505806,
				0.03750000149011612
			],
			"min":[
				-0.03750000149011612,
				0,
				-0.03750000149011612
			],
			"type":"VEC3"
		},
		{
			"bufferView":1,
			"componentType":5126,
			"count":28,
			"type":"VEC3"
		},
		{
			"bufferView":2,
			"componentType":5126,
			"count":28,
			"type":"VEC2"
		},
		{
			"bufferView":3,
			"componentType":5123,
			"count":54,
			"type":"SCALAR"
		},
		{
			"bufferView":4,
			"componentType":5126,
			"count":44,
			"max":[
				0.00937500037252903,
				0.17874999344348907,
				0.03750000149011612
			],
			"min":[
				-0.00937500037252903,
				0.036249998956918716,
				-0.03750000149011612
			],
			"type":"VEC3"
		},
		{
			"bufferView":5,
			"componentType":5126,
			"count":44,
			"type":"VEC3"
		},
		{
			"bufferView":6,
			"componentType":5126,
			"count":44,
			"type":"VEC2"
		},
		{
			"bufferView":7,
			"componentType":5123,
			"count":72,
			"type":"SCALAR"
		},
		{
			"bufferView":8,
			"componentType":5126,
			"count":60,
			"max":[
				0.01875000074505806,
				0.23375000059604645,
				0.03750000149011612
			],
			"min":[
				-0.01875000074505806,
				0.01875000074505806,
				-0.03750000149011612
			],
			"type":"VEC3"
		},
		{
			"bufferView":9,
			"componentType":5126,
			"count":60,
			"type":"VEC3"
		},
		{
			"bufferView":10,
			"componentType":5126,
			"count":60,
			"type":"VEC2"
		},
		{
			"bufferView":11,
			"componentType":5123,
			"count":90,
			"type":"SCALAR"
		},
		{
			"bufferView":12,
			"componentType":5126,
			"count":16,
			"max":[
				0.00937500037252903,
				0.23375000059604645,
				0.02749999798834324
			],
			"min":[
				-0.00937500037252903,
				0.17874999344348907,
				-0.02749999798834324
			],
			"type":"VEC3"
		},
		{
			"bufferView":13,
			"componentType":5126,
			"count":16,
			"type":"VEC3"
		},
		{
			"bufferView":14,
			"componentType":5126,
			"count":16,
			"type":"VEC2"
		},
		{
			"bufferView":15,
			"componentType":5123,
			"count":36,
			"type":"SCALAR"
		}
	],
	"bufferViews":[
		{
			"buffer":0,
			"byteLength":336,
			"byteOffset":0,
			"target":34962
		},
		{
			"buffer":0,
			"byteLength":336,
			"byteOffset":336,
			"target":34962
		},
		{
			"buffer":0,
			"byteLength":224,
			"byteOffset":672,
			"target":34962
		},
		{
			"buffer":0,
			"byteLength":108,
			"byteOffset":896,
			"target":34963
		},
		{
			"buffer":0,
			"byteLength":528,
			"byteOffset":1004,
			"target":34962
		},
		{
			"buffer":0,
			"byteLength":528,
			"byteOffset":1532,
			"target":34962
		},
		{
			"buffer":0,
			"byteLength":352,
			"byteOffset":2060,
			"target":34962
		},
		{
			"buffer":0,
			"byteLength":144,
			"byteOffset":2412,
			"target":34963
		},
		{
			"buffer":0,
			"byteLength":720,
			"byteOffset":2556,
			"target":34962
		},
		{
			"buffer":0,
			"byteLength":720,
			"byteOffset":3276,
			"target":34962
		},
		{
			"buffer":0,
			"byteLength":480,
			"byteOffset":3996,
			"target":34962
		},
		{
			"buffer":0,
			"byteLength":180,
			"byteOffset":4476,
			"target":34963
		},
		{
			"buffer":0,
			"byteLength":192,
			"byteOffset":4656,
			"target":34962
		},
		{
			"buffer":0,
			"byteLength":192,
			"byteOffset":4848,
			"target":34962
		},
		{
			"buffer":0,
			"byteLength":128,
			"byteOffset":5040,
			"target":34962
		},
		{
			"buffer":0,
			"byteLength":72,
			"byteOffset":5168,
			"target":34963
		}
	],
	"buffers":[
		{
			"byteLength":5240,
			"uri":"construction_light.bin"
		}
	]
}
