{
	"asset":{
		"generator":"Khronos glTF Blender I/O v4.1.62",
		"version":"2.0"
	},
	"scene":0,
	"scenes":[
		{
			"name":"Scene",
			"nodes":[
				1
			]
		}
	],
	"nodes":[
		{
			"mesh":0,
			"name":"road_sideEntry",
			"translation":[
				0,
				0,
				0.75
			]
		},
		{
			"children":[
				0
			],
			"name":"tmpParent"
		}
	],
	"materials":[
		{
			"name":"pavement.027",
			"pbrMetallicRoughness":{
				"baseColorFactor":[
					0.7568627595901489,
					0.7568627595901489,
					0.800000011920929,
					1
				]
			}
		},
		{
			"name":"asphalt.012",
			"pbrMetallicRoughness":{
				"baseColorFactor":[
					0.4313725531101227,
					0.45490196347236633,
					0.529411792755127,
					1
				]
			}
		},
		{
			"name":"asphaltEdge.012",
			"pbrMetallicRoughness":{
				"baseColorFactor":[
					0.32156863808631897,
					0.33725491166114807,
					0.3960784375667572,
					1
				]
			}
		},
		{
			"name":"line.010",
			"pbrMetallicRoughness":{
				"baseColorFactor":[
					0.5490196347236633,
					0.5764706134796143,
					0.6784313917160034,
					1
				]
			}
		}
	],
	"meshes":[
		{
			"name":"Mesh road_sideEntry",
			"primitives":[
				{
					"attributes":{
						"POSITION":0,
						"NORMAL":1,
						"TEXCOORD_0":2
					},
					"indices":3,
					"material":0
				},
				{
					"attributes":{
						"POSITION":4,
						"NORMAL":5,
						"TEXCOORD_0":6
					},
					"indices":7,
					"material":1
				},
				{
					"attributes":{
						"POSITION":8,
						"NORMAL":9,
						"TEXCOORD_0":10
					},
					"indices":11,
					"material":2
				},
				{
					"attributes":{
						"POSITION":12,
						"NORMAL":13,
						"TEXCOORD_0":14
					},
					"indices":15,
					"material":3
				}
			]
		}
	],
	"accessors":[
		{
			"bufferView":0,
			"componentType":5126,
			"count":308,
			"max":[
				0.5,
				0.019999999552965164,
				0.809999942779541
			],
			"min":[
				-0.5,
				-9.327885279507633e-14,
				-0.5
			],
			"type":"VEC3"
		},
		{
			"bufferView":1,
			"componentType":5126,
			"count":308,
			"type":"VEC3"
		},
		{
			"bufferView":2,
			"componentType":5126,
			"count":308,
			"type":"VEC2"
		},
		{
			"bufferView":3,
			"componentType":5123,
			"count":588,
			"type":"SCALAR"
		},
		{
			"bufferView":4,
			"componentType":5126,
			"count":59,
			"max":[
				0.5,
				0.019999999552965164,
				0.809999942779541
			],
			"min":[
				-0.5,
				-1.6637802314795232e-16,
				-0.5
			],
			"type":"VEC3"
		},
		{
			"bufferView":5,
			"componentType":5126,
			"count":59,
			"type":"VEC3"
		},
		{
			"bufferView":6,
			"componentType":5126,
			"count":59,
			"type":"VEC2"
		},
		{
			"bufferView":7,
			"componentType":5123,
			"count":153,
			"type":"SCALAR"
		},
		{
			"bufferView":8,
			"componentType":5126,
			"count":61,
			"max":[
				0.5,
				0.009999999776482582,
				0.7099999785423279
			],
			"min":[
				-0.5,
				0.009999999776482582,
				-0.4000000059604645
			],
			"type":"VEC3"
		},
		{
			"bufferView":9,
			"componentType":5126,
			"count":61,
			"type":"VEC3"
		},
		{
			"bufferView":10,
			"componentType":5126,
			"count":61,
			"type":"VEC2"
		},
		{
			"bufferView":11,
			"componentType":5123,
			"count":171,
			"type":"SCALAR"
		},
		{
			"bufferView":12,
			"componentType":5126,
			"count":4,
			"max":[
				0.5,
				0.009999999776482582,
				0.009999999776482582
			],
			"min":[
				-0.5,
				0.009999999776482582,
				-0.009999999776482582
			],
			"type":"VEC3"
		},
		{
			"bufferView":13,
			"componentType":5126,
			"count":4,
			"type":"VEC3"
		},
		{
			"bufferView":14,
			"componentType":5126,
			"count":4,
			"type":"VEC2"
		},
		{
			"bufferView":15,
			"componentType":5123,
			"count":6,
			"type":"SCALAR"
		}
	],
	"bufferViews":[
		{
			"buffer":0,
			"byteLength":3696,
			"byteOffset":0,
			"target":34962
		},
		{
			"buffer":0,
			"byteLength":3696,
			"byteOffset":3696,
			"target":34962
		},
		{
			"buffer":0,
			"byteLength":2464,
			"byteOffset":7392,
			"target":34962
		},
		{
			"buffer":0,
			"byteLength":1176,
			"byteOffset":9856,
			"target":34963
		},
		{
			"buffer":0,
			"byteLength":708,
			"byteOffset":11032,
			"target":34962
		},
		{
			"buffer":0,
			"byteLength":708,
			"byteOffset":11740,
			"target":34962
		},
		{
			"buffer":0,
			"byteLength":472,
			"byteOffset":12448,
			"target":34962
		},
		{
			"buffer":0,
			"byteLength":306,
			"byteOffset":12920,
			"target":34963
		},
		{
			"buffer":0,
			"byteLength":732,
			"byteOffset":13228,
			"target":34962
		},
		{
			"buffer":0,
			"byteLength":732,
			"byteOffset":13960,
			"target":34962
		},
		{
			"buffer":0,
			"byteLength":488,
			"byteOffset":14692,
			"target":34962
		},
		{
			"buffer":0,
			"byteLength":342,
			"byteOffset":15180,
			"target":34963
		},
		{
			"buffer":0,
			"byteLength":48,
			"byteOffset":15524,
			"target":34962
		},
		{
			"buffer":0,
			"byteLength":48,
			"byteOffset":15572,
			"target":34962
		},
		{
			"buffer":0,
			"byteLength":32,
			"byteOffset":15620,
			"target":34962
		},
		{
			"buffer":0,
			"byteLength":12,
			"byteOffset":15652,
			"target":34963
		}
	],
	"buffers":[
		{
			"byteLength":15664,
			"uri":"road_sideEntry.bin"
		}
	]
}
