{
	"asset":{
		"generator":"Khronos glTF Blender I/O v4.1.62",
		"version":"2.0"
	},
	"scene":0,
	"scenes":[
		{
			"name":"Scene",
			"nodes":[
				0,
				2
			]
		}
	],
	"nodes":[
		{
			"mesh":0,
			"name":"COL01",
			"scale":[
				0.8400002717971802,
				5.25,
				0.4400005340576172
			],
			"translation":[
				0,
				-4.800000190734863,
				0
			]
		},
		{
			"mesh":1,
			"name":"small_buildingE"
		},
		{
			"children":[
				1
			],
			"name":"tmpParent"
		}
	],
	"materials":[
		{
			"name":"border.004",
			"pbrMetallicRoughness":{
				"baseColorFactor":[
					0.5607843399047852,
					0.5686274766921997,
					0.6000000238418579,
					1
				]
			}
		},
		{
			"name":"door.004",
			"pbrMetallicRoughness":{
				"baseColorFactor":[
					0.38823530077934265,
					0.4000000059604645,
					0.4470588266849518,
					1
				]
			}
		},
		{
			"name":"_defaultMat.004",
			"pbrMetallicRoughness":{
				"baseColorFactor":[
					0.7641509771347046,
					0.7641509771347046,
					0.7641509771347046,
					1
				]
			}
		},
		{
			"name":"window.004",
			"pbrMetallicRoughness":{
				"baseColorFactor":[
					0.7372549176216125,
					0.886274516582489,
					1,
					1
				]
			}
		},
		{
			"name":"roof.001",
			"pbrMetallicRoughness":{
				"baseColorFactor":[
					0.33725491166114807,
					0.7372549176216125,
					0.6000000238418579,
					1
				]
			}
		}
	],
	"meshes":[
		{
			"name":"\u7acb\u65b9\u4f53.002",
			"primitives":[
				{
					"attributes":{
						"POSITION":0,
						"NORMAL":1,
						"TEXCOORD_0":2
					},
					"indices":3
				}
			]
		},
		{
			"name":"Mesh small_buildingE",
			"primitives":[
				{
					"attributes":{
						"POSITION":4,
						"NORMAL":5,
						"TEXCOORD_0":6
					},
					"indices":7,
					"material":0
				},
				{
					"attributes":{
						"POSITION":8,
						"NORMAL":9,
						"TEXCOORD_0":10
					},
					"indices":11,
					"material":1
				},
				{
					"attributes":{
						"POSITION":12,
						"NORMAL":13,
						"TEXCOORD_0":14
					},
					"indices":15,
					"material":2
				},
				{
					"attributes":{
						"POSITION":16,
						"NORMAL":17,
						"TEXCOORD_0":18
					},
					"indices":19,
					"material":3
				},
				{
					"attributes":{
						"POSITION":20,
						"NORMAL":21,
						"TEXCOORD_0":22
					},
					"indices":23,
					"material":4
				}
			]
		}
	],
	"accessors":[
		{
			"bufferView":0,
			"componentType":5126,
			"count":44,
			"max":[
				1,
				1.0809077024459839,
				1.2095965147018433
			],
			"min":[
				-1,
				0.9164919853210449,
				-1
			],
			"type":"VEC3"
		},
		{
			"bufferView":1,
			"componentType":5126,
			"count":44,
			"type":"VEC3"
		},
		{
			"bufferView":2,
			"componentType":5126,
			"count":44,
			"type":"VEC2"
		},
		{
			"bufferView":3,
			"componentType":5123,
			"count":84,
			"type":"SCALAR"
		},
		{
			"bufferView":4,
			"componentType":5126,
			"count":739,
			"max":[
				0.8200000524520874,
				0.8799999356269836,
				0.5199999809265137
			],
			"min":[
				-0.8200000524520874,
				0,
				-0.41999998688697815
			],
			"type":"VEC3"
		},
		{
			"bufferView":5,
			"componentType":5126,
			"count":739,
			"type":"VEC3"
		},
		{
			"bufferView":6,
			"componentType":5126,
			"count":739,
			"type":"VEC2"
		},
		{
			"bufferView":7,
			"componentType":5123,
			"count":1530,
			"type":"SCALAR"
		},
		{
			"bufferView":8,
			"componentType":5126,
			"count":31,
			"max":[
				0.75,
				0.800000011920929,
				0.44999998807907104
			],
			"min":[
				-0.75,
				1.804778527019556e-16,
				-0.3799999952316284
			],
			"type":"VEC3"
		},
		{
			"bufferView":9,
			"componentType":5126,
			"count":31,
			"type":"VEC3"
		},
		{
			"bufferView":10,
			"componentType":5126,
			"count":31,
			"type":"VEC2"
		},
		{
			"bufferView":11,
			"componentType":5123,
			"count":87,
			"type":"SCALAR"
		},
		{
			"bufferView":12,
			"componentType":5126,
			"count":286,
			"max":[
				0.800000011920929,
				0.800000011920929,
				0.5
			],
			"min":[
				-0.800000011920929,
				0.05000000074505806,
				-0.4000000059604645
			],
			"type":"VEC3"
		},
		{
			"bufferView":13,
			"componentType":5126,
			"count":286,
			"type":"VEC3"
		},
		{
			"bufferView":14,
			"componentType":5126,
			"count":286,
			"type":"VEC2"
		},
		{
			"bufferView":15,
			"componentType":5123,
			"count":297,
			"type":"SCALAR"
		},
		{
			"bufferView":16,
			"componentType":5126,
			"count":68,
			"max":[
				0.699999988079071,
				0.6499999761581421,
				0.48000001907348633
			],
			"min":[
				-0.699999988079071,
				0.15000000596046448,
				-0.3799999952316284
			],
			"type":"VEC3"
		},
		{
			"bufferView":17,
			"componentType":5126,
			"count":68,
			"type":"VEC3"
		},
		{
			"bufferView":18,
			"componentType":5126,
			"count":68,
			"type":"VEC2"
		},
		{
			"bufferView":19,
			"componentType":5123,
			"count":102,
			"type":"SCALAR"
		},
		{
			"bufferView":20,
			"componentType":5126,
			"count":32,
			"max":[
				5.960172799746033e-09,
				0.4000000059604645,
				0.5478913187980652
			],
			"min":[
				-0.4000000059604645,
				0.32563260197639465,
				0.4000000059604645
			],
			"type":"VEC3"
		},
		{
			"bufferView":21,
			"componentType":5126,
			"count":32,
			"type":"VEC3"
		},
		{
			"bufferView":22,
			"componentType":5126,
			"count":32,
			"type":"VEC2"
		},
		{
			"bufferView":23,
			"componentType":5123,
			"count":66,
			"type":"SCALAR"
		}
	],
	"bufferViews":[
		{
			"buffer":0,
			"byteLength":528,
			"byteOffset":0,
			"target":34962
		},
		{
			"buffer":0,
			"byteLength":528,
			"byteOffset":528,
			"target":34962
		},
		{
			"buffer":0,
			"byteLength":352,
			"byteOffset":1056,
			"target":34962
		},
		{
			"buffer":0,
			"byteLength":168,
			"byteOffset":1408,
			"target":34963
		},
		{
			"buffer":0,
			"byteLength":8868,
			"byteOffset":1576,
			"target":34962
		},
		{
			"buffer":0,
			"byteLength":8868,
			"byteOffset":10444,
			"target":34962
		},
		{
			"buffer":0,
			"byteLength":5912,
			"byteOffset":19312,
			"target":34962
		},
		{
			"buffer":0,
			"byteLength":3060,
			"byteOffset":25224,
			"target":34963
		},
		{
			"buffer":0,
			"byteLength":372,
			"byteOffset":28284,
			"target":34962
		},
		{
			"buffer":0,
			"byteLength":372,
			"byteOffset":28656,
			"target":34962
		},
		{
			"buffer":0,
			"byteLength":248,
			"byteOffset":29028,
			"target":34962
		},
		{
			"buffer":0,
			"byteLength":174,
			"byteOffset":29276,
			"target":34963
		},
		{
			"buffer":0,
			"byteLength":3432,
			"byteOffset":29452,
			"target":34962
		},
		{
			"buffer":0,
			"byteLength":3432,
			"byteOffset":32884,
			"target":34962
		},
		{
			"buffer":0,
			"byteLength":2288,
			"byteOffset":36316,
			"target":34962
		},
		{
			"buffer":0,
			"byteLength":594,
			"byteOffset":38604,
			"target":34963
		},
		{
			"buffer":0,
			"byteLength":816,
			"byteOffset":39200,
			"target":34962
		},
		{
			"buffer":0,
			"byteLength":816,
			"byteOffset":40016,
			"target":34962
		},
		{
			"buffer":0,
			"byteLength":544,
			"byteOffset":40832,
			"target":34962
		},
		{
			"buffer":0,
			"byteLength":204,
			"byteOffset":41376,
			"target":34963
		},
		{
			"buffer":0,
			"byteLength":384,
			"byteOffset":41580,
			"target":34962
		},
		{
			"buffer":0,
			"byteLength":384,
			"byteOffset":41964,
			"target":34962
		},
		{
			"buffer":0,
			"byteLength":256,
			"byteOffset":42348,
			"target":34962
		},
		{
			"buffer":0,
			"byteLength":132,
			"byteOffset":42604,
			"target":34963
		}
	],
	"buffers":[
		{
			"byteLength":42736,
			"uri":"skyscraperE.bin"
		}
	]
}
