{
	"asset":{
		"generator":"Khronos glTF Blender I/O v4.1.62",
		"version":"2.0"
	},
	"scene":0,
	"scenes":[
		{
			"name":"Scene",
			"nodes":[
				0,
				2,
				3,
				4
			]
		}
	],
	"nodes":[
		{
			"mesh":0,
			"name":"COL01",
			"scale":[
				0.26499998569488525,
				0.5000000596046448,
				0.27000001072883606
			],
			"translation":[
				0,
				0.49999991059303284,
				0
			]
		},
		{
			"mesh":1,
			"name":"low_buildingF"
		},
		{
			"children":[
				1
			],
			"name":"tmpParent"
		},
		{
			"mesh":2,
			"name":"COL02",
			"scale":[
				0.2149999737739563,
				0.5000000596046448,
				0.21000000834465027
			],
			"translation":[
				0,
				1.0099995136260986,
				0
			]
		},
		{
			"mesh":3,
			"name":"COL03",
			"scale":[
				0.15499994158744812,
				0.5000000596046448,
				0.15999998152256012
			],
			"translation":[
				0,
				1.1999993324279785,
				0
			]
		}
	],
	"materials":[
		{
			"name":"_defaultMat.015",
			"pbrMetallicRoughness":{
				"baseColorFactor":[
					0.7641509771347046,
					0.7641509771347046,
					0.7641509771347046,
					1
				]
			}
		},
		{
			"name":"border.015",
			"pbrMetallicRoughness":{
				"baseColorFactor":[
					0.5607843399047852,
					0.5686274766921997,
					0.6000000238418579,
					1
				]
			}
		}
	],
	"meshes":[
		{
			"name":"\u7acb\u65b9\u4f53",
			"primitives":[
				{
					"attributes":{
						"POSITION":0,
						"NORMAL":1,
						"TEXCOORD_0":2
					},
					"indices":3
				}
			]
		},
		{
			"name":"Mesh low_buildingF",
			"primitives":[
				{
					"attributes":{
						"POSITION":4,
						"NORMAL":5,
						"TEXCOORD_0":6
					},
					"indices":7,
					"material":0
				},
				{
					"attributes":{
						"POSITION":8,
						"NORMAL":9,
						"TEXCOORD_0":10
					},
					"indices":11,
					"material":1
				}
			]
		},
		{
			"name":"\u7acb\u65b9\u4f53.011",
			"primitives":[
				{
					"attributes":{
						"POSITION":12,
						"NORMAL":13,
						"TEXCOORD_0":14
					},
					"indices":3
				}
			]
		},
		{
			"name":"\u7acb\u65b9\u4f53.012",
			"primitives":[
				{
					"attributes":{
						"POSITION":15,
						"NORMAL":16,
						"TEXCOORD_0":17
					},
					"indices":3
				}
			]
		}
	],
	"accessors":[
		{
			"bufferView":0,
			"componentType":5126,
			"count":24,
			"max":[
				1,
				1,
				1
			],
			"min":[
				-1,
				-1,
				-1
			],
			"type":"VEC3"
		},
		{
			"bufferView":1,
			"componentType":5126,
			"count":24,
			"type":"VEC3"
		},
		{
			"bufferView":2,
			"componentType":5126,
			"count":24,
			"type":"VEC2"
		},
		{
			"bufferView":3,
			"componentType":5123,
			"count":36,
			"type":"SCALAR"
		},
		{
			"bufferView":4,
			"componentType":5126,
			"count":416,
			"max":[
				0.25,
				1.975000023841858,
				0.25
			],
			"min":[
				-0.25,
				0,
				-0.25
			],
			"type":"VEC3"
		},
		{
			"bufferView":5,
			"componentType":5126,
			"count":416,
			"type":"VEC3"
		},
		{
			"bufferView":6,
			"componentType":5126,
			"count":416,
			"type":"VEC2"
		},
		{
			"bufferView":7,
			"componentType":5123,
			"count":450,
			"type":"SCALAR"
		},
		{
			"bufferView":8,
			"componentType":5126,
			"count":32,
			"max":[
				0.20000000298023224,
				1.6750000715255737,
				0.20000000298023224
			],
			"min":[
				-0.20000000298023224,
				0.20000000298023224,
				-0.20000000298023224
			],
			"type":"VEC3"
		},
		{
			"bufferView":9,
			"componentType":5126,
			"count":32,
			"type":"VEC3"
		},
		{
			"bufferView":10,
			"componentType":5126,
			"count":32,
			"type":"VEC2"
		},
		{
			"bufferView":11,
			"componentType":5123,
			"count":84,
			"type":"SCALAR"
		},
		{
			"bufferView":12,
			"componentType":5126,
			"count":24,
			"max":[
				1,
				1,
				1
			],
			"min":[
				-1,
				-1,
				-1
			],
			"type":"VEC3"
		},
		{
			"bufferView":13,
			"componentType":5126,
			"count":24,
			"type":"VEC3"
		},
		{
			"bufferView":14,
			"componentType":5126,
			"count":24,
			"type":"VEC2"
		},
		{
			"bufferView":15,
			"componentType":5126,
			"count":24,
			"max":[
				1,
				1,
				1
			],
			"min":[
				-1,
				-1,
				-1
			],
			"type":"VEC3"
		},
		{
			"bufferView":16,
			"componentType":5126,
			"count":24,
			"type":"VEC3"
		},
		{
			"bufferView":17,
			"componentType":5126,
			"count":24,
			"type":"VEC2"
		}
	],
	"bufferViews":[
		{
			"buffer":0,
			"byteLength":288,
			"byteOffset":0,
			"target":34962
		},
		{
			"buffer":0,
			"byteLength":288,
			"byteOffset":288,
			"target":34962
		},
		{
			"buffer":0,
			"byteLength":192,
			"byteOffset":576,
			"target":34962
		},
		{
			"buffer":0,
			"byteLength":72,
			"byteOffset":768,
			"target":34963
		},
		{
			"buffer":0,
			"byteLength":4992,
			"byteOffset":840,
			"target":34962
		},
		{
			"buffer":0,
			"byteLength":4992,
			"byteOffset":5832,
			"target":34962
		},
		{
			"buffer":0,
			"byteLength":3328,
			"byteOffset":10824,
			"target":34962
		},
		{
			"buffer":0,
			"byteLength":900,
			"byteOffset":14152,
			"target":34963
		},
		{
			"buffer":0,
			"byteLength":384,
			"byteOffset":15052,
			"target":34962
		},
		{
			"buffer":0,
			"byteLength":384,
			"byteOffset":15436,
			"target":34962
		},
		{
			"buffer":0,
			"byteLength":256,
			"byteOffset":15820,
			"target":34962
		},
		{
			"buffer":0,
			"byteLength":168,
			"byteOffset":16076,
			"target":34963
		},
		{
			"buffer":0,
			"byteLength":288,
			"byteOffset":16244,
			"target":34962
		},
		{
			"buffer":0,
			"byteLength":288,
			"byteOffset":16532,
			"target":34962
		},
		{
			"buffer":0,
			"byteLength":192,
			"byteOffset":16820,
			"target":34962
		},
		{
			"buffer":0,
			"byteLength":288,
			"byteOffset":17012,
			"target":34962
		},
		{
			"buffer":0,
			"byteLength":288,
			"byteOffset":17300,
			"target":34962
		},
		{
			"buffer":0,
			"byteLength":192,
			"byteOffset":17588,
			"target":34962
		}
	],
	"buffers":[
		{
			"byteLength":17780,
			"uri":"low_buildingF.bin"
		}
	]
}
