{
	"asset":{
		"generator":"Khronos glTF Blender I/O v4.1.62",
		"version":"2.0"
	},
	"scene":0,
	"scenes":[
		{
			"name":"Scene",
			"nodes":[
				1
			]
		}
	],
	"nodes":[
		{
			"mesh":0,
			"name":"light_curved",
			"translation":[
				0,
				0,
				0.75
			]
		},
		{
			"children":[
				0
			],
			"name":"tmpParent"
		}
	],
	"materials":[
		{
			"name":"pavement.066",
			"pbrMetallicRoughness":{
				"baseColorFactor":[
					0.7568627595901489,
					0.7568627595901489,
					0.800000011920929,
					1
				]
			}
		},
		{
			"name":"light.006",
			"pbrMetallicRoughness":{
				"baseColorFactor":[
					0.9450980424880981,
					0.9490196108818054,
					0.9647058844566345,
					1
				]
			}
		},
		{
			"name":"_defaultMat.004",
			"pbrMetallicRoughness":{
				"metallicFactor":0
			}
		}
	],
	"meshes":[
		{
			"name":"Mesh light_curved",
			"primitives":[
				{
					"attributes":{
						"POSITION":0,
						"NORMAL":1,
						"TEXCOORD_0":2
					},
					"indices":3,
					"material":0
				},
				{
					"attributes":{
						"POSITION":4,
						"NORMAL":5,
						"TEXCOORD_0":6
					},
					"indices":7,
					"material":1
				},
				{
					"attributes":{
						"POSITION":8,
						"NORMAL":9,
						"TEXCOORD_0":10
					},
					"indices":11,
					"material":2
				}
			]
		}
	],
	"accessors":[
		{
			"bufferView":0,
			"componentType":5126,
			"count":146,
			"max":[
				0.02500000037252903,
				0.6749999523162842,
				0.20000000298023224
			],
			"min":[
				-0.02500000037252903,
				0,
				-0.02500000037252903
			],
			"type":"VEC3"
		},
		{
			"bufferView":1,
			"componentType":5126,
			"count":146,
			"type":"VEC3"
		},
		{
			"bufferView":2,
			"componentType":5126,
			"count":146,
			"type":"VEC2"
		},
		{
			"bufferView":3,
			"componentType":5123,
			"count":258,
			"type":"SCALAR"
		},
		{
			"bufferView":4,
			"componentType":5126,
			"count":6,
			"max":[
				0.02500000037252903,
				0.6527777910232544,
				0.20000000298023224
			],
			"min":[
				-0.02500000037252903,
				0.6527777910232544,
				0.10000000149011612
			],
			"type":"VEC3"
		},
		{
			"bufferView":5,
			"componentType":5126,
			"count":6,
			"type":"VEC3"
		},
		{
			"bufferView":6,
			"componentType":5126,
			"count":6,
			"type":"VEC2"
		},
		{
			"bufferView":7,
			"componentType":5123,
			"count":12,
			"type":"SCALAR"
		},
		{
			"bufferView":8,
			"componentType":5126,
			"count":6,
			"max":[
				0.02500000037252903,
				0,
				0.02500000037252903
			],
			"min":[
				-0.02500000037252903,
				0,
				-0.02500000037252903
			],
			"type":"VEC3"
		},
		{
			"bufferView":9,
			"componentType":5126,
			"count":6,
			"type":"VEC3"
		},
		{
			"bufferView":10,
			"componentType":5126,
			"count":6,
			"type":"VEC2"
		},
		{
			"bufferView":11,
			"componentType":5123,
			"count":6,
			"type":"SCALAR"
		}
	],
	"bufferViews":[
		{
			"buffer":0,
			"byteLength":1752,
			"byteOffset":0,
			"target":34962
		},
		{
			"buffer":0,
			"byteLength":1752,
			"byteOffset":1752,
			"target":34962
		},
		{
			"buffer":0,
			"byteLength":1168,
			"byteOffset":3504,
			"target":34962
		},
		{
			"buffer":0,
			"byteLength":516,
			"byteOffset":4672,
			"target":34963
		},
		{
			"buffer":0,
			"byteLength":72,
			"byteOffset":5188,
			"target":34962
		},
		{
			"buffer":0,
			"byteLength":72,
			"byteOffset":5260,
			"target":34962
		},
		{
			"buffer":0,
			"byteLength":48,
			"byteOffset":5332,
			"target":34962
		},
		{
			"buffer":0,
			"byteLength":24,
			"byteOffset":5380,
			"target":34963
		},
		{
			"buffer":0,
			"byteLength":72,
			"byteOffset":5404,
			"target":34962
		},
		{
			"buffer":0,
			"byteLength":72,
			"byteOffset":5476,
			"target":34962
		},
		{
			"buffer":0,
			"byteLength":48,
			"byteOffset":5548,
			"target":34962
		},
		{
			"buffer":0,
			"byteLength":12,
			"byteOffset":5596,
			"target":34963
		}
	],
	"buffers":[
		{
			"byteLength":5608,
			"uri":"light_curved.bin"
		}
	]
}
