{
	"asset":{
		"generator":"Khronos glTF Blender I/O v4.1.62",
		"version":"2.0"
	},
	"scene":0,
	"scenes":[
		{
			"name":"Scene",
			"nodes":[
				1
			]
		}
	],
	"nodes":[
		{
			"mesh":0,
			"name":"light_curvedDouble",
			"translation":[
				0,
				0,
				0.75
			]
		},
		{
			"children":[
				0
			],
			"name":"tmpParent"
		}
	],
	"materials":[
		{
			"name":"pavement.063",
			"pbrMetallicRoughness":{
				"baseColorFactor":[
					0.7568627595901489,
					0.7568627595901489,
					0.800000011920929,
					1
				]
			}
		},
		{
			"name":"light.003",
			"pbrMetallicRoughness":{
				"baseColorFactor":[
					0.9450980424880981,
					0.9490196108818054,
					0.9647058844566345,
					1
				]
			}
		},
		{
			"name":"_defaultMat.002",
			"pbrMetallicRoughness":{
				"metallicFactor":0
			}
		}
	],
	"meshes":[
		{
			"name":"Mesh light_curvedDouble",
			"primitives":[
				{
					"attributes":{
						"POSITION":0,
						"NORMAL":1,
						"TEXCOORD_0":2
					},
					"indices":3,
					"material":0
				},
				{
					"attributes":{
						"POSITION":4,
						"NORMAL":5,
						"TEXCOORD_0":6
					},
					"indices":7,
					"material":1
				},
				{
					"attributes":{
						"POSITION":8,
						"NORMAL":9,
						"TEXCOORD_0":10
					},
					"indices":11,
					"material":2
				}
			]
		}
	],
	"accessors":[
		{
			"bufferView":0,
			"componentType":5126,
			"count":234,
			"max":[
				0.02500000037252903,
				0.6749999523162842,
				0.20000000298023224
			],
			"min":[
				-0.02500000037252903,
				0,
				-0.20000000298023224
			],
			"type":"VEC3"
		},
		{
			"bufferView":1,
			"componentType":5126,
			"count":234,
			"type":"VEC3"
		},
		{
			"bufferView":2,
			"componentType":5126,
			"count":234,
			"type":"VEC2"
		},
		{
			"bufferView":3,
			"componentType":5123,
			"count":426,
			"type":"SCALAR"
		},
		{
			"bufferView":4,
			"componentType":5126,
			"count":12,
			"max":[
				0.02500000037252903,
				0.6527777910232544,
				0.20000000298023224
			],
			"min":[
				-0.02500000037252903,
				0.6527777910232544,
				-0.20000000298023224
			],
			"type":"VEC3"
		},
		{
			"bufferView":5,
			"componentType":5126,
			"count":12,
			"type":"VEC3"
		},
		{
			"bufferView":6,
			"componentType":5126,
			"count":12,
			"type":"VEC2"
		},
		{
			"bufferView":7,
			"componentType":5123,
			"count":24,
			"type":"SCALAR"
		},
		{
			"bufferView":8,
			"componentType":5126,
			"count":6,
			"max":[
				0.02500000037252903,
				0,
				0.02500000037252903
			],
			"min":[
				-0.02500000037252903,
				0,
				-0.02500000037252903
			],
			"type":"VEC3"
		},
		{
			"bufferView":9,
			"componentType":5126,
			"count":6,
			"type":"VEC3"
		},
		{
			"bufferView":10,
			"componentType":5126,
			"count":6,
			"type":"VEC2"
		},
		{
			"bufferView":11,
			"componentType":5123,
			"count":6,
			"type":"SCALAR"
		}
	],
	"bufferViews":[
		{
			"buffer":0,
			"byteLength":2808,
			"byteOffset":0,
			"target":34962
		},
		{
			"buffer":0,
			"byteLength":2808,
			"byteOffset":2808,
			"target":34962
		},
		{
			"buffer":0,
			"byteLength":1872,
			"byteOffset":5616,
			"target":34962
		},
		{
			"buffer":0,
			"byteLength":852,
			"byteOffset":7488,
			"target":34963
		},
		{
			"buffer":0,
			"byteLength":144,
			"byteOffset":8340,
			"target":34962
		},
		{
			"buffer":0,
			"byteLength":144,
			"byteOffset":8484,
			"target":34962
		},
		{
			"buffer":0,
			"byteLength":96,
			"byteOffset":8628,
			"target":34962
		},
		{
			"buffer":0,
			"byteLength":48,
			"byteOffset":8724,
			"target":34963
		},
		{
			"buffer":0,
			"byteLength":72,
			"byteOffset":8772,
			"target":34962
		},
		{
			"buffer":0,
			"byteLength":72,
			"byteOffset":8844,
			"target":34962
		},
		{
			"buffer":0,
			"byteLength":48,
			"byteOffset":8916,
			"target":34962
		},
		{
			"buffer":0,
			"byteLength":12,
			"byteOffset":8964,
			"target":34963
		}
	],
	"buffers":[
		{
			"byteLength":8976,
			"uri":"light_curvedDouble.bin"
		}
	]
}
