{
	"asset":{
		"generator":"Khronos glTF Blender I/O v4.1.62",
		"version":"2.0"
	},
	"scene":0,
	"scenes":[
		{
			"name":"Scene",
			"nodes":[
				0,
				2,
				3
			]
		}
	],
	"nodes":[
		{
			"mesh":0,
			"name":"COL01",
			"scale":[
				1.034999966621399,
				0.6200000047683716,
				0.6399999856948853
			],
			"translation":[
				0,
				0.6300000548362732,
				0
			]
		},
		{
			"mesh":1,
			"name":"large_buildingF"
		},
		{
			"children":[
				1
			],
			"name":"tmpParent"
		},
		{
			"mesh":2,
			"name":"COL02",
			"scale":[
				0.14000003039836884,
				0.2800000309944153,
				0.12000003457069397
			],
			"translation":[
				0.6000000238418579,
				1.2300000190734863,
				0
			]
		}
	],
	"materials":[
		{
			"name":"border.008",
			"pbrMetallicRoughness":{
				"baseColorFactor":[
					0.5607843399047852,
					0.5686274766921997,
					0.6000000238418579,
					1
				]
			}
		},
		{
			"name":"_defaultMat.008",
			"pbrMetallicRoughness":{
				"baseColorFactor":[
					0.7641509771347046,
					0.7641509771347046,
					0.7641509771347046,
					1
				]
			}
		},
		{
			"name":"door.007",
			"pbrMetallicRoughness":{
				"baseColorFactor":[
					0.38823530077934265,
					0.4000000059604645,
					0.4470588266849518,
					1
				]
			}
		},
		{
			"name":"window.007",
			"pbrMetallicRoughness":{
				"baseColorFactor":[
					0.7372549176216125,
					0.886274516582489,
					1,
					1
				]
			}
		},
		{
			"name":"roof.006",
			"pbrMetallicRoughness":{
				"baseColorFactor":[
					0.33725491166114807,
					0.7372549176216125,
					0.6000000238418579,
					1
				]
			}
		}
	],
	"meshes":[
		{
			"name":"\u7acb\u65b9\u4f53",
			"primitives":[
				{
					"attributes":{
						"POSITION":0,
						"NORMAL":1,
						"TEXCOORD_0":2
					},
					"indices":3
				}
			]
		},
		{
			"name":"Mesh large_buildingF",
			"primitives":[
				{
					"attributes":{
						"POSITION":4,
						"NORMAL":5,
						"TEXCOORD_0":6
					},
					"indices":7,
					"material":0
				},
				{
					"attributes":{
						"POSITION":8,
						"NORMAL":9,
						"TEXCOORD_0":10
					},
					"indices":11,
					"material":1
				},
				{
					"attributes":{
						"POSITION":12,
						"NORMAL":13,
						"TEXCOORD_0":14
					},
					"indices":15,
					"material":2
				},
				{
					"attributes":{
						"POSITION":16,
						"NORMAL":17,
						"TEXCOORD_0":18
					},
					"indices":19,
					"material":3
				},
				{
					"attributes":{
						"POSITION":20,
						"NORMAL":21,
						"TEXCOORD_0":22
					},
					"indices":23,
					"material":4
				}
			]
		},
		{
			"name":"\u7acb\u65b9\u4f53.003",
			"primitives":[
				{
					"attributes":{
						"POSITION":24,
						"NORMAL":25,
						"TEXCOORD_0":26
					},
					"indices":3
				}
			]
		}
	],
	"accessors":[
		{
			"bufferView":0,
			"componentType":5126,
			"count":24,
			"max":[
				1,
				1,
				1
			],
			"min":[
				-1,
				-1,
				-1
			],
			"type":"VEC3"
		},
		{
			"bufferView":1,
			"componentType":5126,
			"count":24,
			"type":"VEC3"
		},
		{
			"bufferView":2,
			"componentType":5126,
			"count":24,
			"type":"VEC2"
		},
		{
			"bufferView":3,
			"componentType":5123,
			"count":36,
			"type":"SCALAR"
		},
		{
			"bufferView":4,
			"componentType":5126,
			"count":1270,
			"max":[
				1.0199999809265137,
				1.3899999856948853,
				0.41999998688697815
			],
			"min":[
				-1.0199999809265137,
				-5.639932896936113e-18,
				-0.41999998688697815
			],
			"type":"VEC3"
		},
		{
			"bufferView":5,
			"componentType":5126,
			"count":1270,
			"type":"VEC3"
		},
		{
			"bufferView":6,
			"componentType":5126,
			"count":1270,
			"type":"VEC2"
		},
		{
			"bufferView":7,
			"componentType":5123,
			"count":2718,
			"type":"SCALAR"
		},
		{
			"bufferView":8,
			"componentType":5126,
			"count":413,
			"max":[
				1,
				1.2000000476837158,
				0.4000000059604645
			],
			"min":[
				-1,
				0.44999998807907104,
				-0.4000000059604645
			],
			"type":"VEC3"
		},
		{
			"bufferView":9,
			"componentType":5126,
			"count":413,
			"type":"VEC3"
		},
		{
			"bufferView":10,
			"componentType":5126,
			"count":413,
			"type":"VEC2"
		},
		{
			"bufferView":11,
			"componentType":5123,
			"count":468,
			"type":"SCALAR"
		},
		{
			"bufferView":12,
			"componentType":5126,
			"count":364,
			"max":[
				1,
				1.5,
				0.42499998211860657
			],
			"min":[
				-1,
				-5.639932896936113e-18,
				-0.4000000059604645
			],
			"type":"VEC3"
		},
		{
			"bufferView":13,
			"componentType":5126,
			"count":364,
			"type":"VEC3"
		},
		{
			"bufferView":14,
			"componentType":5126,
			"count":364,
			"type":"VEC2"
		},
		{
			"bufferView":15,
			"componentType":5123,
			"count":702,
			"type":"SCALAR"
		},
		{
			"bufferView":16,
			"componentType":5126,
			"count":180,
			"max":[
				0.8999999761581421,
				1.0499999523162842,
				0.3799999952316284
			],
			"min":[
				-0.8999999761581421,
				0.019999999552965164,
				-0.3799999952316284
			],
			"type":"VEC3"
		},
		{
			"bufferView":17,
			"componentType":5126,
			"count":180,
			"type":"VEC3"
		},
		{
			"bufferView":18,
			"componentType":5126,
			"count":180,
			"type":"VEC2"
		},
		{
			"bufferView":19,
			"componentType":5123,
			"count":270,
			"type":"SCALAR"
		},
		{
			"bufferView":20,
			"componentType":5126,
			"count":4,
			"max":[
				1,
				0.4000000059604645,
				0.42499998211860657
			],
			"min":[
				-1,
				0.30000001192092896,
				0.42499998211860657
			],
			"type":"VEC3"
		},
		{
			"bufferView":21,
			"componentType":5126,
			"count":4,
			"type":"VEC3"
		},
		{
			"bufferView":22,
			"componentType":5126,
			"count":4,
			"type":"VEC2"
		},
		{
			"bufferView":23,
			"componentType":5123,
			"count":6,
			"type":"SCALAR"
		},
		{
			"bufferView":24,
			"componentType":5126,
			"count":24,
			"max":[
				1,
				1,
				1
			],
			"min":[
				-1,
				-1,
				-1
			],
			"type":"VEC3"
		},
		{
			"bufferView":25,
			"componentType":5126,
			"count":24,
			"type":"VEC3"
		},
		{
			"bufferView":26,
			"componentType":5126,
			"count":24,
			"type":"VEC2"
		}
	],
	"bufferViews":[
		{
			"buffer":0,
			"byteLength":288,
			"byteOffset":0,
			"target":34962
		},
		{
			"buffer":0,
			"byteLength":288,
			"byteOffset":288,
			"target":34962
		},
		{
			"buffer":0,
			"byteLength":192,
			"byteOffset":576,
			"target":34962
		},
		{
			"buffer":0,
			"byteLength":72,
			"byteOffset":768,
			"target":34963
		},
		{
			"buffer":0,
			"byteLength":15240,
			"byteOffset":840,
			"target":34962
		},
		{
			"buffer":0,
			"byteLength":15240,
			"byteOffset":16080,
			"target":34962
		},
		{
			"buffer":0,
			"byteLength":10160,
			"byteOffset":31320,
			"target":34962
		},
		{
			"buffer":0,
			"byteLength":5436,
			"byteOffset":41480,
			"target":34963
		},
		{
			"buffer":0,
			"byteLength":4956,
			"byteOffset":46916,
			"target":34962
		},
		{
			"buffer":0,
			"byteLength":4956,
			"byteOffset":51872,
			"target":34962
		},
		{
			"buffer":0,
			"byteLength":3304,
			"byteOffset":56828,
			"target":34962
		},
		{
			"buffer":0,
			"byteLength":936,
			"byteOffset":60132,
			"target":34963
		},
		{
			"buffer":0,
			"byteLength":4368,
			"byteOffset":61068,
			"target":34962
		},
		{
			"buffer":0,
			"byteLength":4368,
			"byteOffset":65436,
			"target":34962
		},
		{
			"buffer":0,
			"byteLength":2912,
			"byteOffset":69804,
			"target":34962
		},
		{
			"buffer":0,
			"byteLength":1404,
			"byteOffset":72716,
			"target":34963
		},
		{
			"buffer":0,
			"byteLength":2160,
			"byteOffset":74120,
			"target":34962
		},
		{
			"buffer":0,
			"byteLength":2160,
			"byteOffset":76280,
			"target":34962
		},
		{
			"buffer":0,
			"byteLength":1440,
			"byteOffset":78440,
			"target":34962
		},
		{
			"buffer":0,
			"byteLength":540,
			"byteOffset":79880,
			"target":34963
		},
		{
			"buffer":0,
			"byteLength":48,
			"byteOffset":80420,
			"target":34962
		},
		{
			"buffer":0,
			"byteLength":48,
			"byteOffset":80468,
			"target":34962
		},
		{
			"buffer":0,
			"byteLength":32,
			"byteOffset":80516,
			"target":34962
		},
		{
			"buffer":0,
			"byteLength":12,
			"byteOffset":80548,
			"target":34963
		},
		{
			"buffer":0,
			"byteLength":288,
			"byteOffset":80560,
			"target":34962
		},
		{
			"buffer":0,
			"byteLength":288,
			"byteOffset":80848,
			"target":34962
		},
		{
			"buffer":0,
			"byteLength":192,
			"byteOffset":81136,
			"target":34962
		}
	],
	"buffers":[
		{
			"byteLength":81328,
			"uri":"large_buildingF.bin"
		}
	]
}
