{
	"asset":{
		"generator":"Khronos glTF Blender I/O v4.1.62",
		"version":"2.0"
	},
	"scene":0,
	"scenes":[
		{
			"name":"Scene",
			"nodes":[
				0,
				2
			]
		}
	],
	"nodes":[
		{
			"mesh":0,
			"name":"COL01",
			"scale":[
				0.64000004529953,
				0.8899999856948853,
				0.6399999856948853
			],
			"translation":[
				0,
				0.8199999928474426,
				0
			]
		},
		{
			"mesh":1,
			"name":"large_buildingD"
		},
		{
			"children":[
				1
			],
			"name":"tmpParent"
		}
	],
	"materials":[
		{
			"name":"border.006",
			"pbrMetallicRoughness":{
				"baseColorFactor":[
					0.5607843399047852,
					0.5686274766921997,
					0.6000000238418579,
					1
				]
			}
		},
		{
			"name":"window.005",
			"pbrMetallicRoughness":{
				"baseColorFactor":[
					0.7372549176216125,
					0.886274516582489,
					1,
					1
				]
			}
		},
		{
			"name":"_defaultMat.006",
			"pbrMetallicRoughness":{
				"baseColorFactor":[
					0.7641509771347046,
					0.7641509771347046,
					0.7641509771347046,
					1
				]
			}
		},
		{
			"name":"door.005",
			"pbrMetallicRoughness":{
				"baseColorFactor":[
					0.38823530077934265,
					0.4000000059604645,
					0.4470588266849518,
					1
				]
			}
		},
		{
			"name":"roof.004",
			"pbrMetallicRoughness":{
				"baseColorFactor":[
					0.33725491166114807,
					0.7372549176216125,
					0.6000000238418579,
					1
				]
			}
		}
	],
	"meshes":[
		{
			"name":"\u7acb\u65b9\u4f53",
			"primitives":[
				{
					"attributes":{
						"POSITION":0,
						"NORMAL":1,
						"TEXCOORD_0":2
					},
					"indices":3
				}
			]
		},
		{
			"name":"Mesh large_buildingD",
			"primitives":[
				{
					"attributes":{
						"POSITION":4,
						"NORMAL":5,
						"TEXCOORD_0":6
					},
					"indices":7,
					"material":0
				},
				{
					"attributes":{
						"POSITION":8,
						"NORMAL":9,
						"TEXCOORD_0":10
					},
					"indices":11,
					"material":1
				},
				{
					"attributes":{
						"POSITION":12,
						"NORMAL":13,
						"TEXCOORD_0":14
					},
					"indices":15,
					"material":2
				},
				{
					"attributes":{
						"POSITION":16,
						"NORMAL":17,
						"TEXCOORD_0":18
					},
					"indices":19,
					"material":3
				},
				{
					"attributes":{
						"POSITION":20,
						"NORMAL":21,
						"TEXCOORD_0":22
					},
					"indices":23,
					"material":4
				}
			]
		}
	],
	"accessors":[
		{
			"bufferView":0,
			"componentType":5126,
			"count":24,
			"max":[
				1,
				1,
				1
			],
			"min":[
				-1,
				-1,
				-1
			],
			"type":"VEC3"
		},
		{
			"bufferView":1,
			"componentType":5126,
			"count":24,
			"type":"VEC3"
		},
		{
			"bufferView":2,
			"componentType":5126,
			"count":24,
			"type":"VEC2"
		},
		{
			"bufferView":3,
			"componentType":5123,
			"count":36,
			"type":"SCALAR"
		},
		{
			"bufferView":4,
			"componentType":5126,
			"count":1471,
			"max":[
				0.6200000047683716,
				1.6799999475479126,
				0.6200000047683716
			],
			"min":[
				-0.6200000047683716,
				0,
				-0.6200000047683716
			],
			"type":"VEC3"
		},
		{
			"bufferView":5,
			"componentType":5126,
			"count":1471,
			"type":"VEC3"
		},
		{
			"bufferView":6,
			"componentType":5126,
			"count":1471,
			"type":"VEC2"
		},
		{
			"bufferView":7,
			"componentType":5123,
			"count":3054,
			"type":"SCALAR"
		},
		{
			"bufferView":8,
			"componentType":5126,
			"count":180,
			"max":[
				0.5799999833106995,
				1.4499999284744263,
				0.5799999833106995
			],
			"min":[
				-0.5799999833106995,
				0.019999999552965164,
				-0.5799999833106995
			],
			"type":"VEC3"
		},
		{
			"bufferView":9,
			"componentType":5126,
			"count":180,
			"type":"VEC3"
		},
		{
			"bufferView":10,
			"componentType":5126,
			"count":180,
			"type":"VEC2"
		},
		{
			"bufferView":11,
			"componentType":5123,
			"count":270,
			"type":"SCALAR"
		},
		{
			"bufferView":12,
			"componentType":5126,
			"count":531,
			"max":[
				0.6000000238418579,
				1.600000023841858,
				0.6000000238418579
			],
			"min":[
				-0.6000000238418579,
				0.44999998807907104,
				-0.6000000238418579
			],
			"type":"VEC3"
		},
		{
			"bufferView":13,
			"componentType":5126,
			"count":531,
			"type":"VEC3"
		},
		{
			"bufferView":14,
			"componentType":5126,
			"count":531,
			"type":"VEC2"
		},
		{
			"bufferView":15,
			"componentType":5123,
			"count":576,
			"type":"SCALAR"
		},
		{
			"bufferView":16,
			"componentType":5126,
			"count":90,
			"max":[
				0.6000000238418579,
				1.600000023841858,
				0.6000000238418579
			],
			"min":[
				-0.6000000238418579,
				0,
				-0.6000000238418579
			],
			"type":"VEC3"
		},
		{
			"bufferView":17,
			"componentType":5126,
			"count":90,
			"type":"VEC3"
		},
		{
			"bufferView":18,
			"componentType":5126,
			"count":90,
			"type":"VEC2"
		},
		{
			"bufferView":19,
			"componentType":5123,
			"count":252,
			"type":"SCALAR"
		},
		{
			"bufferView":20,
			"componentType":5126,
			"count":26,
			"max":[
				0.6000000238418579,
				0.4000000059604645,
				0.6200000047683716
			],
			"min":[
				-0.6000000238418579,
				0.30000001192092896,
				0.6000000238418579
			],
			"type":"VEC3"
		},
		{
			"bufferView":21,
			"componentType":5126,
			"count":26,
			"type":"VEC3"
		},
		{
			"bufferView":22,
			"componentType":5126,
			"count":26,
			"type":"VEC2"
		},
		{
			"bufferView":23,
			"componentType":5123,
			"count":48,
			"type":"SCALAR"
		}
	],
	"bufferViews":[
		{
			"buffer":0,
			"byteLength":288,
			"byteOffset":0,
			"target":34962
		},
		{
			"buffer":0,
			"byteLength":288,
			"byteOffset":288,
			"target":34962
		},
		{
			"buffer":0,
			"byteLength":192,
			"byteOffset":576,
			"target":34962
		},
		{
			"buffer":0,
			"byteLength":72,
			"byteOffset":768,
			"target":34963
		},
		{
			"buffer":0,
			"byteLength":17652,
			"byteOffset":840,
			"target":34962
		},
		{
			"buffer":0,
			"byteLength":17652,
			"byteOffset":18492,
			"target":34962
		},
		{
			"buffer":0,
			"byteLength":11768,
			"byteOffset":36144,
			"target":34962
		},
		{
			"buffer":0,
			"byteLength":6108,
			"byteOffset":47912,
			"target":34963
		},
		{
			"buffer":0,
			"byteLength":2160,
			"byteOffset":54020,
			"target":34962
		},
		{
			"buffer":0,
			"byteLength":2160,
			"byteOffset":56180,
			"target":34962
		},
		{
			"buffer":0,
			"byteLength":1440,
			"byteOffset":58340,
			"target":34962
		},
		{
			"buffer":0,
			"byteLength":540,
			"byteOffset":59780,
			"target":34963
		},
		{
			"buffer":0,
			"byteLength":6372,
			"byteOffset":60320,
			"target":34962
		},
		{
			"buffer":0,
			"byteLength":6372,
			"byteOffset":66692,
			"target":34962
		},
		{
			"buffer":0,
			"byteLength":4248,
			"byteOffset":73064,
			"target":34962
		},
		{
			"buffer":0,
			"byteLength":1152,
			"byteOffset":77312,
			"target":34963
		},
		{
			"buffer":0,
			"byteLength":1080,
			"byteOffset":78464,
			"target":34962
		},
		{
			"buffer":0,
			"byteLength":1080,
			"byteOffset":79544,
			"target":34962
		},
		{
			"buffer":0,
			"byteLength":720,
			"byteOffset":80624,
			"target":34962
		},
		{
			"buffer":0,
			"byteLength":504,
			"byteOffset":81344,
			"target":34963
		},
		{
			"buffer":0,
			"byteLength":312,
			"byteOffset":81848,
			"target":34962
		},
		{
			"buffer":0,
			"byteLength":312,
			"byteOffset":82160,
			"target":34962
		},
		{
			"buffer":0,
			"byteLength":208,
			"byteOffset":82472,
			"target":34962
		},
		{
			"buffer":0,
			"byteLength":96,
			"byteOffset":82680,
			"target":34963
		}
	],
	"buffers":[
		{
			"byteLength":82776,
			"uri":"large_buildingD.bin"
		}
	]
}
