{
	"asset":{
		"generator":"Khronos glTF Blender I/O v4.1.62",
		"version":"2.0"
	},
	"scene":0,
	"scenes":[
		{
			"name":"Scene",
			"nodes":[
				1,
				2,
				3,
				4
			]
		}
	],
	"nodes":[
		{
			"mesh":0,
			"name":"low_buildingM"
		},
		{
			"children":[
				0
			],
			"name":"tmpParent"
		},
		{
			"mesh":1,
			"name":"COL01",
			"scale":[
				0.26000022888183594,
				0.5300002694129944,
				0.26000022888183594
			],
			"translation":[
				0,
				0.45999979972839355,
				0
			]
		},
		{
			"mesh":2,
			"name":"COL02",
			"scale":[
				0.21000021696090698,
				1,
				0.21000021696090698
			],
			"translation":[
				0,
				0.5,
				0
			]
		},
		{
			"mesh":3,
			"name":"COL03",
			"scale":[
				0.16000019013881683,
				1,
				0.16000019013881683
			],
			"translation":[
				0,
				1,
				0
			]
		}
	],
	"materials":[
		{
			"name":"_defaultMat.022",
			"pbrMetallicRoughness":{
				"baseColorFactor":[
					0.7641509771347046,
					0.7641509771347046,
					0.7641509771347046,
					1
				]
			}
		},
		{
			"name":"border.022",
			"pbrMetallicRoughness":{
				"baseColorFactor":[
					0.5607843399047852,
					0.5686274766921997,
					0.6000000238418579,
					1
				]
			}
		}
	],
	"meshes":[
		{
			"name":"Mesh low_buildingM",
			"primitives":[
				{
					"attributes":{
						"POSITION":0,
						"NORMAL":1,
						"TEXCOORD_0":2
					},
					"indices":3,
					"material":0
				},
				{
					"attributes":{
						"POSITION":4,
						"NORMAL":5,
						"TEXCOORD_0":6
					},
					"indices":7,
					"material":1
				}
			]
		},
		{
			"name":"\u7acb\u65b9\u4f53.015",
			"primitives":[
				{
					"attributes":{
						"POSITION":8,
						"NORMAL":9,
						"TEXCOORD_0":10
					},
					"indices":11
				}
			]
		},
		{
			"name":"\u7acb\u65b9\u4f53.016",
			"primitives":[
				{
					"attributes":{
						"POSITION":12,
						"NORMAL":13,
						"TEXCOORD_0":14
					},
					"indices":11
				}
			]
		},
		{
			"name":"\u7acb\u65b9\u4f53.017",
			"primitives":[
				{
					"attributes":{
						"POSITION":15,
						"NORMAL":16,
						"TEXCOORD_0":17
					},
					"indices":11
				}
			]
		}
	],
	"accessors":[
		{
			"bufferView":0,
			"componentType":5126,
			"count":148,
			"max":[
				0.25,
				2,
				0.25
			],
			"min":[
				-0.25,
				0,
				-0.25
			],
			"type":"VEC3"
		},
		{
			"bufferView":1,
			"componentType":5126,
			"count":148,
			"type":"VEC3"
		},
		{
			"bufferView":2,
			"componentType":5126,
			"count":148,
			"type":"VEC2"
		},
		{
			"bufferView":3,
			"componentType":5123,
			"count":150,
			"type":"SCALAR"
		},
		{
			"bufferView":4,
			"componentType":5126,
			"count":12,
			"max":[
				0.20000000298023224,
				1.975000023841858,
				0.20000000298023224
			],
			"min":[
				-0.20000000298023224,
				1.5,
				-0.20000000298023224
			],
			"type":"VEC3"
		},
		{
			"bufferView":5,
			"componentType":5126,
			"count":12,
			"type":"VEC3"
		},
		{
			"bufferView":6,
			"componentType":5126,
			"count":12,
			"type":"VEC2"
		},
		{
			"bufferView":7,
			"componentType":5123,
			"count":30,
			"type":"SCALAR"
		},
		{
			"bufferView":8,
			"componentType":5126,
			"count":24,
			"max":[
				1,
				1,
				1
			],
			"min":[
				-1,
				-1,
				-1
			],
			"type":"VEC3"
		},
		{
			"bufferView":9,
			"componentType":5126,
			"count":24,
			"type":"VEC3"
		},
		{
			"bufferView":10,
			"componentType":5126,
			"count":24,
			"type":"VEC2"
		},
		{
			"bufferView":11,
			"componentType":5123,
			"count":36,
			"type":"SCALAR"
		},
		{
			"bufferView":12,
			"componentType":5126,
			"count":24,
			"max":[
				1,
				1,
				1
			],
			"min":[
				-1,
				-0.13068950176239014,
				-1
			],
			"type":"VEC3"
		},
		{
			"bufferView":13,
			"componentType":5126,
			"count":24,
			"type":"VEC3"
		},
		{
			"bufferView":14,
			"componentType":5126,
			"count":24,
			"type":"VEC2"
		},
		{
			"bufferView":15,
			"componentType":5126,
			"count":24,
			"max":[
				1,
				1,
				1
			],
			"min":[
				-1,
				-1,
				-1
			],
			"type":"VEC3"
		},
		{
			"bufferView":16,
			"componentType":5126,
			"count":24,
			"type":"VEC3"
		},
		{
			"bufferView":17,
			"componentType":5126,
			"count":24,
			"type":"VEC2"
		}
	],
	"bufferViews":[
		{
			"buffer":0,
			"byteLength":1776,
			"byteOffset":0,
			"target":34962
		},
		{
			"buffer":0,
			"byteLength":1776,
			"byteOffset":1776,
			"target":34962
		},
		{
			"buffer":0,
			"byteLength":1184,
			"byteOffset":3552,
			"target":34962
		},
		{
			"buffer":0,
			"byteLength":300,
			"byteOffset":4736,
			"target":34963
		},
		{
			"buffer":0,
			"byteLength":144,
			"byteOffset":5036,
			"target":34962
		},
		{
			"buffer":0,
			"byteLength":144,
			"byteOffset":5180,
			"target":34962
		},
		{
			"buffer":0,
			"byteLength":96,
			"byteOffset":5324,
			"target":34962
		},
		{
			"buffer":0,
			"byteLength":60,
			"byteOffset":5420,
			"target":34963
		},
		{
			"buffer":0,
			"byteLength":288,
			"byteOffset":5480,
			"target":34962
		},
		{
			"buffer":0,
			"byteLength":288,
			"byteOffset":5768,
			"target":34962
		},
		{
			"buffer":0,
			"byteLength":192,
			"byteOffset":6056,
			"target":34962
		},
		{
			"buffer":0,
			"byteLength":72,
			"byteOffset":6248,
			"target":34963
		},
		{
			"buffer":0,
			"byteLength":288,
			"byteOffset":6320,
			"target":34962
		},
		{
			"buffer":0,
			"byteLength":288,
			"byteOffset":6608,
			"target":34962
		},
		{
			"buffer":0,
			"byteLength":192,
			"byteOffset":6896,
			"target":34962
		},
		{
			"buffer":0,
			"byteLength":288,
			"byteOffset":7088,
			"target":34962
		},
		{
			"buffer":0,
			"byteLength":288,
			"byteOffset":7376,
			"target":34962
		},
		{
			"buffer":0,
			"byteLength":192,
			"byteOffset":7664,
			"target":34962
		}
	],
	"buffers":[
		{
			"byteLength":7856,
			"uri":"low_buildingM.bin"
		}
	]
}
