{
	"asset":{
		"generator":"Khronos glTF Blender I/O v4.1.62",
		"version":"2.0"
	},
	"scene":0,
	"scenes":[
		{
			"name":"Scene",
			"nodes":[
				1
			]
		}
	],
	"nodes":[
		{
			"mesh":0,
			"name":"road_endRound",
			"translation":[
				0,
				0,
				0.75
			]
		},
		{
			"children":[
				0
			],
			"name":"tmpParent"
		}
	],
	"materials":[
		{
			"name":"pavement.037",
			"pbrMetallicRoughness":{
				"baseColorFactor":[
					0.7568627595901489,
					0.7568627595901489,
					0.800000011920929,
					1
				]
			}
		},
		{
			"name":"line.016",
			"pbrMetallicRoughness":{
				"baseColorFactor":[
					0.5490196347236633,
					0.5764706134796143,
					0.6784313917160034,
					1
				]
			}
		},
		{
			"name":"asphalt.018",
			"pbrMetallicRoughness":{
				"baseColorFactor":[
					0.4313725531101227,
					0.45490196347236633,
					0.529411792755127,
					1
				]
			}
		},
		{
			"name":"asphaltEdge.018",
			"pbrMetallicRoughness":{
				"baseColorFactor":[
					0.32156863808631897,
					0.33725491166114807,
					0.3960784375667572,
					1
				]
			}
		}
	],
	"meshes":[
		{
			"name":"Mesh road_endRound",
			"primitives":[
				{
					"attributes":{
						"POSITION":0,
						"NORMAL":1,
						"TEXCOORD_0":2
					},
					"indices":3,
					"material":0
				},
				{
					"attributes":{
						"POSITION":4,
						"NORMAL":5,
						"TEXCOORD_0":6
					},
					"indices":7,
					"material":1
				},
				{
					"attributes":{
						"POSITION":8,
						"NORMAL":9,
						"TEXCOORD_0":10
					},
					"indices":11,
					"material":2
				},
				{
					"attributes":{
						"POSITION":12,
						"NORMAL":13,
						"TEXCOORD_0":14
					},
					"indices":15,
					"material":3
				}
			]
		}
	],
	"accessors":[
		{
			"bufferView":0,
			"componentType":5126,
			"count":221,
			"max":[
				0.5,
				0.019999999552965164,
				0.5
			],
			"min":[
				-0.5,
				-2.8199664484680564e-18,
				-0.5
			],
			"type":"VEC3"
		},
		{
			"bufferView":1,
			"componentType":5126,
			"count":221,
			"type":"VEC3"
		},
		{
			"bufferView":2,
			"componentType":5126,
			"count":221,
			"type":"VEC2"
		},
		{
			"bufferView":3,
			"componentType":5123,
			"count":435,
			"type":"SCALAR"
		},
		{
			"bufferView":4,
			"componentType":5126,
			"count":4,
			"max":[
				0.009999999776482582,
				0.009999999776482582,
				0.009999999776482582
			],
			"min":[
				-0.5,
				0.009999999776482582,
				-0.009999999776482582
			],
			"type":"VEC3"
		},
		{
			"bufferView":5,
			"componentType":5126,
			"count":4,
			"type":"VEC3"
		},
		{
			"bufferView":6,
			"componentType":5126,
			"count":4,
			"type":"VEC2"
		},
		{
			"bufferView":7,
			"componentType":5123,
			"count":6,
			"type":"SCALAR"
		},
		{
			"bufferView":8,
			"componentType":5126,
			"count":35,
			"max":[
				0.30000001192092896,
				0.019999999552965164,
				0.5
			],
			"min":[
				-0.5,
				0,
				-0.5
			],
			"type":"VEC3"
		},
		{
			"bufferView":9,
			"componentType":5126,
			"count":35,
			"type":"VEC3"
		},
		{
			"bufferView":10,
			"componentType":5126,
			"count":35,
			"type":"VEC2"
		},
		{
			"bufferView":11,
			"componentType":5123,
			"count":93,
			"type":"SCALAR"
		},
		{
			"bufferView":12,
			"componentType":5126,
			"count":42,
			"max":[
				0.4000000059604645,
				0.009999999776482582,
				0.4000000059604645
			],
			"min":[
				-0.5,
				0.009999999776482582,
				-0.4000000059604645
			],
			"type":"VEC3"
		},
		{
			"bufferView":13,
			"componentType":5126,
			"count":42,
			"type":"VEC3"
		},
		{
			"bufferView":14,
			"componentType":5126,
			"count":42,
			"type":"VEC2"
		},
		{
			"bufferView":15,
			"componentType":5123,
			"count":120,
			"type":"SCALAR"
		}
	],
	"bufferViews":[
		{
			"buffer":0,
			"byteLength":2652,
			"byteOffset":0,
			"target":34962
		},
		{
			"buffer":0,
			"byteLength":2652,
			"byteOffset":2652,
			"target":34962
		},
		{
			"buffer":0,
			"byteLength":1768,
			"byteOffset":5304,
			"target":34962
		},
		{
			"buffer":0,
			"byteLength":870,
			"byteOffset":7072,
			"target":34963
		},
		{
			"buffer":0,
			"byteLength":48,
			"byteOffset":7944,
			"target":34962
		},
		{
			"buffer":0,
			"byteLength":48,
			"byteOffset":7992,
			"target":34962
		},
		{
			"buffer":0,
			"byteLength":32,
			"byteOffset":8040,
			"target":34962
		},
		{
			"buffer":0,
			"byteLength":12,
			"byteOffset":8072,
			"target":34963
		},
		{
			"buffer":0,
			"byteLength":420,
			"byteOffset":8084,
			"target":34962
		},
		{
			"buffer":0,
			"byteLength":420,
			"byteOffset":8504,
			"target":34962
		},
		{
			"buffer":0,
			"byteLength":280,
			"byteOffset":8924,
			"target":34962
		},
		{
			"buffer":0,
			"byteLength":186,
			"byteOffset":9204,
			"target":34963
		},
		{
			"buffer":0,
			"byteLength":504,
			"byteOffset":9392,
			"target":34962
		},
		{
			"buffer":0,
			"byteLength":504,
			"byteOffset":9896,
			"target":34962
		},
		{
			"buffer":0,
			"byteLength":336,
			"byteOffset":10400,
			"target":34962
		},
		{
			"buffer":0,
			"byteLength":240,
			"byteOffset":10736,
			"target":34963
		}
	],
	"buffers":[
		{
			"byteLength":10976,
			"uri":"road_endRound.bin"
		}
	]
}
