{
	"asset":{
		"generator":"Khronos glTF Blender I/O v4.1.62",
		"version":"2.0"
	},
	"scene":0,
	"scenes":[
		{
			"name":"Scene",
			"nodes":[
				1
			]
		}
	],
	"nodes":[
		{
			"mesh":0,
			"name":"road_curve",
			"translation":[
				0,
				0,
				0.75
			]
		},
		{
			"children":[
				0
			],
			"name":"tmpParent"
		}
	],
	"materials":[
		{
			"name":"pavement.048",
			"pbrMetallicRoughness":{
				"baseColorFactor":[
					0.7568627595901489,
					0.7568627595901489,
					0.800000011920929,
					1
				]
			}
		},
		{
			"name":"asphaltEdge.024",
			"pbrMetallicRoughness":{
				"baseColorFactor":[
					0.32156863808631897,
					0.33725491166114807,
					0.3960784375667572,
					1
				]
			}
		},
		{
			"name":"asphalt.024",
			"pbrMetallicRoughness":{
				"baseColorFactor":[
					0.4313725531101227,
					0.45490196347236633,
					0.529411792755127,
					1
				]
			}
		},
		{
			"name":"line.022",
			"pbrMetallicRoughness":{
				"baseColorFactor":[
					0.5490196347236633,
					0.5764706134796143,
					0.6784313917160034,
					1
				]
			}
		}
	],
	"meshes":[
		{
			"name":"Mesh road_curve",
			"primitives":[
				{
					"attributes":{
						"POSITION":0,
						"NORMAL":1,
						"TEXCOORD_0":2
					},
					"indices":3,
					"material":0
				},
				{
					"attributes":{
						"POSITION":4,
						"NORMAL":5,
						"TEXCOORD_0":6
					},
					"indices":7,
					"material":1
				},
				{
					"attributes":{
						"POSITION":8,
						"NORMAL":9,
						"TEXCOORD_0":10
					},
					"indices":11,
					"material":2
				},
				{
					"attributes":{
						"POSITION":12,
						"NORMAL":13,
						"TEXCOORD_0":14
					},
					"indices":15,
					"material":3
				}
			]
		}
	],
	"accessors":[
		{
			"bufferView":0,
			"componentType":5126,
			"count":270,
			"max":[
				1,
				0.019999999552965164,
				1
			],
			"min":[
				-1,
				0,
				-1
			],
			"type":"VEC3"
		},
		{
			"bufferView":1,
			"componentType":5126,
			"count":270,
			"type":"VEC3"
		},
		{
			"bufferView":2,
			"componentType":5126,
			"count":270,
			"type":"VEC2"
		},
		{
			"bufferView":3,
			"componentType":5123,
			"count":504,
			"type":"SCALAR"
		},
		{
			"bufferView":4,
			"componentType":5126,
			"count":52,
			"max":[
				1,
				0.009999999776482582,
				0.8999999761581421
			],
			"min":[
				-0.8999999761581421,
				0.009999999776482582,
				-1
			],
			"type":"VEC3"
		},
		{
			"bufferView":5,
			"componentType":5126,
			"count":52,
			"type":"VEC3"
		},
		{
			"bufferView":6,
			"componentType":5126,
			"count":52,
			"type":"VEC2"
		},
		{
			"bufferView":7,
			"componentType":5123,
			"count":144,
			"type":"SCALAR"
		},
		{
			"bufferView":8,
			"componentType":5126,
			"count":76,
			"max":[
				1,
				0.019999999552965164,
				1
			],
			"min":[
				-1,
				0,
				-1
			],
			"type":"VEC3"
		},
		{
			"bufferView":9,
			"componentType":5126,
			"count":76,
			"type":"VEC3"
		},
		{
			"bufferView":10,
			"componentType":5126,
			"count":76,
			"type":"VEC2"
		},
		{
			"bufferView":11,
			"componentType":5123,
			"count":204,
			"type":"SCALAR"
		},
		{
			"bufferView":12,
			"componentType":5126,
			"count":26,
			"max":[
				1,
				0.009999999776482582,
				0.5099999904632568
			],
			"min":[
				-0.5099999904632568,
				0.009999999776482582,
				-1
			],
			"type":"VEC3"
		},
		{
			"bufferView":13,
			"componentType":5126,
			"count":26,
			"type":"VEC3"
		},
		{
			"bufferView":14,
			"componentType":5126,
			"count":26,
			"type":"VEC2"
		},
		{
			"bufferView":15,
			"componentType":5123,
			"count":72,
			"type":"SCALAR"
		}
	],
	"bufferViews":[
		{
			"buffer":0,
			"byteLength":3240,
			"byteOffset":0,
			"target":34962
		},
		{
			"buffer":0,
			"byteLength":3240,
			"byteOffset":3240,
			"target":34962
		},
		{
			"buffer":0,
			"byteLength":2160,
			"byteOffset":6480,
			"target":34962
		},
		{
			"buffer":0,
			"byteLength":1008,
			"byteOffset":8640,
			"target":34963
		},
		{
			"buffer":0,
			"byteLength":624,
			"byteOffset":9648,
			"target":34962
		},
		{
			"buffer":0,
			"byteLength":624,
			"byteOffset":10272,
			"target":34962
		},
		{
			"buffer":0,
			"byteLength":416,
			"byteOffset":10896,
			"target":34962
		},
		{
			"buffer":0,
			"byteLength":288,
			"byteOffset":11312,
			"target":34963
		},
		{
			"buffer":0,
			"byteLength":912,
			"byteOffset":11600,
			"target":34962
		},
		{
			"buffer":0,
			"byteLength":912,
			"byteOffset":12512,
			"target":34962
		},
		{
			"buffer":0,
			"byteLength":608,
			"byteOffset":13424,
			"target":34962
		},
		{
			"buffer":0,
			"byteLength":408,
			"byteOffset":14032,
			"target":34963
		},
		{
			"buffer":0,
			"byteLength":312,
			"byteOffset":14440,
			"target":34962
		},
		{
			"buffer":0,
			"byteLength":312,
			"byteOffset":14752,
			"target":34962
		},
		{
			"buffer":0,
			"byteLength":208,
			"byteOffset":15064,
			"target":34962
		},
		{
			"buffer":0,
			"byteLength":144,
			"byteOffset":15272,
			"target":34963
		}
	],
	"buffers":[
		{
			"byteLength":15416,
			"uri":"road_curve.bin"
		}
	]
}
