{
	"asset":{
		"generator":"Khronos glTF Blender I/O v4.1.62",
		"version":"2.0"
	},
	"scene":0,
	"scenes":[
		{
			"name":"Scene",
			"nodes":[
				1,
				2
			]
		}
	],
	"nodes":[
		{
			"mesh":0,
			"name":"skyscraperF"
		},
		{
			"children":[
				0
			],
			"name":"tmpParent"
		},
		{
			"mesh":1,
			"name":"COL01",
			"scale":[
				0.6500003337860107,
				4.069999694824219,
				0.6400003433227539
			]
		}
	],
	"materials":[
		{
			"name":"border.005",
			"pbrMetallicRoughness":{
				"baseColorFactor":[
					0.5607843399047852,
					0.5686274766921997,
					0.6000000238418579,
					1
				]
			}
		},
		{
			"name":"window.005",
			"pbrMetallicRoughness":{
				"baseColorFactor":[
					0.7372549176216125,
					0.886274516582489,
					1,
					1
				]
			}
		},
		{
			"name":"_defaultMat.005",
			"pbrMetallicRoughness":{
				"baseColorFactor":[
					0.7641509771347046,
					0.7641509771347046,
					0.7641509771347046,
					1
				]
			}
		},
		{
			"name":"door.005",
			"pbrMetallicRoughness":{
				"baseColorFactor":[
					0.38823530077934265,
					0.4000000059604645,
					0.4470588266849518,
					1
				]
			}
		}
	],
	"meshes":[
		{
			"name":"Mesh skyscraperF",
			"primitives":[
				{
					"attributes":{
						"POSITION":0,
						"NORMAL":1,
						"TEXCOORD_0":2
					},
					"indices":3,
					"material":0
				},
				{
					"attributes":{
						"POSITION":4,
						"NORMAL":5,
						"TEXCOORD_0":6
					},
					"indices":7,
					"material":1
				},
				{
					"attributes":{
						"POSITION":8,
						"NORMAL":9,
						"TEXCOORD_0":10
					},
					"indices":11,
					"material":2
				},
				{
					"attributes":{
						"POSITION":12,
						"NORMAL":13,
						"TEXCOORD_0":14
					},
					"indices":15,
					"material":3
				}
			]
		},
		{
			"name":"\u7acb\u65b9\u4f53.003",
			"primitives":[
				{
					"attributes":{
						"POSITION":16,
						"NORMAL":17,
						"TEXCOORD_0":18
					},
					"indices":19
				}
			]
		}
	],
	"accessors":[
		{
			"bufferView":0,
			"componentType":5126,
			"count":380,
			"max":[
				0.6200000047683716,
				4.079999923706055,
				0.6200000047683716
			],
			"min":[
				-0.6200000047683716,
				-1.804778527019556e-16,
				-0.6200000047683716
			],
			"type":"VEC3"
		},
		{
			"bufferView":1,
			"componentType":5126,
			"count":380,
			"type":"VEC3"
		},
		{
			"bufferView":2,
			"componentType":5126,
			"count":380,
			"type":"VEC2"
		},
		{
			"bufferView":3,
			"componentType":5123,
			"count":738,
			"type":"SCALAR"
		},
		{
			"bufferView":4,
			"componentType":5126,
			"count":44,
			"max":[
				0.5,
				3.86769962310791,
				0.5799999833106995
			],
			"min":[
				-0.5,
				0.019999999552965164,
				-0.550000011920929
			],
			"type":"VEC3"
		},
		{
			"bufferView":5,
			"componentType":5126,
			"count":44,
			"type":"VEC3"
		},
		{
			"bufferView":6,
			"componentType":5126,
			"count":44,
			"type":"VEC2"
		},
		{
			"bufferView":7,
			"componentType":5123,
			"count":66,
			"type":"SCALAR"
		},
		{
			"bufferView":8,
			"componentType":5126,
			"count":285,
			"max":[
				0.6000000238418579,
				4,
				0.6000000238418579
			],
			"min":[
				-0.6000000238418579,
				0.4000000059604645,
				-0.6000000238418579
			],
			"type":"VEC3"
		},
		{
			"bufferView":9,
			"componentType":5126,
			"count":285,
			"type":"VEC3"
		},
		{
			"bufferView":10,
			"componentType":5126,
			"count":285,
			"type":"VEC2"
		},
		{
			"bufferView":11,
			"componentType":5123,
			"count":306,
			"type":"SCALAR"
		},
		{
			"bufferView":12,
			"componentType":5126,
			"count":90,
			"max":[
				0.6000000238418579,
				4,
				0.6000000238418579
			],
			"min":[
				-0.6000000238418579,
				-1.804778527019556e-16,
				-0.6000000238418579
			],
			"type":"VEC3"
		},
		{
			"bufferView":13,
			"componentType":5126,
			"count":90,
			"type":"VEC3"
		},
		{
			"bufferView":14,
			"componentType":5126,
			"count":90,
			"type":"VEC2"
		},
		{
			"bufferView":15,
			"componentType":5123,
			"count":258,
			"type":"SCALAR"
		},
		{
			"bufferView":16,
			"componentType":5126,
			"count":24,
			"max":[
				1,
				1,
				1
			],
			"min":[
				-1,
				0.0027059288695454597,
				-1
			],
			"type":"VEC3"
		},
		{
			"bufferView":17,
			"componentType":5126,
			"count":24,
			"type":"VEC3"
		},
		{
			"bufferView":18,
			"componentType":5126,
			"count":24,
			"type":"VEC2"
		},
		{
			"bufferView":19,
			"componentType":5123,
			"count":36,
			"type":"SCALAR"
		}
	],
	"bufferViews":[
		{
			"buffer":0,
			"byteLength":4560,
			"byteOffset":0,
			"target":34962
		},
		{
			"buffer":0,
			"byteLength":4560,
			"byteOffset":4560,
			"target":34962
		},
		{
			"buffer":0,
			"byteLength":3040,
			"byteOffset":9120,
			"target":34962
		},
		{
			"buffer":0,
			"byteLength":1476,
			"byteOffset":12160,
			"target":34963
		},
		{
			"buffer":0,
			"byteLength":528,
			"byteOffset":13636,
			"target":34962
		},
		{
			"buffer":0,
			"byteLength":528,
			"byteOffset":14164,
			"target":34962
		},
		{
			"buffer":0,
			"byteLength":352,
			"byteOffset":14692,
			"target":34962
		},
		{
			"buffer":0,
			"byteLength":132,
			"byteOffset":15044,
			"target":34963
		},
		{
			"buffer":0,
			"byteLength":3420,
			"byteOffset":15176,
			"target":34962
		},
		{
			"buffer":0,
			"byteLength":3420,
			"byteOffset":18596,
			"target":34962
		},
		{
			"buffer":0,
			"byteLength":2280,
			"byteOffset":22016,
			"target":34962
		},
		{
			"buffer":0,
			"byteLength":612,
			"byteOffset":24296,
			"target":34963
		},
		{
			"buffer":0,
			"byteLength":1080,
			"byteOffset":24908,
			"target":34962
		},
		{
			"buffer":0,
			"byteLength":1080,
			"byteOffset":25988,
			"target":34962
		},
		{
			"buffer":0,
			"byteLength":720,
			"byteOffset":27068,
			"target":34962
		},
		{
			"buffer":0,
			"byteLength":516,
			"byteOffset":27788,
			"target":34963
		},
		{
			"buffer":0,
			"byteLength":288,
			"byteOffset":28304,
			"target":34962
		},
		{
			"buffer":0,
			"byteLength":288,
			"byteOffset":28592,
			"target":34962
		},
		{
			"buffer":0,
			"byteLength":192,
			"byteOffset":28880,
			"target":34962
		},
		{
			"buffer":0,
			"byteLength":72,
			"byteOffset":29072,
			"target":34963
		}
	],
	"buffers":[
		{
			"byteLength":29144,
			"uri":"skyscraperF.bin"
		}
	]
}
