{
	"asset":{
		"generator":"Khronos glTF Blender I/O v4.1.62",
		"version":"2.0"
	},
	"scene":0,
	"scenes":[
		{
			"name":"Scene",
			"nodes":[
				0,
				2,
				3
			]
		}
	],
	"nodes":[
		{
			"mesh":0,
			"name":"COL01",
			"scale":[
				0.26499998569488525,
				0.2600002884864807,
				0.27000001072883606
			],
			"translation":[
				0,
				0.2600001394748688,
				0.009999999776482582
			]
		},
		{
			"mesh":1,
			"name":"low_buildingG"
		},
		{
			"children":[
				1
			],
			"name":"tmpParent"
		},
		{
			"mesh":2,
			"name":"COL02",
			"scale":[
				0.26499998569488525,
				0.850000262260437,
				0.27000001072883606
			],
			"translation":[
				0,
				1.1500003337860107,
				0.009999999776482582
			]
		}
	],
	"materials":[
		{
			"name":"_defaultMat.016",
			"pbrMetallicRoughness":{
				"baseColorFactor":[
					0.7641509771347046,
					0.7641509771347046,
					0.7641509771347046,
					1
				]
			}
		},
		{
			"name":"border.016",
			"pbrMetallicRoughness":{
				"baseColorFactor":[
					0.5607843399047852,
					0.5686274766921997,
					0.6000000238418579,
					1
				]
			}
		}
	],
	"meshes":[
		{
			"name":"\u7acb\u65b9\u4f53",
			"primitives":[
				{
					"attributes":{
						"POSITION":0,
						"NORMAL":1,
						"TEXCOORD_0":2
					},
					"indices":3
				}
			]
		},
		{
			"name":"Mesh low_buildingG",
			"primitives":[
				{
					"attributes":{
						"POSITION":4,
						"NORMAL":5,
						"TEXCOORD_0":6
					},
					"indices":7,
					"material":0
				},
				{
					"attributes":{
						"POSITION":8,
						"NORMAL":9,
						"TEXCOORD_0":10
					},
					"indices":11,
					"material":1
				}
			]
		},
		{
			"name":"\u7acb\u65b9\u4f53.013",
			"primitives":[
				{
					"attributes":{
						"POSITION":12,
						"NORMAL":13,
						"TEXCOORD_0":14
					},
					"indices":15
				}
			]
		}
	],
	"accessors":[
		{
			"bufferView":0,
			"componentType":5126,
			"count":24,
			"max":[
				1,
				1,
				1
			],
			"min":[
				-1,
				-1,
				-1
			],
			"type":"VEC3"
		},
		{
			"bufferView":1,
			"componentType":5126,
			"count":24,
			"type":"VEC3"
		},
		{
			"bufferView":2,
			"componentType":5126,
			"count":24,
			"type":"VEC2"
		},
		{
			"bufferView":3,
			"componentType":5123,
			"count":36,
			"type":"SCALAR"
		},
		{
			"bufferView":4,
			"componentType":5126,
			"count":301,
			"max":[
				0.25,
				2.25,
				0.25
			],
			"min":[
				-0.25,
				0,
				-0.25
			],
			"type":"VEC3"
		},
		{
			"bufferView":5,
			"componentType":5126,
			"count":301,
			"type":"VEC3"
		},
		{
			"bufferView":6,
			"componentType":5126,
			"count":301,
			"type":"VEC2"
		},
		{
			"bufferView":7,
			"componentType":5123,
			"count":378,
			"type":"SCALAR"
		},
		{
			"bufferView":8,
			"componentType":5126,
			"count":4,
			"max":[
				0.19321735203266144,
				1.9196971654891968,
				0.19321735203266144
			],
			"min":[
				0.056782640516757965,
				0.5803027749061584,
				0.056782640516757965
			],
			"type":"VEC3"
		},
		{
			"bufferView":9,
			"componentType":5126,
			"count":4,
			"type":"VEC3"
		},
		{
			"bufferView":10,
			"componentType":5126,
			"count":4,
			"type":"VEC2"
		},
		{
			"bufferView":11,
			"componentType":5123,
			"count":6,
			"type":"SCALAR"
		},
		{
			"bufferView":12,
			"componentType":5126,
			"count":26,
			"max":[
				1,
				1,
				1
			],
			"min":[
				-1,
				-1,
				-1
			],
			"type":"VEC3"
		},
		{
			"bufferView":13,
			"componentType":5126,
			"count":26,
			"type":"VEC3"
		},
		{
			"bufferView":14,
			"componentType":5126,
			"count":26,
			"type":"VEC2"
		},
		{
			"bufferView":15,
			"componentType":5123,
			"count":42,
			"type":"SCALAR"
		}
	],
	"bufferViews":[
		{
			"buffer":0,
			"byteLength":288,
			"byteOffset":0,
			"target":34962
		},
		{
			"buffer":0,
			"byteLength":288,
			"byteOffset":288,
			"target":34962
		},
		{
			"buffer":0,
			"byteLength":192,
			"byteOffset":576,
			"target":34962
		},
		{
			"buffer":0,
			"byteLength":72,
			"byteOffset":768,
			"target":34963
		},
		{
			"buffer":0,
			"byteLength":3612,
			"byteOffset":840,
			"target":34962
		},
		{
			"buffer":0,
			"byteLength":3612,
			"byteOffset":4452,
			"target":34962
		},
		{
			"buffer":0,
			"byteLength":2408,
			"byteOffset":8064,
			"target":34962
		},
		{
			"buffer":0,
			"byteLength":756,
			"byteOffset":10472,
			"target":34963
		},
		{
			"buffer":0,
			"byteLength":48,
			"byteOffset":11228,
			"target":34962
		},
		{
			"buffer":0,
			"byteLength":48,
			"byteOffset":11276,
			"target":34962
		},
		{
			"buffer":0,
			"byteLength":32,
			"byteOffset":11324,
			"target":34962
		},
		{
			"buffer":0,
			"byteLength":12,
			"byteOffset":11356,
			"target":34963
		},
		{
			"buffer":0,
			"byteLength":312,
			"byteOffset":11368,
			"target":34962
		},
		{
			"buffer":0,
			"byteLength":312,
			"byteOffset":11680,
			"target":34962
		},
		{
			"buffer":0,
			"byteLength":208,
			"byteOffset":11992,
			"target":34962
		},
		{
			"buffer":0,
			"byteLength":84,
			"byteOffset":12200,
			"target":34963
		}
	],
	"buffers":[
		{
			"byteLength":12284,
			"uri":"low_buildingG.bin"
		}
	]
}
