{
	"asset":{
		"generator":"Khronos glTF Blender I/O v4.1.62",
		"version":"2.0"
	},
	"scene":0,
	"scenes":[
		{
			"name":"Scene",
			"nodes":[
				1
			]
		}
	],
	"nodes":[
		{
			"mesh":0,
			"name":"road_bendSquare",
			"translation":[
				0,
				0,
				0.75
			]
		},
		{
			"children":[
				0
			],
			"name":"tmpParent"
		}
	],
	"materials":[
		{
			"name":"pavement.056",
			"pbrMetallicRoughness":{
				"baseColorFactor":[
					0.7568627595901489,
					0.7568627595901489,
					0.800000011920929,
					1
				]
			}
		},
		{
			"name":"asphalt.029",
			"pbrMetallicRoughness":{
				"baseColorFactor":[
					0.4313725531101227,
					0.45490196347236633,
					0.529411792755127,
					1
				]
			}
		},
		{
			"name":"asphaltEdge.029",
			"pbrMetallicRoughness":{
				"baseColorFactor":[
					0.32156863808631897,
					0.33725491166114807,
					0.3960784375667572,
					1
				]
			}
		},
		{
			"name":"line.027",
			"pbrMetallicRoughness":{
				"baseColorFactor":[
					0.5490196347236633,
					0.5764706134796143,
					0.6784313917160034,
					1
				]
			}
		}
	],
	"meshes":[
		{
			"name":"Mesh road_bendSquare",
			"primitives":[
				{
					"attributes":{
						"POSITION":0,
						"NORMAL":1,
						"TEXCOORD_0":2
					},
					"indices":3,
					"material":0
				},
				{
					"attributes":{
						"POSITION":4,
						"NORMAL":5,
						"TEXCOORD_0":6
					},
					"indices":7,
					"material":1
				},
				{
					"attributes":{
						"POSITION":8,
						"NORMAL":9,
						"TEXCOORD_0":10
					},
					"indices":11,
					"material":2
				},
				{
					"attributes":{
						"POSITION":12,
						"NORMAL":13,
						"TEXCOORD_0":14
					},
					"indices":15,
					"material":3
				}
			]
		}
	],
	"accessors":[
		{
			"bufferView":0,
			"componentType":5126,
			"count":38,
			"max":[
				0.5,
				0.019999999552965164,
				0.5
			],
			"min":[
				-0.5,
				0,
				-0.5
			],
			"type":"VEC3"
		},
		{
			"bufferView":1,
			"componentType":5126,
			"count":38,
			"type":"VEC3"
		},
		{
			"bufferView":2,
			"componentType":5126,
			"count":38,
			"type":"VEC2"
		},
		{
			"bufferView":3,
			"componentType":5123,
			"count":60,
			"type":"SCALAR"
		},
		{
			"bufferView":4,
			"componentType":5126,
			"count":36,
			"max":[
				0.5,
				0.019999999552965164,
				0.5
			],
			"min":[
				-0.5,
				0,
				-0.5
			],
			"type":"VEC3"
		},
		{
			"bufferView":5,
			"componentType":5126,
			"count":36,
			"type":"VEC3"
		},
		{
			"bufferView":6,
			"componentType":5126,
			"count":36,
			"type":"VEC2"
		},
		{
			"bufferView":7,
			"componentType":5123,
			"count":84,
			"type":"SCALAR"
		},
		{
			"bufferView":8,
			"componentType":5126,
			"count":12,
			"max":[
				0.5,
				0.009999999776482582,
				0.4000000059604645
			],
			"min":[
				-0.4000000059604645,
				0.009999999776482582,
				-0.5
			],
			"type":"VEC3"
		},
		{
			"bufferView":9,
			"componentType":5126,
			"count":12,
			"type":"VEC3"
		},
		{
			"bufferView":10,
			"componentType":5126,
			"count":12,
			"type":"VEC2"
		},
		{
			"bufferView":11,
			"componentType":5123,
			"count":24,
			"type":"SCALAR"
		},
		{
			"bufferView":12,
			"componentType":5126,
			"count":6,
			"max":[
				0.5,
				0.009999999776482582,
				0.009999999776482582
			],
			"min":[
				-0.009999999776482582,
				0.009999999776482582,
				-0.5
			],
			"type":"VEC3"
		},
		{
			"bufferView":13,
			"componentType":5126,
			"count":6,
			"type":"VEC3"
		},
		{
			"bufferView":14,
			"componentType":5126,
			"count":6,
			"type":"VEC2"
		},
		{
			"bufferView":15,
			"componentType":5123,
			"count":12,
			"type":"SCALAR"
		}
	],
	"bufferViews":[
		{
			"buffer":0,
			"byteLength":456,
			"byteOffset":0,
			"target":34962
		},
		{
			"buffer":0,
			"byteLength":456,
			"byteOffset":456,
			"target":34962
		},
		{
			"buffer":0,
			"byteLength":304,
			"byteOffset":912,
			"target":34962
		},
		{
			"buffer":0,
			"byteLength":120,
			"byteOffset":1216,
			"target":34963
		},
		{
			"buffer":0,
			"byteLength":432,
			"byteOffset":1336,
			"target":34962
		},
		{
			"buffer":0,
			"byteLength":432,
			"byteOffset":1768,
			"target":34962
		},
		{
			"buffer":0,
			"byteLength":288,
			"byteOffset":2200,
			"target":34962
		},
		{
			"buffer":0,
			"byteLength":168,
			"byteOffset":2488,
			"target":34963
		},
		{
			"buffer":0,
			"byteLength":144,
			"byteOffset":2656,
			"target":34962
		},
		{
			"buffer":0,
			"byteLength":144,
			"byteOffset":2800,
			"target":34962
		},
		{
			"buffer":0,
			"byteLength":96,
			"byteOffset":2944,
			"target":34962
		},
		{
			"buffer":0,
			"byteLength":48,
			"byteOffset":3040,
			"target":34963
		},
		{
			"buffer":0,
			"byteLength":72,
			"byteOffset":3088,
			"target":34962
		},
		{
			"buffer":0,
			"byteLength":72,
			"byteOffset":3160,
			"target":34962
		},
		{
			"buffer":0,
			"byteLength":48,
			"byteOffset":3232,
			"target":34962
		},
		{
			"buffer":0,
			"byteLength":24,
			"byteOffset":3280,
			"target":34963
		}
	],
	"buffers":[
		{
			"byteLength":3304,
			"uri":"road_bendSquare.bin"
		}
	]
}
