{
	"asset":{
		"generator":"Khronos glTF Blender I/O v4.1.62",
		"version":"2.0"
	},
	"extensionsUsed":[
		"KHR_materials_specular"
	],
	"scene":0,
	"scenes":[
		{
			"name":"Scene",
			"nodes":[
				0,
				1
			]
		}
	],
	"nodes":[
		{
			"mesh":0,
			"name":"rpg7",
			"rotation":[
				0,
				-0.7071068286895752,
				0,
				0.7071068286895752
			],
			"scale":[
				0.009999999776482582,
				0.009999999776482582,
				0.009999999776482582
			]
		},
		{
			"mesh":1,
			"name":"rpg7_warhead",
			"rotation":[
				0,
				-0.7071068286895752,
				0,
				0.7071068286895752
			],
			"scale":[
				0.009999999776482582,
				0.009999999776482582,
				0.009999999776482582
			],
			"translation":[
				0,
				0,
				-0.4143339991569519
			]
		}
	],
	"materials":[
		{
			"doubleSided":true,
			"extensions":{
				"KHR_materials_specular":{
					"specularFactor":0
				}
			},
			"name":"rpg7",
			"pbrMetallicRoughness":{
				"baseColorTexture":{
					"index":0
				},
				"roughnessFactor":0.858578622341156
			}
		},
		{
			"doubleSided":true,
			"extensions":{
				"KHR_materials_specular":{
					"specularFactor":0
				}
			},
			"name":"rpg7_warhead",
			"pbrMetallicRoughness":{
				"baseColorTexture":{
					"index":1
				},
				"roughnessFactor":0.858578622341156
			}
		}
	],
	"meshes":[
		{
			"name":"\u30e1\u30c3\u30b7\u30e5",
			"primitives":[
				{
					"attributes":{
						"POSITION":0,
						"NORMAL":1,
						"TEXCOORD_0":2
					},
					"indices":3,
					"material":0
				}
			]
		},
		{
			"name":"\u30e1\u30c3\u30b7\u30e5.001",
			"primitives":[
				{
					"attributes":{
						"POSITION":4,
						"NORMAL":5,
						"TEXCOORD_0":6
					},
					"indices":7,
					"material":1
				}
			]
		}
	],
	"textures":[
		{
			"sampler":0,
			"source":0
		},
		{
			"sampler":0,
			"source":1
		}
	],
	"images":[
		{
			"mimeType":"image/png",
			"name":"Map #0",
			"uri":"Map%200.png"
		},
		{
			"mimeType":"image/png",
			"name":"Map #1",
			"uri":"Map%201.png"
		}
	],
	"accessors":[
		{
			"bufferView":0,
			"componentType":5126,
			"count":8004,
			"max":[
				46.124237060546875,
				10.151688575744629,
				5.328623294830322
			],
			"min":[
				-46.124237060546875,
				-15.080160140991211,
				-5.32860803604126
			],
			"type":"VEC3"
		},
		{
			"bufferView":1,
			"componentType":5126,
			"count":8004,
			"type":"VEC3"
		},
		{
			"bufferView":2,
			"componentType":5126,
			"count":8004,
			"type":"VEC2"
		},
		{
			"bufferView":3,
			"componentType":5123,
			"count":24810,
			"type":"SCALAR"
		},
		{
			"bufferView":4,
			"componentType":5126,
			"count":1537,
			"max":[
				38.331241607666016,
				3.2528340816497803,
				3.2528326511383057
			],
			"min":[
				-38.33123779296875,
				-3.252837896347046,
				-3.2528395652770996
			],
			"type":"VEC3"
		},
		{
			"bufferView":5,
			"componentType":5126,
			"count":1537,
			"type":"VEC3"
		},
		{
			"bufferView":6,
			"componentType":5126,
			"count":1537,
			"type":"VEC2"
		},
		{
			"bufferView":7,
			"componentType":5123,
			"count":6408,
			"type":"SCALAR"
		}
	],
	"bufferViews":[
		{
			"buffer":0,
			"byteLength":96048,
			"byteOffset":0,
			"target":34962
		},
		{
			"buffer":0,
			"byteLength":96048,
			"byteOffset":96048,
			"target":34962
		},
		{
			"buffer":0,
			"byteLength":64032,
			"byteOffset":192096,
			"target":34962
		},
		{
			"buffer":0,
			"byteLength":49620,
			"byteOffset":256128,
			"target":34963
		},
		{
			"buffer":0,
			"byteLength":18444,
			"byteOffset":305748,
			"target":34962
		},
		{
			"buffer":0,
			"byteLength":18444,
			"byteOffset":324192,
			"target":34962
		},
		{
			"buffer":0,
			"byteLength":12296,
			"byteOffset":342636,
			"target":34962
		},
		{
			"buffer":0,
			"byteLength":12816,
			"byteOffset":354932,
			"target":34963
		}
	],
	"samplers":[
		{
			"magFilter":9729,
			"minFilter":9987
		}
	],
	"buffers":[
		{
			"byteLength":367748,
			"uri":"RPG-7.bin"
		}
	]
}
