{
	"asset":{
		"generator":"Khronos glTF Blender I/O v4.1.62",
		"version":"2.0"
	},
	"scene":0,
	"scenes":[
		{
			"name":"Scene",
			"nodes":[
				0,
				2
			]
		}
	],
	"nodes":[
		{
			"mesh":0,
			"name":"COL01",
			"scale":[
				0.4500000476837158,
				0.8899999856948853,
				0.44999998807907104
			],
			"translation":[
				0,
				0.8199999928474426,
				0
			]
		},
		{
			"mesh":1,
			"name":"large_buildingB"
		},
		{
			"children":[
				1
			],
			"name":"tmpParent"
		}
	],
	"materials":[
		{
			"name":"border.003",
			"pbrMetallicRoughness":{
				"baseColorFactor":[
					0.5607843399047852,
					0.5686274766921997,
					0.6000000238418579,
					1
				]
			}
		},
		{
			"name":"door.003",
			"pbrMetallicRoughness":{
				"baseColorFactor":[
					0.38823530077934265,
					0.4000000059604645,
					0.4470588266849518,
					1
				]
			}
		},
		{
			"name":"window.003",
			"pbrMetallicRoughness":{
				"baseColorFactor":[
					0.7372549176216125,
					0.886274516582489,
					1,
					1
				]
			}
		},
		{
			"name":"roof.001",
			"pbrMetallicRoughness":{
				"baseColorFactor":[
					0.33725491166114807,
					0.7372549176216125,
					0.6000000238418579,
					1
				]
			}
		},
		{
			"name":"_defaultMat.003",
			"pbrMetallicRoughness":{
				"baseColorFactor":[
					0.7641509771347046,
					0.7641509771347046,
					0.7641509771347046,
					1
				]
			}
		}
	],
	"meshes":[
		{
			"name":"\u7acb\u65b9\u4f53",
			"primitives":[
				{
					"attributes":{
						"POSITION":0,
						"NORMAL":1,
						"TEXCOORD_0":2
					},
					"indices":3
				}
			]
		},
		{
			"name":"Mesh large_buildingB.001",
			"primitives":[
				{
					"attributes":{
						"POSITION":4,
						"NORMAL":5,
						"TEXCOORD_0":6
					},
					"indices":7,
					"material":0
				},
				{
					"attributes":{
						"POSITION":8,
						"NORMAL":9,
						"TEXCOORD_0":10
					},
					"indices":11,
					"material":1
				},
				{
					"attributes":{
						"POSITION":12,
						"NORMAL":13,
						"TEXCOORD_0":14
					},
					"indices":15,
					"material":2
				},
				{
					"attributes":{
						"POSITION":16,
						"NORMAL":17,
						"TEXCOORD_0":18
					},
					"indices":19,
					"material":3
				},
				{
					"attributes":{
						"POSITION":20,
						"NORMAL":21,
						"TEXCOORD_0":22
					},
					"indices":23,
					"material":4
				}
			]
		}
	],
	"accessors":[
		{
			"bufferView":0,
			"componentType":5126,
			"count":24,
			"max":[
				1,
				1,
				1
			],
			"min":[
				-1,
				-1,
				-1
			],
			"type":"VEC3"
		},
		{
			"bufferView":1,
			"componentType":5126,
			"count":24,
			"type":"VEC3"
		},
		{
			"bufferView":2,
			"componentType":5126,
			"count":24,
			"type":"VEC2"
		},
		{
			"bufferView":3,
			"componentType":5123,
			"count":36,
			"type":"SCALAR"
		},
		{
			"bufferView":4,
			"componentType":5126,
			"count":882,
			"max":[
				0.41999998688697815,
				1.6799999475479126,
				0.41999998688697815
			],
			"min":[
				-0.41999998688697815,
				0,
				-0.41999998688697815
			],
			"type":"VEC3"
		},
		{
			"bufferView":5,
			"componentType":5126,
			"count":882,
			"type":"VEC3"
		},
		{
			"bufferView":6,
			"componentType":5126,
			"count":882,
			"type":"VEC2"
		},
		{
			"bufferView":7,
			"componentType":5123,
			"count":1818,
			"type":"SCALAR"
		},
		{
			"bufferView":8,
			"componentType":5126,
			"count":54,
			"max":[
				0.4000000059604645,
				1.600000023841858,
				0.4000000059604645
			],
			"min":[
				-0.4000000059604645,
				0,
				-0.4000000059604645
			],
			"type":"VEC3"
		},
		{
			"bufferView":9,
			"componentType":5126,
			"count":54,
			"type":"VEC3"
		},
		{
			"bufferView":10,
			"componentType":5126,
			"count":54,
			"type":"VEC2"
		},
		{
			"bufferView":11,
			"componentType":5123,
			"count":132,
			"type":"SCALAR"
		},
		{
			"bufferView":12,
			"componentType":5126,
			"count":112,
			"max":[
				0.30000001192092896,
				1.4499999284744263,
				0.3799999952316284
			],
			"min":[
				-0.30000001192092896,
				0.019999999552965164,
				-0.3799999952316284
			],
			"type":"VEC3"
		},
		{
			"bufferView":13,
			"componentType":5126,
			"count":112,
			"type":"VEC3"
		},
		{
			"bufferView":14,
			"componentType":5126,
			"count":112,
			"type":"VEC2"
		},
		{
			"bufferView":15,
			"componentType":5123,
			"count":168,
			"type":"SCALAR"
		},
		{
			"bufferView":16,
			"componentType":5126,
			"count":24,
			"max":[
				0.4000000059604645,
				0.4000000059604645,
				0.41999998688697815
			],
			"min":[
				-0.4000000059604645,
				0.30000001192092896,
				0.4000000059604645
			],
			"type":"VEC3"
		},
		{
			"bufferView":17,
			"componentType":5126,
			"count":24,
			"type":"VEC3"
		},
		{
			"bufferView":18,
			"componentType":5126,
			"count":24,
			"type":"VEC2"
		},
		{
			"bufferView":19,
			"componentType":5123,
			"count":42,
			"type":"SCALAR"
		},
		{
			"bufferView":20,
			"componentType":5126,
			"count":342,
			"max":[
				0.4000000059604645,
				1.600000023841858,
				0.4000000059604645
			],
			"min":[
				-0.4000000059604645,
				0.44999998807907104,
				-0.4000000059604645
			],
			"type":"VEC3"
		},
		{
			"bufferView":21,
			"componentType":5126,
			"count":342,
			"type":"VEC3"
		},
		{
			"bufferView":22,
			"componentType":5126,
			"count":342,
			"type":"VEC2"
		},
		{
			"bufferView":23,
			"componentType":5123,
			"count":360,
			"type":"SCALAR"
		}
	],
	"bufferViews":[
		{
			"buffer":0,
			"byteLength":288,
			"byteOffset":0,
			"target":34962
		},
		{
			"buffer":0,
			"byteLength":288,
			"byteOffset":288,
			"target":34962
		},
		{
			"buffer":0,
			"byteLength":192,
			"byteOffset":576,
			"target":34962
		},
		{
			"buffer":0,
			"byteLength":72,
			"byteOffset":768,
			"target":34963
		},
		{
			"buffer":0,
			"byteLength":10584,
			"byteOffset":840,
			"target":34962
		},
		{
			"buffer":0,
			"byteLength":10584,
			"byteOffset":11424,
			"target":34962
		},
		{
			"buffer":0,
			"byteLength":7056,
			"byteOffset":22008,
			"target":34962
		},
		{
			"buffer":0,
			"byteLength":3636,
			"byteOffset":29064,
			"target":34963
		},
		{
			"buffer":0,
			"byteLength":648,
			"byteOffset":32700,
			"target":34962
		},
		{
			"buffer":0,
			"byteLength":648,
			"byteOffset":33348,
			"target":34962
		},
		{
			"buffer":0,
			"byteLength":432,
			"byteOffset":33996,
			"target":34962
		},
		{
			"buffer":0,
			"byteLength":264,
			"byteOffset":34428,
			"target":34963
		},
		{
			"buffer":0,
			"byteLength":1344,
			"byteOffset":34692,
			"target":34962
		},
		{
			"buffer":0,
			"byteLength":1344,
			"byteOffset":36036,
			"target":34962
		},
		{
			"buffer":0,
			"byteLength":896,
			"byteOffset":37380,
			"target":34962
		},
		{
			"buffer":0,
			"byteLength":336,
			"byteOffset":38276,
			"target":34963
		},
		{
			"buffer":0,
			"byteLength":288,
			"byteOffset":38612,
			"target":34962
		},
		{
			"buffer":0,
			"byteLength":288,
			"byteOffset":38900,
			"target":34962
		},
		{
			"buffer":0,
			"byteLength":192,
			"byteOffset":39188,
			"target":34962
		},
		{
			"buffer":0,
			"byteLength":84,
			"byteOffset":39380,
			"target":34963
		},
		{
			"buffer":0,
			"byteLength":4104,
			"byteOffset":39464,
			"target":34962
		},
		{
			"buffer":0,
			"byteLength":4104,
			"byteOffset":43568,
			"target":34962
		},
		{
			"buffer":0,
			"byteLength":2736,
			"byteOffset":47672,
			"target":34962
		},
		{
			"buffer":0,
			"byteLength":720,
			"byteOffset":50408,
			"target":34963
		}
	],
	"buffers":[
		{
			"byteLength":51128,
			"uri":"large_buildingB.bin"
		}
	]
}
