{
	"asset":{
		"generator":"Khronos glTF Blender I/O v4.1.62",
		"version":"2.0"
	},
	"scene":0,
	"scenes":[
		{
			"name":"Scene",
			"nodes":[
				0,
				2
			]
		}
	],
	"nodes":[
		{
			"mesh":0,
			"name":"COL01",
			"scale":[
				0.6500003337860107,
				2.489999771118164,
				0.6500003337860107
			],
			"translation":[
				0,
				1.9799998998641968,
				0
			]
		},
		{
			"mesh":1,
			"name":"skyscraperB"
		},
		{
			"children":[
				1
			],
			"name":"tmpParent"
		}
	],
	"materials":[
		{
			"name":"trim.001",
			"pbrMetallicRoughness":{
				"baseColorFactor":[
					0.7372549176216125,
					0.886274516582489,
					1,
					1
				]
			}
		},
		{
			"name":"border.001",
			"pbrMetallicRoughness":{
				"baseColorFactor":[
					0.5607843399047852,
					0.5686274766921997,
					0.6000000238418579,
					1
				]
			}
		},
		{
			"name":"_defaultMat.001",
			"pbrMetallicRoughness":{
				"baseColorFactor":[
					0.7641509771347046,
					0.7641509771347046,
					0.7641509771347046,
					1
				]
			}
		},
		{
			"name":"door.001",
			"pbrMetallicRoughness":{
				"baseColorFactor":[
					0.38823530077934265,
					0.4000000059604645,
					0.4470588266849518,
					1
				]
			}
		},
		{
			"name":"window.001",
			"pbrMetallicRoughness":{
				"baseColorFactor":[
					0.7372549176216125,
					0.886274516582489,
					1,
					1
				]
			}
		}
	],
	"meshes":[
		{
			"name":"\u7acb\u65b9\u4f53",
			"primitives":[
				{
					"attributes":{
						"POSITION":0,
						"NORMAL":1,
						"TEXCOORD_0":2
					},
					"indices":3
				}
			]
		},
		{
			"name":"Mesh skyscraperB",
			"primitives":[
				{
					"attributes":{
						"POSITION":4,
						"NORMAL":5,
						"TEXCOORD_0":6
					},
					"indices":7,
					"material":0
				},
				{
					"attributes":{
						"POSITION":8,
						"NORMAL":9,
						"TEXCOORD_0":10
					},
					"indices":11,
					"material":1
				},
				{
					"attributes":{
						"POSITION":12,
						"NORMAL":13,
						"TEXCOORD_0":14
					},
					"indices":15,
					"material":2
				},
				{
					"attributes":{
						"POSITION":16,
						"NORMAL":17,
						"TEXCOORD_0":18
					},
					"indices":19,
					"material":3
				},
				{
					"attributes":{
						"POSITION":20,
						"NORMAL":21,
						"TEXCOORD_0":22
					},
					"indices":23,
					"material":4
				}
			]
		}
	],
	"accessors":[
		{
			"bufferView":0,
			"componentType":5126,
			"count":24,
			"max":[
				1,
				1,
				1
			],
			"min":[
				-1,
				-0.785822331905365,
				-1
			],
			"type":"VEC3"
		},
		{
			"bufferView":1,
			"componentType":5126,
			"count":24,
			"type":"VEC3"
		},
		{
			"bufferView":2,
			"componentType":5126,
			"count":24,
			"type":"VEC2"
		},
		{
			"bufferView":3,
			"componentType":5123,
			"count":36,
			"type":"SCALAR"
		},
		{
			"bufferView":4,
			"componentType":5126,
			"count":186,
			"max":[
				0.6000000238418579,
				4.267699718475342,
				0.6000000238418579
			],
			"min":[
				-0.6000000238418579,
				0.9323005676269531,
				-0.6000000238418579
			],
			"type":"VEC3"
		},
		{
			"bufferView":5,
			"componentType":5126,
			"count":186,
			"type":"VEC3"
		},
		{
			"bufferView":6,
			"componentType":5126,
			"count":186,
			"type":"VEC2"
		},
		{
			"bufferView":7,
			"componentType":5123,
			"count":672,
			"type":"SCALAR"
		},
		{
			"bufferView":8,
			"componentType":5126,
			"count":435,
			"max":[
				0.6200000047683716,
				4.480000019073486,
				0.6200000047683716
			],
			"min":[
				-0.6200000047683716,
				-1.6362507342514723e-16,
				-0.6200000047683716
			],
			"type":"VEC3"
		},
		{
			"bufferView":9,
			"componentType":5126,
			"count":435,
			"type":"VEC3"
		},
		{
			"bufferView":10,
			"componentType":5126,
			"count":435,
			"type":"VEC2"
		},
		{
			"bufferView":11,
			"componentType":5123,
			"count":858,
			"type":"SCALAR"
		},
		{
			"bufferView":12,
			"componentType":5126,
			"count":184,
			"max":[
				0.6000000238418579,
				4.400000095367432,
				0.6000000238418579
			],
			"min":[
				-0.6000000238418579,
				0.4000000059604645,
				-0.6000000238418579
			],
			"type":"VEC3"
		},
		{
			"bufferView":13,
			"componentType":5126,
			"count":184,
			"type":"VEC3"
		},
		{
			"bufferView":14,
			"componentType":5126,
			"count":184,
			"type":"VEC2"
		},
		{
			"bufferView":15,
			"componentType":5123,
			"count":192,
			"type":"SCALAR"
		},
		{
			"bufferView":16,
			"componentType":5126,
			"count":84,
			"max":[
				0.6000000238418579,
				4.400000095367432,
				0.6000000238418579
			],
			"min":[
				-0.6000000238418579,
				1.6852775968085923e-17,
				-0.6000000238418579
			],
			"type":"VEC3"
		},
		{
			"bufferView":17,
			"componentType":5126,
			"count":84,
			"type":"VEC3"
		},
		{
			"bufferView":18,
			"componentType":5126,
			"count":84,
			"type":"VEC2"
		},
		{
			"bufferView":19,
			"componentType":5123,
			"count":228,
			"type":"SCALAR"
		},
		{
			"bufferView":20,
			"componentType":5126,
			"count":164,
			"max":[
				0.6000000238418579,
				4.234623908996582,
				0.6000000238418579
			],
			"min":[
				-0.6000000238418579,
				0.019999999552965164,
				-0.6000000238418579
			],
			"type":"VEC3"
		},
		{
			"bufferView":21,
			"componentType":5126,
			"count":164,
			"type":"VEC3"
		},
		{
			"bufferView":22,
			"componentType":5126,
			"count":164,
			"type":"VEC2"
		},
		{
			"bufferView":23,
			"componentType":5123,
			"count":246,
			"type":"SCALAR"
		}
	],
	"bufferViews":[
		{
			"buffer":0,
			"byteLength":288,
			"byteOffset":0,
			"target":34962
		},
		{
			"buffer":0,
			"byteLength":288,
			"byteOffset":288,
			"target":34962
		},
		{
			"buffer":0,
			"byteLength":192,
			"byteOffset":576,
			"target":34962
		},
		{
			"buffer":0,
			"byteLength":72,
			"byteOffset":768,
			"target":34963
		},
		{
			"buffer":0,
			"byteLength":2232,
			"byteOffset":840,
			"target":34962
		},
		{
			"buffer":0,
			"byteLength":2232,
			"byteOffset":3072,
			"target":34962
		},
		{
			"buffer":0,
			"byteLength":1488,
			"byteOffset":5304,
			"target":34962
		},
		{
			"buffer":0,
			"byteLength":1344,
			"byteOffset":6792,
			"target":34963
		},
		{
			"buffer":0,
			"byteLength":5220,
			"byteOffset":8136,
			"target":34962
		},
		{
			"buffer":0,
			"byteLength":5220,
			"byteOffset":13356,
			"target":34962
		},
		{
			"buffer":0,
			"byteLength":3480,
			"byteOffset":18576,
			"target":34962
		},
		{
			"buffer":0,
			"byteLength":1716,
			"byteOffset":22056,
			"target":34963
		},
		{
			"buffer":0,
			"byteLength":2208,
			"byteOffset":23772,
			"target":34962
		},
		{
			"buffer":0,
			"byteLength":2208,
			"byteOffset":25980,
			"target":34962
		},
		{
			"buffer":0,
			"byteLength":1472,
			"byteOffset":28188,
			"target":34962
		},
		{
			"buffer":0,
			"byteLength":384,
			"byteOffset":29660,
			"target":34963
		},
		{
			"buffer":0,
			"byteLength":1008,
			"byteOffset":30044,
			"target":34962
		},
		{
			"buffer":0,
			"byteLength":1008,
			"byteOffset":31052,
			"target":34962
		},
		{
			"buffer":0,
			"byteLength":672,
			"byteOffset":32060,
			"target":34962
		},
		{
			"buffer":0,
			"byteLength":456,
			"byteOffset":32732,
			"target":34963
		},
		{
			"buffer":0,
			"byteLength":1968,
			"byteOffset":33188,
			"target":34962
		},
		{
			"buffer":0,
			"byteLength":1968,
			"byteOffset":35156,
			"target":34962
		},
		{
			"buffer":0,
			"byteLength":1312,
			"byteOffset":37124,
			"target":34962
		},
		{
			"buffer":0,
			"byteLength":492,
			"byteOffset":38436,
			"target":34963
		}
	],
	"buffers":[
		{
			"byteLength":38928,
			"uri":"skyscraperB.bin"
		}
	]
}
