{
	"asset":{
		"generator":"Khronos glTF Blender I/O v4.1.62",
		"version":"2.0"
	},
	"scene":0,
	"scenes":[
		{
			"name":"Scene",
			"nodes":[
				0,
				2
			]
		}
	],
	"nodes":[
		{
			"mesh":0,
			"name":"COL01",
			"scale":[
				1.0800000429153442,
				0.8799999952316284,
				0.6599999666213989
			],
			"translation":[
				0,
				0.8199999928474426,
				0
			]
		},
		{
			"mesh":1,
			"name":"large_buildingA"
		},
		{
			"children":[
				1
			],
			"name":"tmpParent.001"
		}
	],
	"materials":[
		{
			"name":"border.002",
			"pbrMetallicRoughness":{
				"baseColorFactor":[
					0.5607843399047852,
					0.5686274766921997,
					0.6000000238418579,
					1
				]
			}
		},
		{
			"name":"_defaultMat.002",
			"pbrMetallicRoughness":{
				"baseColorFactor":[
					0.7641509771347046,
					0.7641509771347046,
					0.7641509771347046,
					1
				]
			}
		},
		{
			"name":"window.002",
			"pbrMetallicRoughness":{
				"baseColorFactor":[
					0.7372549176216125,
					0.886274516582489,
					1,
					1
				]
			}
		},
		{
			"name":"door.002",
			"pbrMetallicRoughness":{
				"baseColorFactor":[
					0.38823530077934265,
					0.4000000059604645,
					0.4470588266849518,
					1
				]
			}
		}
	],
	"meshes":[
		{
			"name":"\u7acb\u65b9\u4f53",
			"primitives":[
				{
					"attributes":{
						"POSITION":0,
						"NORMAL":1,
						"TEXCOORD_0":2
					},
					"indices":3
				}
			]
		},
		{
			"name":"Mesh large_buildingA.001",
			"primitives":[
				{
					"attributes":{
						"POSITION":4,
						"NORMAL":5,
						"TEXCOORD_0":6
					},
					"indices":7,
					"material":0
				},
				{
					"attributes":{
						"POSITION":8,
						"NORMAL":9,
						"TEXCOORD_0":10
					},
					"indices":11,
					"material":1
				},
				{
					"attributes":{
						"POSITION":12,
						"NORMAL":13,
						"TEXCOORD_0":14
					},
					"indices":15,
					"material":2
				},
				{
					"attributes":{
						"POSITION":16,
						"NORMAL":17,
						"TEXCOORD_0":18
					},
					"indices":19,
					"material":3
				}
			]
		}
	],
	"accessors":[
		{
			"bufferView":0,
			"componentType":5126,
			"count":24,
			"max":[
				1,
				1,
				1
			],
			"min":[
				-1,
				-1,
				-1
			],
			"type":"VEC3"
		},
		{
			"bufferView":1,
			"componentType":5126,
			"count":24,
			"type":"VEC3"
		},
		{
			"bufferView":2,
			"componentType":5126,
			"count":24,
			"type":"VEC2"
		},
		{
			"bufferView":3,
			"componentType":5123,
			"count":36,
			"type":"SCALAR"
		},
		{
			"bufferView":4,
			"componentType":5126,
			"count":2168,
			"max":[
				1.0199999809265137,
				1.6799999475479126,
				0.6200000047683716
			],
			"min":[
				-1.0199999809265137,
				-5.639932896936113e-18,
				-0.6200000047683716
			],
			"type":"VEC3"
		},
		{
			"bufferView":5,
			"componentType":5126,
			"count":2168,
			"type":"VEC3"
		},
		{
			"bufferView":6,
			"componentType":5126,
			"count":2168,
			"type":"VEC2"
		},
		{
			"bufferView":7,
			"componentType":5123,
			"count":4452,
			"type":"SCALAR"
		},
		{
			"bufferView":8,
			"componentType":5126,
			"count":1366,
			"max":[
				1,
				1.600000023841858,
				0.6000000238418579
			],
			"min":[
				-1,
				0.05000000074505806,
				-0.6000000238418579
			],
			"type":"VEC3"
		},
		{
			"bufferView":9,
			"componentType":5126,
			"count":1366,
			"type":"VEC3"
		},
		{
			"bufferView":10,
			"componentType":5126,
			"count":1366,
			"type":"VEC2"
		},
		{
			"bufferView":11,
			"componentType":5123,
			"count":1386,
			"type":"SCALAR"
		},
		{
			"bufferView":12,
			"componentType":5126,
			"count":184,
			"max":[
				0.9799999594688416,
				1.4499999284744263,
				0.5799999833106995
			],
			"min":[
				-0.8499999642372131,
				0.019999999552965164,
				-0.5799999833106995
			],
			"type":"VEC3"
		},
		{
			"bufferView":13,
			"componentType":5126,
			"count":184,
			"type":"VEC3"
		},
		{
			"bufferView":14,
			"componentType":5126,
			"count":184,
			"type":"VEC2"
		},
		{
			"bufferView":15,
			"componentType":5123,
			"count":276,
			"type":"SCALAR"
		},
		{
			"bufferView":16,
			"componentType":5126,
			"count":458,
			"max":[
				0.9499999284744263,
				1.600000023841858,
				0.5799999833106995
			],
			"min":[
				-0.9499999284744263,
				1.7483792352733225e-16,
				-0.5799999833106995
			],
			"type":"VEC3"
		},
		{
			"bufferView":17,
			"componentType":5126,
			"count":458,
			"type":"VEC3"
		},
		{
			"bufferView":18,
			"componentType":5126,
			"count":458,
			"type":"VEC2"
		},
		{
			"bufferView":19,
			"componentType":5123,
			"count":978,
			"type":"SCALAR"
		}
	],
	"bufferViews":[
		{
			"buffer":0,
			"byteLength":288,
			"byteOffset":0,
			"target":34962
		},
		{
			"buffer":0,
			"byteLength":288,
			"byteOffset":288,
			"target":34962
		},
		{
			"buffer":0,
			"byteLength":192,
			"byteOffset":576,
			"target":34962
		},
		{
			"buffer":0,
			"byteLength":72,
			"byteOffset":768,
			"target":34963
		},
		{
			"buffer":0,
			"byteLength":26016,
			"byteOffset":840,
			"target":34962
		},
		{
			"buffer":0,
			"byteLength":26016,
			"byteOffset":26856,
			"target":34962
		},
		{
			"buffer":0,
			"byteLength":17344,
			"byteOffset":52872,
			"target":34962
		},
		{
			"buffer":0,
			"byteLength":8904,
			"byteOffset":70216,
			"target":34963
		},
		{
			"buffer":0,
			"byteLength":16392,
			"byteOffset":79120,
			"target":34962
		},
		{
			"buffer":0,
			"byteLength":16392,
			"byteOffset":95512,
			"target":34962
		},
		{
			"buffer":0,
			"byteLength":10928,
			"byteOffset":111904,
			"target":34962
		},
		{
			"buffer":0,
			"byteLength":2772,
			"byteOffset":122832,
			"target":34963
		},
		{
			"buffer":0,
			"byteLength":2208,
			"byteOffset":125604,
			"target":34962
		},
		{
			"buffer":0,
			"byteLength":2208,
			"byteOffset":127812,
			"target":34962
		},
		{
			"buffer":0,
			"byteLength":1472,
			"byteOffset":130020,
			"target":34962
		},
		{
			"buffer":0,
			"byteLength":552,
			"byteOffset":131492,
			"target":34963
		},
		{
			"buffer":0,
			"byteLength":5496,
			"byteOffset":132044,
			"target":34962
		},
		{
			"buffer":0,
			"byteLength":5496,
			"byteOffset":137540,
			"target":34962
		},
		{
			"buffer":0,
			"byteLength":3664,
			"byteOffset":143036,
			"target":34962
		},
		{
			"buffer":0,
			"byteLength":1956,
			"byteOffset":146700,
			"target":34963
		}
	],
	"buffers":[
		{
			"byteLength":148656,
			"uri":"large_buildingA.bin"
		}
	]
}
