{
	"asset":{
		"generator":"Khronos glTF Blender I/O v4.1.62",
		"version":"2.0"
	},
	"scene":0,
	"scenes":[
		{
			"name":"Scene",
			"nodes":[
				1
			]
		}
	],
	"nodes":[
		{
			"mesh":0,
			"name":"road_roundabout",
			"translation":[
				0,
				0,
				0.75
			]
		},
		{
			"children":[
				0
			],
			"name":"tmpParent"
		}
	],
	"materials":[
		{
			"name":"pavement.031",
			"pbrMetallicRoughness":{
				"baseColorFactor":[
					0.7568627595901489,
					0.7568627595901489,
					0.800000011920929,
					1
				]
			}
		},
		{
			"name":"asphalt.014",
			"pbrMetallicRoughness":{
				"baseColorFactor":[
					0.4313725531101227,
					0.45490196347236633,
					0.529411792755127,
					1
				]
			}
		},
		{
			"name":"line.012",
			"pbrMetallicRoughness":{
				"baseColorFactor":[
					0.5490196347236633,
					0.5764706134796143,
					0.6784313917160034,
					1
				]
			}
		},
		{
			"name":"asphaltEdge.014",
			"pbrMetallicRoughness":{
				"baseColorFactor":[
					0.32156863808631897,
					0.33725491166114807,
					0.3960784375667572,
					1
				]
			}
		}
	],
	"meshes":[
		{
			"name":"Mesh road_roundabout",
			"primitives":[
				{
					"attributes":{
						"POSITION":0,
						"NORMAL":1,
						"TEXCOORD_0":2
					},
					"indices":3,
					"material":0
				},
				{
					"attributes":{
						"POSITION":4,
						"NORMAL":5,
						"TEXCOORD_0":6
					},
					"indices":7,
					"material":1
				},
				{
					"attributes":{
						"POSITION":8,
						"NORMAL":9,
						"TEXCOORD_0":10
					},
					"indices":11,
					"material":2
				},
				{
					"attributes":{
						"POSITION":12,
						"NORMAL":13,
						"TEXCOORD_0":14
					},
					"indices":15,
					"material":3
				}
			]
		}
	],
	"accessors":[
		{
			"bufferView":0,
			"componentType":5126,
			"count":1006,
			"max":[
				1.5,
				0.019999999552965164,
				1.5
			],
			"min":[
				-1.5,
				0,
				-1.5
			],
			"type":"VEC3"
		},
		{
			"bufferView":1,
			"componentType":5126,
			"count":1006,
			"type":"VEC3"
		},
		{
			"bufferView":2,
			"componentType":5126,
			"count":1006,
			"type":"VEC2"
		},
		{
			"bufferView":3,
			"componentType":5123,
			"count":2130,
			"type":"SCALAR"
		},
		{
			"bufferView":4,
			"componentType":5126,
			"count":444,
			"max":[
				1.5,
				0.019999999552965164,
				1.5
			],
			"min":[
				-1.5,
				0,
				-1.5
			],
			"type":"VEC3"
		},
		{
			"bufferView":5,
			"componentType":5126,
			"count":444,
			"type":"VEC3"
		},
		{
			"bufferView":6,
			"componentType":5126,
			"count":444,
			"type":"VEC2"
		},
		{
			"bufferView":7,
			"componentType":5123,
			"count":1248,
			"type":"SCALAR"
		},
		{
			"bufferView":8,
			"componentType":5126,
			"count":292,
			"max":[
				1.5,
				0.009999999776482582,
				1.5
			],
			"min":[
				-1.5,
				0.009999999776482582,
				-1.5
			],
			"type":"VEC3"
		},
		{
			"bufferView":9,
			"componentType":5126,
			"count":292,
			"type":"VEC3"
		},
		{
			"bufferView":10,
			"componentType":5126,
			"count":292,
			"type":"VEC2"
		},
		{
			"bufferView":11,
			"componentType":5123,
			"count":900,
			"type":"SCALAR"
		},
		{
			"bufferView":12,
			"componentType":5126,
			"count":232,
			"max":[
				1.5,
				0.019999999552965164,
				1.5
			],
			"min":[
				-1.5,
				0,
				-1.5
			],
			"type":"VEC3"
		},
		{
			"bufferView":13,
			"componentType":5126,
			"count":232,
			"type":"VEC3"
		},
		{
			"bufferView":14,
			"componentType":5126,
			"count":232,
			"type":"VEC2"
		},
		{
			"bufferView":15,
			"componentType":5123,
			"count":630,
			"type":"SCALAR"
		}
	],
	"bufferViews":[
		{
			"buffer":0,
			"byteLength":12072,
			"byteOffset":0,
			"target":34962
		},
		{
			"buffer":0,
			"byteLength":12072,
			"byteOffset":12072,
			"target":34962
		},
		{
			"buffer":0,
			"byteLength":8048,
			"byteOffset":24144,
			"target":34962
		},
		{
			"buffer":0,
			"byteLength":4260,
			"byteOffset":32192,
			"target":34963
		},
		{
			"buffer":0,
			"byteLength":5328,
			"byteOffset":36452,
			"target":34962
		},
		{
			"buffer":0,
			"byteLength":5328,
			"byteOffset":41780,
			"target":34962
		},
		{
			"buffer":0,
			"byteLength":3552,
			"byteOffset":47108,
			"target":34962
		},
		{
			"buffer":0,
			"byteLength":2496,
			"byteOffset":50660,
			"target":34963
		},
		{
			"buffer":0,
			"byteLength":3504,
			"byteOffset":53156,
			"target":34962
		},
		{
			"buffer":0,
			"byteLength":3504,
			"byteOffset":56660,
			"target":34962
		},
		{
			"buffer":0,
			"byteLength":2336,
			"byteOffset":60164,
			"target":34962
		},
		{
			"buffer":0,
			"byteLength":1800,
			"byteOffset":62500,
			"target":34963
		},
		{
			"buffer":0,
			"byteLength":2784,
			"byteOffset":64300,
			"target":34962
		},
		{
			"buffer":0,
			"byteLength":2784,
			"byteOffset":67084,
			"target":34962
		},
		{
			"buffer":0,
			"byteLength":1856,
			"byteOffset":69868,
			"target":34962
		},
		{
			"buffer":0,
			"byteLength":1260,
			"byteOffset":71724,
			"target":34963
		}
	],
	"buffers":[
		{
			"byteLength":72984,
			"uri":"road_roundabout.bin"
		}
	]
}
