{
	"asset":{
		"generator":"Khronos glTF Blender I/O v4.1.62",
		"version":"2.0"
	},
	"scene":0,
	"scenes":[
		{
			"name":"Scene",
			"nodes":[
				1,
				2
			]
		}
	],
	"nodes":[
		{
			"mesh":0,
			"name":"small_buildingC"
		},
		{
			"children":[
				0
			],
			"name":"tmpParent.001"
		},
		{
			"mesh":1,
			"name":"COL01",
			"scale":[
				0.44000038504600525,
				1.2799999713897705,
				0.440000057220459
			]
		}
	],
	"materials":[
		{
			"name":"border.002",
			"pbrMetallicRoughness":{
				"baseColorFactor":[
					0.5607843399047852,
					0.5686274766921997,
					0.6000000238418579,
					1
				]
			}
		},
		{
			"name":"window.002",
			"pbrMetallicRoughness":{
				"baseColorFactor":[
					0.7372549176216125,
					0.886274516582489,
					1,
					1
				]
			}
		},
		{
			"name":"_defaultMat.002",
			"pbrMetallicRoughness":{
				"baseColorFactor":[
					0.7641509771347046,
					0.7641509771347046,
					0.7641509771347046,
					1
				]
			}
		},
		{
			"name":"door.002",
			"pbrMetallicRoughness":{
				"baseColorFactor":[
					0.38823530077934265,
					0.4000000059604645,
					0.4470588266849518,
					1
				]
			}
		}
	],
	"meshes":[
		{
			"name":"Mesh small_buildingC",
			"primitives":[
				{
					"attributes":{
						"POSITION":0,
						"NORMAL":1,
						"TEXCOORD_0":2
					},
					"indices":3,
					"material":0
				},
				{
					"attributes":{
						"POSITION":4,
						"NORMAL":5,
						"TEXCOORD_0":6
					},
					"indices":7,
					"material":1
				},
				{
					"attributes":{
						"POSITION":8,
						"NORMAL":9,
						"TEXCOORD_0":10
					},
					"indices":11,
					"material":2
				},
				{
					"attributes":{
						"POSITION":12,
						"NORMAL":13,
						"TEXCOORD_0":14
					},
					"indices":15,
					"material":3
				}
			]
		},
		{
			"name":"\u7acb\u65b9\u4f53.001",
			"primitives":[
				{
					"attributes":{
						"POSITION":16,
						"NORMAL":17,
						"TEXCOORD_0":18
					},
					"indices":19
				}
			]
		}
	],
	"accessors":[
		{
			"bufferView":0,
			"componentType":5126,
			"count":573,
			"max":[
				0.41999998688697815,
				1.2799999713897705,
				0.5199999809265137
			],
			"min":[
				-0.41999998688697815,
				0,
				-0.41999998688697815
			],
			"type":"VEC3"
		},
		{
			"bufferView":1,
			"componentType":5126,
			"count":573,
			"type":"VEC3"
		},
		{
			"bufferView":2,
			"componentType":5126,
			"count":573,
			"type":"VEC2"
		},
		{
			"bufferView":3,
			"componentType":5123,
			"count":1155,
			"type":"SCALAR"
		},
		{
			"bufferView":4,
			"componentType":5126,
			"count":44,
			"max":[
				0.3799999952316284,
				1.0499999523162842,
				0.48000001907348633
			],
			"min":[
				-0.25,
				0.019999999552965164,
				-0.3799999952316284
			],
			"type":"VEC3"
		},
		{
			"bufferView":5,
			"componentType":5126,
			"count":44,
			"type":"VEC3"
		},
		{
			"bufferView":6,
			"componentType":5126,
			"count":44,
			"type":"VEC2"
		},
		{
			"bufferView":7,
			"componentType":5123,
			"count":66,
			"type":"SCALAR"
		},
		{
			"bufferView":8,
			"componentType":5126,
			"count":220,
			"max":[
				0.4000000059604645,
				1.2000000476837158,
				0.5
			],
			"min":[
				-0.4000000059604645,
				0.44999998807907104,
				-0.4000000059604645
			],
			"type":"VEC3"
		},
		{
			"bufferView":9,
			"componentType":5126,
			"count":220,
			"type":"VEC3"
		},
		{
			"bufferView":10,
			"componentType":5126,
			"count":220,
			"type":"VEC2"
		},
		{
			"bufferView":11,
			"componentType":5123,
			"count":228,
			"type":"SCALAR"
		},
		{
			"bufferView":12,
			"componentType":5126,
			"count":97,
			"max":[
				0.4000000059604645,
				1.2000000476837158,
				0.5
			],
			"min":[
				-0.4000000059604645,
				0,
				-0.4000000059604645
			],
			"type":"VEC3"
		},
		{
			"bufferView":13,
			"componentType":5126,
			"count":97,
			"type":"VEC3"
		},
		{
			"bufferView":14,
			"componentType":5126,
			"count":97,
			"type":"VEC2"
		},
		{
			"bufferView":15,
			"componentType":5123,
			"count":201,
			"type":"SCALAR"
		},
		{
			"bufferView":16,
			"componentType":5126,
			"count":34,
			"max":[
				1,
				1,
				1.218794822692871
			],
			"min":[
				-1,
				0.0018279552459716797,
				-1
			],
			"type":"VEC3"
		},
		{
			"bufferView":17,
			"componentType":5126,
			"count":34,
			"type":"VEC3"
		},
		{
			"bufferView":18,
			"componentType":5126,
			"count":34,
			"type":"VEC2"
		},
		{
			"bufferView":19,
			"componentType":5123,
			"count":60,
			"type":"SCALAR"
		}
	],
	"bufferViews":[
		{
			"buffer":0,
			"byteLength":6876,
			"byteOffset":0,
			"target":34962
		},
		{
			"buffer":0,
			"byteLength":6876,
			"byteOffset":6876,
			"target":34962
		},
		{
			"buffer":0,
			"byteLength":4584,
			"byteOffset":13752,
			"target":34962
		},
		{
			"buffer":0,
			"byteLength":2310,
			"byteOffset":18336,
			"target":34963
		},
		{
			"buffer":0,
			"byteLength":528,
			"byteOffset":20648,
			"target":34962
		},
		{
			"buffer":0,
			"byteLength":528,
			"byteOffset":21176,
			"target":34962
		},
		{
			"buffer":0,
			"byteLength":352,
			"byteOffset":21704,
			"target":34962
		},
		{
			"buffer":0,
			"byteLength":132,
			"byteOffset":22056,
			"target":34963
		},
		{
			"buffer":0,
			"byteLength":2640,
			"byteOffset":22188,
			"target":34962
		},
		{
			"buffer":0,
			"byteLength":2640,
			"byteOffset":24828,
			"target":34962
		},
		{
			"buffer":0,
			"byteLength":1760,
			"byteOffset":27468,
			"target":34962
		},
		{
			"buffer":0,
			"byteLength":456,
			"byteOffset":29228,
			"target":34963
		},
		{
			"buffer":0,
			"byteLength":1164,
			"byteOffset":29684,
			"target":34962
		},
		{
			"buffer":0,
			"byteLength":1164,
			"byteOffset":30848,
			"target":34962
		},
		{
			"buffer":0,
			"byteLength":776,
			"byteOffset":32012,
			"target":34962
		},
		{
			"buffer":0,
			"byteLength":402,
			"byteOffset":32788,
			"target":34963
		},
		{
			"buffer":0,
			"byteLength":408,
			"byteOffset":33192,
			"target":34962
		},
		{
			"buffer":0,
			"byteLength":408,
			"byteOffset":33600,
			"target":34962
		},
		{
			"buffer":0,
			"byteLength":272,
			"byteOffset":34008,
			"target":34962
		},
		{
			"buffer":0,
			"byteLength":120,
			"byteOffset":34280,
			"target":34963
		}
	],
	"buffers":[
		{
			"byteLength":34400,
			"uri":"skyscraperC.bin"
		}
	]
}
