{
	"asset":{
		"generator":"Khronos glTF Blender I/O v4.1.62",
		"version":"2.0"
	},
	"scene":0,
	"scenes":[
		{
			"name":"Scene",
			"nodes":[
				0,
				2,
				3
			]
		}
	],
	"nodes":[
		{
			"mesh":0,
			"name":"COL01",
			"scale":[
				0.2749999761581421,
				0.25999993085861206,
				0.2800000011920929
			],
			"translation":[
				0,
				0.25000008940696716,
				0
			]
		},
		{
			"mesh":1,
			"name":"low_buildingB"
		},
		{
			"children":[
				1
			],
			"name":"tmpParent"
		},
		{
			"mesh":2,
			"name":"COL02",
			"scale":[
				0.2749999761581421,
				0.6499999165534973,
				0.2800000011920929
			],
			"translation":[
				0,
				0.8600001335144043,
				0
			]
		}
	],
	"materials":[
		{
			"name":"_defaultMat.011",
			"pbrMetallicRoughness":{
				"baseColorFactor":[
					0.7641509771347046,
					0.7641509771347046,
					0.7641509771347046,
					1
				]
			}
		},
		{
			"name":"border.011",
			"pbrMetallicRoughness":{
				"baseColorFactor":[
					0.5607843399047852,
					0.5686274766921997,
					0.6000000238418579,
					1
				]
			}
		}
	],
	"meshes":[
		{
			"name":"\u7acb\u65b9\u4f53",
			"primitives":[
				{
					"attributes":{
						"POSITION":0,
						"NORMAL":1,
						"TEXCOORD_0":2
					},
					"indices":3
				}
			]
		},
		{
			"name":"Mesh low_buildingB",
			"primitives":[
				{
					"attributes":{
						"POSITION":4,
						"NORMAL":5,
						"TEXCOORD_0":6
					},
					"indices":7,
					"material":0
				},
				{
					"attributes":{
						"POSITION":8,
						"NORMAL":9,
						"TEXCOORD_0":10
					},
					"indices":11,
					"material":1
				}
			]
		},
		{
			"name":"\u7acb\u65b9\u4f53.009",
			"primitives":[
				{
					"attributes":{
						"POSITION":12,
						"NORMAL":13,
						"TEXCOORD_0":14
					},
					"indices":15
				}
			]
		}
	],
	"accessors":[
		{
			"bufferView":0,
			"componentType":5126,
			"count":24,
			"max":[
				1,
				1,
				1
			],
			"min":[
				-1,
				-1,
				-1
			],
			"type":"VEC3"
		},
		{
			"bufferView":1,
			"componentType":5126,
			"count":24,
			"type":"VEC3"
		},
		{
			"bufferView":2,
			"componentType":5126,
			"count":24,
			"type":"VEC2"
		},
		{
			"bufferView":3,
			"componentType":5123,
			"count":36,
			"type":"SCALAR"
		},
		{
			"bufferView":4,
			"componentType":5126,
			"count":327,
			"max":[
				0.25,
				1.75,
				0.25
			],
			"min":[
				-0.25,
				0,
				-0.25
			],
			"type":"VEC3"
		},
		{
			"bufferView":5,
			"componentType":5126,
			"count":327,
			"type":"VEC3"
		},
		{
			"bufferView":6,
			"componentType":5126,
			"count":327,
			"type":"VEC2"
		},
		{
			"bufferView":7,
			"componentType":5123,
			"count":450,
			"type":"SCALAR"
		},
		{
			"bufferView":8,
			"componentType":5126,
			"count":20,
			"max":[
				0.20000000298023224,
				0.15000000596046448,
				0.20000000298023224
			],
			"min":[
				-0.20000000298023224,
				9.02389263509778e-17,
				-0.20000000298023224
			],
			"type":"VEC3"
		},
		{
			"bufferView":9,
			"componentType":5126,
			"count":20,
			"type":"VEC3"
		},
		{
			"bufferView":10,
			"componentType":5126,
			"count":20,
			"type":"VEC2"
		},
		{
			"bufferView":11,
			"componentType":5123,
			"count":30,
			"type":"SCALAR"
		},
		{
			"bufferView":12,
			"componentType":5126,
			"count":26,
			"max":[
				1,
				1,
				1
			],
			"min":[
				-1,
				-1,
				-1
			],
			"type":"VEC3"
		},
		{
			"bufferView":13,
			"componentType":5126,
			"count":26,
			"type":"VEC3"
		},
		{
			"bufferView":14,
			"componentType":5126,
			"count":26,
			"type":"VEC2"
		},
		{
			"bufferView":15,
			"componentType":5123,
			"count":42,
			"type":"SCALAR"
		}
	],
	"bufferViews":[
		{
			"buffer":0,
			"byteLength":288,
			"byteOffset":0,
			"target":34962
		},
		{
			"buffer":0,
			"byteLength":288,
			"byteOffset":288,
			"target":34962
		},
		{
			"buffer":0,
			"byteLength":192,
			"byteOffset":576,
			"target":34962
		},
		{
			"buffer":0,
			"byteLength":72,
			"byteOffset":768,
			"target":34963
		},
		{
			"buffer":0,
			"byteLength":3924,
			"byteOffset":840,
			"target":34962
		},
		{
			"buffer":0,
			"byteLength":3924,
			"byteOffset":4764,
			"target":34962
		},
		{
			"buffer":0,
			"byteLength":2616,
			"byteOffset":8688,
			"target":34962
		},
		{
			"buffer":0,
			"byteLength":900,
			"byteOffset":11304,
			"target":34963
		},
		{
			"buffer":0,
			"byteLength":240,
			"byteOffset":12204,
			"target":34962
		},
		{
			"buffer":0,
			"byteLength":240,
			"byteOffset":12444,
			"target":34962
		},
		{
			"buffer":0,
			"byteLength":160,
			"byteOffset":12684,
			"target":34962
		},
		{
			"buffer":0,
			"byteLength":60,
			"byteOffset":12844,
			"target":34963
		},
		{
			"buffer":0,
			"byteLength":312,
			"byteOffset":12904,
			"target":34962
		},
		{
			"buffer":0,
			"byteLength":312,
			"byteOffset":13216,
			"target":34962
		},
		{
			"buffer":0,
			"byteLength":208,
			"byteOffset":13528,
			"target":34962
		},
		{
			"buffer":0,
			"byteLength":84,
			"byteOffset":13736,
			"target":34963
		}
	],
	"buffers":[
		{
			"byteLength":13820,
			"uri":"low_buildingB.bin"
		}
	]
}
