{
	"asset":{
		"generator":"Khronos glTF Blender I/O v4.1.62",
		"version":"2.0"
	},
	"scene":0,
	"scenes":[
		{
			"name":"Scene",
			"nodes":[
				1
			]
		}
	],
	"nodes":[
		{
			"mesh":0,
			"name":"road_curveBarrier",
			"translation":[
				0,
				0,
				0.75
			]
		},
		{
			"children":[
				0
			],
			"name":"tmpParent"
		}
	],
	"materials":[
		{
			"name":"pavement.050",
			"pbrMetallicRoughness":{
				"baseColorFactor":[
					0.7568627595901489,
					0.7568627595901489,
					0.800000011920929,
					1
				]
			}
		}
	],
	"meshes":[
		{
			"name":"Mesh road_curveBarrier.001",
			"primitives":[
				{
					"attributes":{
						"POSITION":0,
						"NORMAL":1,
						"TEXCOORD_0":2
					},
					"indices":3,
					"material":0
				}
			]
		}
	],
	"accessors":[
		{
			"bufferView":0,
			"componentType":5126,
			"count":312,
			"max":[
				1,
				0.07999999821186066,
				1
			],
			"min":[
				-1,
				0,
				-1
			],
			"type":"VEC3"
		},
		{
			"bufferView":1,
			"componentType":5126,
			"count":312,
			"type":"VEC3"
		},
		{
			"bufferView":2,
			"componentType":5126,
			"count":312,
			"type":"VEC2"
		},
		{
			"bufferView":3,
			"componentType":5123,
			"count":600,
			"type":"SCALAR"
		}
	],
	"bufferViews":[
		{
			"buffer":0,
			"byteLength":3744,
			"byteOffset":0,
			"target":34962
		},
		{
			"buffer":0,
			"byteLength":3744,
			"byteOffset":3744,
			"target":34962
		},
		{
			"buffer":0,
			"byteLength":2496,
			"byteOffset":7488,
			"target":34962
		},
		{
			"buffer":0,
			"byteLength":1200,
			"byteOffset":9984,
			"target":34963
		}
	],
	"buffers":[
		{
			"byteLength":11184,
			"uri":"road_curveBarrier.bin"
		}
	]
}
