{
	"asset":{
		"generator":"Khronos glTF Blender I/O v4.1.62",
		"version":"2.0"
	},
	"scene":0,
	"scenes":[
		{
			"name":"Scene",
			"nodes":[
				1
			]
		}
	],
	"nodes":[
		{
			"mesh":0,
			"name":"road_split",
			"translation":[
				0,
				0,
				0.75
			]
		},
		{
			"children":[
				0
			],
			"name":"tmpParent"
		}
	],
	"materials":[
		{
			"name":"pavement.011",
			"pbrMetallicRoughness":{
				"baseColorFactor":[
					0.7568627595901489,
					0.7568627595901489,
					0.800000011920929,
					1
				]
			}
		},
		{
			"name":"asphalt.003",
			"pbrMetallicRoughness":{
				"baseColorFactor":[
					0.4313725531101227,
					0.45490196347236633,
					0.529411792755127,
					1
				]
			}
		},
		{
			"name":"asphaltEdge.003",
			"pbrMetallicRoughness":{
				"baseColorFactor":[
					0.32156863808631897,
					0.33725491166114807,
					0.3960784375667572,
					1
				]
			}
		},
		{
			"name":"line.001",
			"pbrMetallicRoughness":{
				"baseColorFactor":[
					0.5490196347236633,
					0.5764706134796143,
					0.6784313917160034,
					1
				]
			}
		}
	],
	"meshes":[
		{
			"name":"Mesh road_split",
			"primitives":[
				{
					"attributes":{
						"POSITION":0,
						"NORMAL":1,
						"TEXCOORD_0":2
					},
					"indices":3,
					"material":0
				},
				{
					"attributes":{
						"POSITION":4,
						"NORMAL":5,
						"TEXCOORD_0":6
					},
					"indices":7,
					"material":1
				},
				{
					"attributes":{
						"POSITION":8,
						"NORMAL":9,
						"TEXCOORD_0":10
					},
					"indices":11,
					"material":2
				},
				{
					"attributes":{
						"POSITION":12,
						"NORMAL":13,
						"TEXCOORD_0":14
					},
					"indices":15,
					"material":3
				}
			]
		}
	],
	"accessors":[
		{
			"bufferView":0,
			"componentType":5126,
			"count":653,
			"max":[
				0.5,
				0.019999999552965164,
				1
			],
			"min":[
				-0.5,
				0,
				-1
			],
			"type":"VEC3"
		},
		{
			"bufferView":1,
			"componentType":5126,
			"count":653,
			"type":"VEC3"
		},
		{
			"bufferView":2,
			"componentType":5126,
			"count":653,
			"type":"VEC2"
		},
		{
			"bufferView":3,
			"componentType":5123,
			"count":1269,
			"type":"SCALAR"
		},
		{
			"bufferView":4,
			"componentType":5126,
			"count":209,
			"max":[
				0.5,
				0.019999999552965164,
				1
			],
			"min":[
				-0.5,
				0,
				-1
			],
			"type":"VEC3"
		},
		{
			"bufferView":5,
			"componentType":5126,
			"count":209,
			"type":"VEC3"
		},
		{
			"bufferView":6,
			"componentType":5126,
			"count":209,
			"type":"VEC2"
		},
		{
			"bufferView":7,
			"componentType":5123,
			"count":597,
			"type":"SCALAR"
		},
		{
			"bufferView":8,
			"componentType":5126,
			"count":141,
			"max":[
				0.5,
				0.009999999776482582,
				0.8999999761581421
			],
			"min":[
				-0.5,
				0.009999999776482582,
				-0.8996320962905884
			],
			"type":"VEC3"
		},
		{
			"bufferView":9,
			"componentType":5126,
			"count":141,
			"type":"VEC3"
		},
		{
			"bufferView":10,
			"componentType":5126,
			"count":141,
			"type":"VEC2"
		},
		{
			"bufferView":11,
			"componentType":5123,
			"count":405,
			"type":"SCALAR"
		},
		{
			"bufferView":12,
			"componentType":5126,
			"count":107,
			"max":[
				0.5,
				0.009999999776482582,
				0.5099999904632568
			],
			"min":[
				-0.5,
				0.009999999776482582,
				-0.5099999904632568
			],
			"type":"VEC3"
		},
		{
			"bufferView":13,
			"componentType":5126,
			"count":107,
			"type":"VEC3"
		},
		{
			"bufferView":14,
			"componentType":5126,
			"count":107,
			"type":"VEC2"
		},
		{
			"bufferView":15,
			"componentType":5123,
			"count":315,
			"type":"SCALAR"
		}
	],
	"bufferViews":[
		{
			"buffer":0,
			"byteLength":7836,
			"byteOffset":0,
			"target":34962
		},
		{
			"buffer":0,
			"byteLength":7836,
			"byteOffset":7836,
			"target":34962
		},
		{
			"buffer":0,
			"byteLength":5224,
			"byteOffset":15672,
			"target":34962
		},
		{
			"buffer":0,
			"byteLength":2538,
			"byteOffset":20896,
			"target":34963
		},
		{
			"buffer":0,
			"byteLength":2508,
			"byteOffset":23436,
			"target":34962
		},
		{
			"buffer":0,
			"byteLength":2508,
			"byteOffset":25944,
			"target":34962
		},
		{
			"buffer":0,
			"byteLength":1672,
			"byteOffset":28452,
			"target":34962
		},
		{
			"buffer":0,
			"byteLength":1194,
			"byteOffset":30124,
			"target":34963
		},
		{
			"buffer":0,
			"byteLength":1692,
			"byteOffset":31320,
			"target":34962
		},
		{
			"buffer":0,
			"byteLength":1692,
			"byteOffset":33012,
			"target":34962
		},
		{
			"buffer":0,
			"byteLength":1128,
			"byteOffset":34704,
			"target":34962
		},
		{
			"buffer":0,
			"byteLength":810,
			"byteOffset":35832,
			"target":34963
		},
		{
			"buffer":0,
			"byteLength":1284,
			"byteOffset":36644,
			"target":34962
		},
		{
			"buffer":0,
			"byteLength":1284,
			"byteOffset":37928,
			"target":34962
		},
		{
			"buffer":0,
			"byteLength":856,
			"byteOffset":39212,
			"target":34962
		},
		{
			"buffer":0,
			"byteLength":630,
			"byteOffset":40068,
			"target":34963
		}
	],
	"buffers":[
		{
			"byteLength":40700,
			"uri":"road_split.bin"
		}
	]
}
