{
	"asset":{
		"generator":"Khronos glTF Blender I/O v4.1.62",
		"version":"2.0"
	},
	"scene":0,
	"scenes":[
		{
			"name":"Scene",
			"nodes":[
				0,
				2,
				3
			]
		}
	],
	"nodes":[
		{
			"mesh":0,
			"name":"COL01",
			"scale":[
				0.2749999761581421,
				0.49999991059303284,
				0.2800000011920929
			],
			"translation":[
				0,
				0.5100001096725464,
				0
			]
		},
		{
			"mesh":1,
			"name":"low_buildingC"
		},
		{
			"children":[
				1
			],
			"name":"tmpParent"
		},
		{
			"mesh":2,
			"name":"COL02",
			"scale":[
				0.16499994695186615,
				0.5099999308586121,
				0.15999998152256012
			],
			"translation":[
				0,
				1.4500000476837158,
				0
			]
		}
	],
	"materials":[
		{
			"name":"_defaultMat.012",
			"pbrMetallicRoughness":{
				"baseColorFactor":[
					0.7641509771347046,
					0.7641509771347046,
					0.7641509771347046,
					1
				]
			}
		},
		{
			"name":"border.012",
			"pbrMetallicRoughness":{
				"baseColorFactor":[
					0.5607843399047852,
					0.5686274766921997,
					0.6000000238418579,
					1
				]
			}
		}
	],
	"meshes":[
		{
			"name":"\u7acb\u65b9\u4f53",
			"primitives":[
				{
					"attributes":{
						"POSITION":0,
						"NORMAL":1,
						"TEXCOORD_0":2
					},
					"indices":3
				}
			]
		},
		{
			"name":"Mesh low_buildingC",
			"primitives":[
				{
					"attributes":{
						"POSITION":4,
						"NORMAL":5,
						"TEXCOORD_0":6
					},
					"indices":7,
					"material":0
				},
				{
					"attributes":{
						"POSITION":8,
						"NORMAL":9,
						"TEXCOORD_0":10
					},
					"indices":11,
					"material":1
				}
			]
		},
		{
			"name":"\u7acb\u65b9\u4f53.010",
			"primitives":[
				{
					"attributes":{
						"POSITION":12,
						"NORMAL":13,
						"TEXCOORD_0":14
					},
					"indices":3
				}
			]
		}
	],
	"accessors":[
		{
			"bufferView":0,
			"componentType":5126,
			"count":24,
			"max":[
				1,
				1,
				1
			],
			"min":[
				-1,
				-1,
				-1
			],
			"type":"VEC3"
		},
		{
			"bufferView":1,
			"componentType":5126,
			"count":24,
			"type":"VEC3"
		},
		{
			"bufferView":2,
			"componentType":5126,
			"count":24,
			"type":"VEC2"
		},
		{
			"bufferView":3,
			"componentType":5123,
			"count":36,
			"type":"SCALAR"
		},
		{
			"bufferView":4,
			"componentType":5126,
			"count":435,
			"max":[
				0.25,
				2.2249999046325684,
				0.25
			],
			"min":[
				-0.25,
				0,
				-0.25
			],
			"type":"VEC3"
		},
		{
			"bufferView":5,
			"componentType":5126,
			"count":435,
			"type":"VEC3"
		},
		{
			"bufferView":6,
			"componentType":5126,
			"count":435,
			"type":"VEC2"
		},
		{
			"bufferView":7,
			"componentType":5123,
			"count":438,
			"type":"SCALAR"
		},
		{
			"bufferView":8,
			"componentType":5126,
			"count":52,
			"max":[
				0.20000000298023224,
				1.9249999523162842,
				0.20000000298023224
			],
			"min":[
				-0.20000000298023224,
				9.02389263509778e-17,
				-0.20000000298023224
			],
			"type":"VEC3"
		},
		{
			"bufferView":9,
			"componentType":5126,
			"count":52,
			"type":"VEC3"
		},
		{
			"bufferView":10,
			"componentType":5126,
			"count":52,
			"type":"VEC2"
		},
		{
			"bufferView":11,
			"componentType":5123,
			"count":102,
			"type":"SCALAR"
		},
		{
			"bufferView":12,
			"componentType":5126,
			"count":24,
			"max":[
				1,
				1,
				1
			],
			"min":[
				-1,
				-1,
				-1
			],
			"type":"VEC3"
		},
		{
			"bufferView":13,
			"componentType":5126,
			"count":24,
			"type":"VEC3"
		},
		{
			"bufferView":14,
			"componentType":5126,
			"count":24,
			"type":"VEC2"
		}
	],
	"bufferViews":[
		{
			"buffer":0,
			"byteLength":288,
			"byteOffset":0,
			"target":34962
		},
		{
			"buffer":0,
			"byteLength":288,
			"byteOffset":288,
			"target":34962
		},
		{
			"buffer":0,
			"byteLength":192,
			"byteOffset":576,
			"target":34962
		},
		{
			"buffer":0,
			"byteLength":72,
			"byteOffset":768,
			"target":34963
		},
		{
			"buffer":0,
			"byteLength":5220,
			"byteOffset":840,
			"target":34962
		},
		{
			"buffer":0,
			"byteLength":5220,
			"byteOffset":6060,
			"target":34962
		},
		{
			"buffer":0,
			"byteLength":3480,
			"byteOffset":11280,
			"target":34962
		},
		{
			"buffer":0,
			"byteLength":876,
			"byteOffset":14760,
			"target":34963
		},
		{
			"buffer":0,
			"byteLength":624,
			"byteOffset":15636,
			"target":34962
		},
		{
			"buffer":0,
			"byteLength":624,
			"byteOffset":16260,
			"target":34962
		},
		{
			"buffer":0,
			"byteLength":416,
			"byteOffset":16884,
			"target":34962
		},
		{
			"buffer":0,
			"byteLength":204,
			"byteOffset":17300,
			"target":34963
		},
		{
			"buffer":0,
			"byteLength":288,
			"byteOffset":17504,
			"target":34962
		},
		{
			"buffer":0,
			"byteLength":288,
			"byteOffset":17792,
			"target":34962
		},
		{
			"buffer":0,
			"byteLength":192,
			"byteOffset":18080,
			"target":34962
		}
	],
	"buffers":[
		{
			"byteLength":18272,
			"uri":"low_buildingC.bin"
		}
	]
}
