{
	"asset":{
		"generator":"Khronos glTF Blender I/O v4.1.62",
		"version":"2.0"
	},
	"scene":0,
	"scenes":[
		{
			"name":"Scene",
			"nodes":[
				1
			]
		}
	],
	"nodes":[
		{
			"mesh":0,
			"name":"road_curveIntersection",
			"translation":[
				0,
				0,
				0.75
			]
		},
		{
			"children":[
				0
			],
			"name":"tmpParent"
		}
	],
	"materials":[
		{
			"name":"pavement",
			"pbrMetallicRoughness":{
				"baseColorFactor":[
					0.7568627595901489,
					0.7568627595901489,
					0.800000011920929,
					1
				]
			}
		},
		{
			"name":"asphalt",
			"pbrMetallicRoughness":{
				"baseColorFactor":[
					0.4313725531101227,
					0.45490196347236633,
					0.529411792755127,
					1
				]
			}
		},
		{
			"name":"asphaltEdge",
			"pbrMetallicRoughness":{
				"baseColorFactor":[
					0.32156863808631897,
					0.33725491166114807,
					0.3960784375667572,
					1
				]
			}
		},
		{
			"name":"_defaultMat",
			"pbrMetallicRoughness":{
				"metallicFactor":0
			}
		},
		{
			"name":"line",
			"pbrMetallicRoughness":{
				"baseColorFactor":[
					0.5490196347236633,
					0.5764706134796143,
					0.6784313917160034,
					1
				]
			}
		}
	],
	"meshes":[
		{
			"name":"Mesh road_curveIntersection",
			"primitives":[
				{
					"attributes":{
						"POSITION":0,
						"NORMAL":1,
						"TEXCOORD_0":2
					},
					"indices":3,
					"material":0
				},
				{
					"attributes":{
						"POSITION":4,
						"NORMAL":5,
						"TEXCOORD_0":6
					},
					"indices":7,
					"material":1
				},
				{
					"attributes":{
						"POSITION":8,
						"NORMAL":9,
						"TEXCOORD_0":10
					},
					"indices":11,
					"material":2
				},
				{
					"attributes":{
						"POSITION":12,
						"NORMAL":13,
						"TEXCOORD_0":14
					},
					"indices":15,
					"material":3
				},
				{
					"attributes":{
						"POSITION":16,
						"NORMAL":17,
						"TEXCOORD_0":18
					},
					"indices":19,
					"material":4
				}
			]
		}
	],
	"accessors":[
		{
			"bufferView":0,
			"componentType":5126,
			"count":199,
			"max":[
				1,
				0.019999999552965164,
				1
			],
			"min":[
				-1,
				0,
				-1
			],
			"type":"VEC3"
		},
		{
			"bufferView":1,
			"componentType":5126,
			"count":199,
			"type":"VEC3"
		},
		{
			"bufferView":2,
			"componentType":5126,
			"count":199,
			"type":"VEC2"
		},
		{
			"bufferView":3,
			"componentType":5123,
			"count":351,
			"type":"SCALAR"
		},
		{
			"bufferView":4,
			"componentType":5126,
			"count":97,
			"max":[
				1,
				0.019999999552965164,
				1
			],
			"min":[
				-1,
				0,
				-1
			],
			"type":"VEC3"
		},
		{
			"bufferView":5,
			"componentType":5126,
			"count":97,
			"type":"VEC3"
		},
		{
			"bufferView":6,
			"componentType":5126,
			"count":97,
			"type":"VEC2"
		},
		{
			"bufferView":7,
			"componentType":5123,
			"count":255,
			"type":"SCALAR"
		},
		{
			"bufferView":8,
			"componentType":5126,
			"count":51,
			"max":[
				1,
				0.009999999776482582,
				0.8999999761581421
			],
			"min":[
				-1,
				0.009999999776482582,
				-1
			],
			"type":"VEC3"
		},
		{
			"bufferView":9,
			"componentType":5126,
			"count":51,
			"type":"VEC3"
		},
		{
			"bufferView":10,
			"componentType":5126,
			"count":51,
			"type":"VEC2"
		},
		{
			"bufferView":11,
			"componentType":5123,
			"count":135,
			"type":"SCALAR"
		},
		{
			"bufferView":12,
			"componentType":5126,
			"count":55,
			"max":[
				1,
				4.1171510768019082e-16,
				1
			],
			"min":[
				-1,
				0,
				-1
			],
			"type":"VEC3"
		},
		{
			"bufferView":13,
			"componentType":5126,
			"count":55,
			"type":"VEC3"
		},
		{
			"bufferView":14,
			"componentType":5126,
			"count":55,
			"type":"VEC2"
		},
		{
			"bufferView":15,
			"componentType":5123,
			"count":57,
			"type":"SCALAR"
		},
		{
			"bufferView":16,
			"componentType":5126,
			"count":34,
			"max":[
				1,
				0.009999999776482582,
				0.5099999904632568
			],
			"min":[
				-1,
				0.009999999776482582,
				-1
			],
			"type":"VEC3"
		},
		{
			"bufferView":17,
			"componentType":5126,
			"count":34,
			"type":"VEC3"
		},
		{
			"bufferView":18,
			"componentType":5126,
			"count":34,
			"type":"VEC2"
		},
		{
			"bufferView":19,
			"componentType":5123,
			"count":96,
			"type":"SCALAR"
		}
	],
	"bufferViews":[
		{
			"buffer":0,
			"byteLength":2388,
			"byteOffset":0,
			"target":34962
		},
		{
			"buffer":0,
			"byteLength":2388,
			"byteOffset":2388,
			"target":34962
		},
		{
			"buffer":0,
			"byteLength":1592,
			"byteOffset":4776,
			"target":34962
		},
		{
			"buffer":0,
			"byteLength":702,
			"byteOffset":6368,
			"target":34963
		},
		{
			"buffer":0,
			"byteLength":1164,
			"byteOffset":7072,
			"target":34962
		},
		{
			"buffer":0,
			"byteLength":1164,
			"byteOffset":8236,
			"target":34962
		},
		{
			"buffer":0,
			"byteLength":776,
			"byteOffset":9400,
			"target":34962
		},
		{
			"buffer":0,
			"byteLength":510,
			"byteOffset":10176,
			"target":34963
		},
		{
			"buffer":0,
			"byteLength":612,
			"byteOffset":10688,
			"target":34962
		},
		{
			"buffer":0,
			"byteLength":612,
			"byteOffset":11300,
			"target":34962
		},
		{
			"buffer":0,
			"byteLength":408,
			"byteOffset":11912,
			"target":34962
		},
		{
			"buffer":0,
			"byteLength":270,
			"byteOffset":12320,
			"target":34963
		},
		{
			"buffer":0,
			"byteLength":660,
			"byteOffset":12592,
			"target":34962
		},
		{
			"buffer":0,
			"byteLength":660,
			"byteOffset":13252,
			"target":34962
		},
		{
			"buffer":0,
			"byteLength":440,
			"byteOffset":13912,
			"target":34962
		},
		{
			"buffer":0,
			"byteLength":114,
			"byteOffset":14352,
			"target":34963
		},
		{
			"buffer":0,
			"byteLength":408,
			"byteOffset":14468,
			"target":34962
		},
		{
			"buffer":0,
			"byteLength":408,
			"byteOffset":14876,
			"target":34962
		},
		{
			"buffer":0,
			"byteLength":272,
			"byteOffset":15284,
			"target":34962
		},
		{
			"buffer":0,
			"byteLength":192,
			"byteOffset":15556,
			"target":34963
		}
	],
	"buffers":[
		{
			"byteLength":15748,
			"uri":"road_curveIntersection.bin"
		}
	]
}
