{
	"asset":{
		"generator":"Khronos glTF Blender I/O v4.1.62",
		"version":"2.0"
	},
	"scene":0,
	"scenes":[
		{
			"name":"Scene",
			"nodes":[
				1
			]
		}
	],
	"nodes":[
		{
			"mesh":0,
			"name":"road_slant",
			"translation":[
				0,
				0,
				0.75
			]
		},
		{
			"children":[
				0
			],
			"name":"tmpParent"
		}
	],
	"materials":[
		{
			"name":"pavement.022",
			"pbrMetallicRoughness":{
				"baseColorFactor":[
					0.7568627595901489,
					0.7568627595901489,
					0.800000011920929,
					1
				]
			}
		},
		{
			"name":"asphaltEdge.009",
			"pbrMetallicRoughness":{
				"baseColorFactor":[
					0.32156863808631897,
					0.33725491166114807,
					0.3960784375667572,
					1
				]
			}
		},
		{
			"name":"line.007",
			"pbrMetallicRoughness":{
				"baseColorFactor":[
					0.5490196347236633,
					0.5764706134796143,
					0.6784313917160034,
					1
				]
			}
		},
		{
			"name":"asphalt.009",
			"pbrMetallicRoughness":{
				"baseColorFactor":[
					0.4313725531101227,
					0.45490196347236633,
					0.529411792755127,
					1
				]
			}
		}
	],
	"meshes":[
		{
			"name":"Mesh road_slant",
			"primitives":[
				{
					"attributes":{
						"POSITION":0,
						"NORMAL":1,
						"TEXCOORD_0":2
					},
					"indices":3,
					"material":0
				},
				{
					"attributes":{
						"POSITION":4,
						"NORMAL":5,
						"TEXCOORD_0":6
					},
					"indices":7,
					"material":1
				},
				{
					"attributes":{
						"POSITION":8,
						"NORMAL":9,
						"TEXCOORD_0":10
					},
					"indices":11,
					"material":2
				},
				{
					"attributes":{
						"POSITION":12,
						"NORMAL":13,
						"TEXCOORD_0":14
					},
					"indices":15,
					"material":3
				}
			]
		}
	],
	"accessors":[
		{
			"bufferView":0,
			"componentType":5126,
			"count":52,
			"max":[
				0.5,
				0.26999998092651367,
				0.5
			],
			"min":[
				-0.5,
				0,
				-0.5
			],
			"type":"VEC3"
		},
		{
			"bufferView":1,
			"componentType":5126,
			"count":52,
			"type":"VEC3"
		},
		{
			"bufferView":2,
			"componentType":5126,
			"count":52,
			"type":"VEC2"
		},
		{
			"bufferView":3,
			"componentType":5123,
			"count":102,
			"type":"SCALAR"
		},
		{
			"bufferView":4,
			"componentType":5126,
			"count":8,
			"max":[
				0.5,
				0.25999999046325684,
				0.4000000059604645
			],
			"min":[
				-0.5,
				0.009999999776482582,
				-0.4000000059604645
			],
			"type":"VEC3"
		},
		{
			"bufferView":5,
			"componentType":5126,
			"count":8,
			"type":"VEC3"
		},
		{
			"bufferView":6,
			"componentType":5126,
			"count":8,
			"type":"VEC2"
		},
		{
			"bufferView":7,
			"componentType":5123,
			"count":12,
			"type":"SCALAR"
		},
		{
			"bufferView":8,
			"componentType":5126,
			"count":4,
			"max":[
				0.5,
				0.25999999046325684,
				0.009999999776482582
			],
			"min":[
				-0.5,
				0.009999999776482582,
				-0.009999999776482582
			],
			"type":"VEC3"
		},
		{
			"bufferView":9,
			"componentType":5126,
			"count":4,
			"type":"VEC3"
		},
		{
			"bufferView":10,
			"componentType":5126,
			"count":4,
			"type":"VEC2"
		},
		{
			"bufferView":11,
			"componentType":5123,
			"count":6,
			"type":"SCALAR"
		},
		{
			"bufferView":12,
			"componentType":5126,
			"count":8,
			"max":[
				0.5,
				0.25999999046325684,
				0.30000001192092896
			],
			"min":[
				-0.5,
				0.009999999776482582,
				-0.30000001192092896
			],
			"type":"VEC3"
		},
		{
			"bufferView":13,
			"componentType":5126,
			"count":8,
			"type":"VEC3"
		},
		{
			"bufferView":14,
			"componentType":5126,
			"count":8,
			"type":"VEC2"
		},
		{
			"bufferView":15,
			"componentType":5123,
			"count":12,
			"type":"SCALAR"
		}
	],
	"bufferViews":[
		{
			"buffer":0,
			"byteLength":624,
			"byteOffset":0,
			"target":34962
		},
		{
			"buffer":0,
			"byteLength":624,
			"byteOffset":624,
			"target":34962
		},
		{
			"buffer":0,
			"byteLength":416,
			"byteOffset":1248,
			"target":34962
		},
		{
			"buffer":0,
			"byteLength":204,
			"byteOffset":1664,
			"target":34963
		},
		{
			"buffer":0,
			"byteLength":96,
			"byteOffset":1868,
			"target":34962
		},
		{
			"buffer":0,
			"byteLength":96,
			"byteOffset":1964,
			"target":34962
		},
		{
			"buffer":0,
			"byteLength":64,
			"byteOffset":2060,
			"target":34962
		},
		{
			"buffer":0,
			"byteLength":24,
			"byteOffset":2124,
			"target":34963
		},
		{
			"buffer":0,
			"byteLength":48,
			"byteOffset":2148,
			"target":34962
		},
		{
			"buffer":0,
			"byteLength":48,
			"byteOffset":2196,
			"target":34962
		},
		{
			"buffer":0,
			"byteLength":32,
			"byteOffset":2244,
			"target":34962
		},
		{
			"buffer":0,
			"byteLength":12,
			"byteOffset":2276,
			"target":34963
		},
		{
			"buffer":0,
			"byteLength":96,
			"byteOffset":2288,
			"target":34962
		},
		{
			"buffer":0,
			"byteLength":96,
			"byteOffset":2384,
			"target":34962
		},
		{
			"buffer":0,
			"byteLength":64,
			"byteOffset":2480,
			"target":34962
		},
		{
			"buffer":0,
			"byteLength":24,
			"byteOffset":2544,
			"target":34963
		}
	],
	"buffers":[
		{
			"byteLength":2568,
			"uri":"road_slant.bin"
		}
	]
}
