{
	"asset":{
		"generator":"Khronos glTF Blender I/O v4.1.62",
		"version":"2.0"
	},
	"scene":0,
	"scenes":[
		{
			"name":"Scene",
			"nodes":[
				1
			]
		}
	],
	"nodes":[
		{
			"mesh":0,
			"name":"road_bridge",
			"translation":[
				0,
				0,
				0.75
			]
		},
		{
			"children":[
				0
			],
			"name":"tmpParent"
		}
	],
	"materials":[
		{
			"name":"line.026",
			"pbrMetallicRoughness":{
				"baseColorFactor":[
					0.5490196347236633,
					0.5764706134796143,
					0.6784313917160034,
					1
				]
			}
		},
		{
			"name":"asphalt.028",
			"pbrMetallicRoughness":{
				"baseColorFactor":[
					0.4313725531101227,
					0.45490196347236633,
					0.529411792755127,
					1
				]
			}
		},
		{
			"name":"pavement.054",
			"pbrMetallicRoughness":{
				"baseColorFactor":[
					0.7568627595901489,
					0.7568627595901489,
					0.800000011920929,
					1
				]
			}
		},
		{
			"name":"asphaltEdge.028",
			"pbrMetallicRoughness":{
				"baseColorFactor":[
					0.32156863808631897,
					0.33725491166114807,
					0.3960784375667572,
					1
				]
			}
		}
	],
	"meshes":[
		{
			"name":"Mesh road_bridge",
			"primitives":[
				{
					"attributes":{
						"POSITION":0,
						"NORMAL":1,
						"TEXCOORD_0":2
					},
					"indices":3,
					"material":0
				},
				{
					"attributes":{
						"POSITION":4,
						"NORMAL":5,
						"TEXCOORD_0":6
					},
					"indices":7,
					"material":1
				},
				{
					"attributes":{
						"POSITION":8,
						"NORMAL":9,
						"TEXCOORD_0":10
					},
					"indices":11,
					"material":2
				},
				{
					"attributes":{
						"POSITION":12,
						"NORMAL":13,
						"TEXCOORD_0":14
					},
					"indices":15,
					"material":3
				}
			]
		}
	],
	"accessors":[
		{
			"bufferView":0,
			"componentType":5126,
			"count":8,
			"max":[
				0.5,
				0.5099999904632568,
				0.5
			],
			"min":[
				-0.5,
				0.009999999776482582,
				-0.5
			],
			"type":"VEC3"
		},
		{
			"bufferView":1,
			"componentType":5126,
			"count":8,
			"type":"VEC3"
		},
		{
			"bufferView":2,
			"componentType":5126,
			"count":8,
			"type":"VEC2"
		},
		{
			"bufferView":3,
			"componentType":5123,
			"count":12,
			"type":"SCALAR"
		},
		{
			"bufferView":4,
			"componentType":5126,
			"count":316,
			"max":[
				0.5,
				0.5199999809265137,
				0.5
			],
			"min":[
				-0.5,
				0,
				-0.5
			],
			"type":"VEC3"
		},
		{
			"bufferView":5,
			"componentType":5126,
			"count":316,
			"type":"VEC3"
		},
		{
			"bufferView":6,
			"componentType":5126,
			"count":316,
			"type":"VEC2"
		},
		{
			"bufferView":7,
			"componentType":5123,
			"count":624,
			"type":"SCALAR"
		},
		{
			"bufferView":8,
			"componentType":5126,
			"count":144,
			"max":[
				0.5,
				0.5199999809265137,
				0.5
			],
			"min":[
				-0.5,
				0,
				-0.5
			],
			"type":"VEC3"
		},
		{
			"bufferView":9,
			"componentType":5126,
			"count":144,
			"type":"VEC3"
		},
		{
			"bufferView":10,
			"componentType":5126,
			"count":144,
			"type":"VEC2"
		},
		{
			"bufferView":11,
			"componentType":5123,
			"count":276,
			"type":"SCALAR"
		},
		{
			"bufferView":12,
			"componentType":5126,
			"count":16,
			"max":[
				0.5,
				0.5099999904632568,
				0.5
			],
			"min":[
				-0.5,
				0.009999999776482582,
				-0.5
			],
			"type":"VEC3"
		},
		{
			"bufferView":13,
			"componentType":5126,
			"count":16,
			"type":"VEC3"
		},
		{
			"bufferView":14,
			"componentType":5126,
			"count":16,
			"type":"VEC2"
		},
		{
			"bufferView":15,
			"componentType":5123,
			"count":24,
			"type":"SCALAR"
		}
	],
	"bufferViews":[
		{
			"buffer":0,
			"byteLength":96,
			"byteOffset":0,
			"target":34962
		},
		{
			"buffer":0,
			"byteLength":96,
			"byteOffset":96,
			"target":34962
		},
		{
			"buffer":0,
			"byteLength":64,
			"byteOffset":192,
			"target":34962
		},
		{
			"buffer":0,
			"byteLength":24,
			"byteOffset":256,
			"target":34963
		},
		{
			"buffer":0,
			"byteLength":3792,
			"byteOffset":280,
			"target":34962
		},
		{
			"buffer":0,
			"byteLength":3792,
			"byteOffset":4072,
			"target":34962
		},
		{
			"buffer":0,
			"byteLength":2528,
			"byteOffset":7864,
			"target":34962
		},
		{
			"buffer":0,
			"byteLength":1248,
			"byteOffset":10392,
			"target":34963
		},
		{
			"buffer":0,
			"byteLength":1728,
			"byteOffset":11640,
			"target":34962
		},
		{
			"buffer":0,
			"byteLength":1728,
			"byteOffset":13368,
			"target":34962
		},
		{
			"buffer":0,
			"byteLength":1152,
			"byteOffset":15096,
			"target":34962
		},
		{
			"buffer":0,
			"byteLength":552,
			"byteOffset":16248,
			"target":34963
		},
		{
			"buffer":0,
			"byteLength":192,
			"byteOffset":16800,
			"target":34962
		},
		{
			"buffer":0,
			"byteLength":192,
			"byteOffset":16992,
			"target":34962
		},
		{
			"buffer":0,
			"byteLength":128,
			"byteOffset":17184,
			"target":34962
		},
		{
			"buffer":0,
			"byteLength":48,
			"byteOffset":17312,
			"target":34963
		}
	],
	"buffers":[
		{
			"byteLength":17360,
			"uri":"road_bridge.bin"
		}
	]
}
