{
	"asset":{
		"generator":"Khronos glTF Blender I/O v4.1.62",
		"version":"2.0"
	},
	"scene":0,
	"scenes":[
		{
			"name":"Scene",
			"nodes":[
				0,
				2
			]
		}
	],
	"nodes":[
		{
			"mesh":0,
			"name":"COL01",
			"scale":[
				0.26499998569488525,
				1.0099998712539673,
				0.27000001072883606
			],
			"translation":[
				0,
				0.9999999403953552,
				0
			]
		},
		{
			"mesh":1,
			"name":"low_buildingE"
		},
		{
			"children":[
				1
			],
			"name":"tmpParent"
		}
	],
	"materials":[
		{
			"name":"_defaultMat.014",
			"pbrMetallicRoughness":{
				"baseColorFactor":[
					0.7641509771347046,
					0.7641509771347046,
					0.7641509771347046,
					1
				]
			}
		},
		{
			"name":"border.014",
			"pbrMetallicRoughness":{
				"baseColorFactor":[
					0.5607843399047852,
					0.5686274766921997,
					0.6000000238418579,
					1
				]
			}
		}
	],
	"meshes":[
		{
			"name":"\u7acb\u65b9\u4f53",
			"primitives":[
				{
					"attributes":{
						"POSITION":0,
						"NORMAL":1,
						"TEXCOORD_0":2
					},
					"indices":3
				}
			]
		},
		{
			"name":"Mesh low_buildingE",
			"primitives":[
				{
					"attributes":{
						"POSITION":4,
						"NORMAL":5,
						"TEXCOORD_0":6
					},
					"indices":7,
					"material":0
				},
				{
					"attributes":{
						"POSITION":8,
						"NORMAL":9,
						"TEXCOORD_0":10
					},
					"indices":11,
					"material":1
				}
			]
		}
	],
	"accessors":[
		{
			"bufferView":0,
			"componentType":5126,
			"count":24,
			"max":[
				1,
				1,
				1
			],
			"min":[
				-1,
				-1,
				-1
			],
			"type":"VEC3"
		},
		{
			"bufferView":1,
			"componentType":5126,
			"count":24,
			"type":"VEC3"
		},
		{
			"bufferView":2,
			"componentType":5126,
			"count":24,
			"type":"VEC2"
		},
		{
			"bufferView":3,
			"componentType":5123,
			"count":36,
			"type":"SCALAR"
		},
		{
			"bufferView":4,
			"componentType":5126,
			"count":202,
			"max":[
				0.25,
				2,
				0.25
			],
			"min":[
				-0.25,
				0,
				-0.25
			],
			"type":"VEC3"
		},
		{
			"bufferView":5,
			"componentType":5126,
			"count":202,
			"type":"VEC3"
		},
		{
			"bufferView":6,
			"componentType":5126,
			"count":202,
			"type":"VEC2"
		},
		{
			"bufferView":7,
			"componentType":5123,
			"count":222,
			"type":"SCALAR"
		},
		{
			"bufferView":8,
			"componentType":5126,
			"count":28,
			"max":[
				0.20000000298023224,
				1.9499999284744263,
				0.20000000298023224
			],
			"min":[
				-0.20000000298023224,
				0,
				-0.20000000298023224
			],
			"type":"VEC3"
		},
		{
			"bufferView":9,
			"componentType":5126,
			"count":28,
			"type":"VEC3"
		},
		{
			"bufferView":10,
			"componentType":5126,
			"count":28,
			"type":"VEC2"
		},
		{
			"bufferView":11,
			"componentType":5123,
			"count":54,
			"type":"SCALAR"
		}
	],
	"bufferViews":[
		{
			"buffer":0,
			"byteLength":288,
			"byteOffset":0,
			"target":34962
		},
		{
			"buffer":0,
			"byteLength":288,
			"byteOffset":288,
			"target":34962
		},
		{
			"buffer":0,
			"byteLength":192,
			"byteOffset":576,
			"target":34962
		},
		{
			"buffer":0,
			"byteLength":72,
			"byteOffset":768,
			"target":34963
		},
		{
			"buffer":0,
			"byteLength":2424,
			"byteOffset":840,
			"target":34962
		},
		{
			"buffer":0,
			"byteLength":2424,
			"byteOffset":3264,
			"target":34962
		},
		{
			"buffer":0,
			"byteLength":1616,
			"byteOffset":5688,
			"target":34962
		},
		{
			"buffer":0,
			"byteLength":444,
			"byteOffset":7304,
			"target":34963
		},
		{
			"buffer":0,
			"byteLength":336,
			"byteOffset":7748,
			"target":34962
		},
		{
			"buffer":0,
			"byteLength":336,
			"byteOffset":8084,
			"target":34962
		},
		{
			"buffer":0,
			"byteLength":224,
			"byteOffset":8420,
			"target":34962
		},
		{
			"buffer":0,
			"byteLength":108,
			"byteOffset":8644,
			"target":34963
		}
	],
	"buffers":[
		{
			"byteLength":8752,
			"uri":"low_buildingE.bin"
		}
	]
}
