{
	"asset":{
		"generator":"Khronos glTF Blender I/O v4.1.62",
		"version":"2.0"
	},
	"scene":0,
	"scenes":[
		{
			"name":"Scene",
			"nodes":[
				1
			]
		}
	],
	"nodes":[
		{
			"mesh":0,
			"name":"road_slantFlatCurve",
			"translation":[
				0,
				0,
				0.75
			]
		},
		{
			"children":[
				0
			],
			"name":"tmpParent"
		}
	],
	"materials":[
		{
			"name":"pavement.017",
			"pbrMetallicRoughness":{
				"baseColorFactor":[
					0.7568627595901489,
					0.7568627595901489,
					0.800000011920929,
					1
				]
			}
		},
		{
			"name":"asphalt.007",
			"pbrMetallicRoughness":{
				"baseColorFactor":[
					0.4313725531101227,
					0.45490196347236633,
					0.529411792755127,
					1
				]
			}
		},
		{
			"name":"asphaltEdge.007",
			"pbrMetallicRoughness":{
				"baseColorFactor":[
					0.32156863808631897,
					0.33725491166114807,
					0.3960784375667572,
					1
				]
			}
		},
		{
			"name":"_defaultMat",
			"pbrMetallicRoughness":{
				"metallicFactor":0
			}
		},
		{
			"name":"line.005",
			"pbrMetallicRoughness":{
				"baseColorFactor":[
					0.5490196347236633,
					0.5764706134796143,
					0.6784313917160034,
					1
				]
			}
		}
	],
	"meshes":[
		{
			"name":"Mesh road_slantFlatCurve",
			"primitives":[
				{
					"attributes":{
						"POSITION":0,
						"NORMAL":1,
						"TEXCOORD_0":2
					},
					"indices":3,
					"material":0
				},
				{
					"attributes":{
						"POSITION":4,
						"NORMAL":5,
						"TEXCOORD_0":6
					},
					"indices":7,
					"material":1
				},
				{
					"attributes":{
						"POSITION":8,
						"NORMAL":9,
						"TEXCOORD_0":10
					},
					"indices":11,
					"material":2
				},
				{
					"attributes":{
						"POSITION":12,
						"NORMAL":13,
						"TEXCOORD_0":14
					},
					"indices":15,
					"material":3
				},
				{
					"attributes":{
						"POSITION":16,
						"NORMAL":17,
						"TEXCOORD_0":18
					},
					"indices":19,
					"material":4
				}
			]
		}
	],
	"accessors":[
		{
			"bufferView":0,
			"componentType":5126,
			"count":530,
			"max":[
				1.00028395652771,
				0.5199999809265137,
				0.5
			],
			"min":[
				-0.9997159838676453,
				0,
				-0.5
			],
			"type":"VEC3"
		},
		{
			"bufferView":1,
			"componentType":5126,
			"count":530,
			"type":"VEC3"
		},
		{
			"bufferView":2,
			"componentType":5126,
			"count":530,
			"type":"VEC2"
		},
		{
			"bufferView":3,
			"componentType":5123,
			"count":1128,
			"type":"SCALAR"
		},
		{
			"bufferView":4,
			"componentType":5126,
			"count":212,
			"max":[
				1.00028395652771,
				0.5099999904632568,
				0.5
			],
			"min":[
				-0.9997159838676453,
				0,
				-0.5
			],
			"type":"VEC3"
		},
		{
			"bufferView":5,
			"componentType":5126,
			"count":212,
			"type":"VEC3"
		},
		{
			"bufferView":6,
			"componentType":5126,
			"count":212,
			"type":"VEC2"
		},
		{
			"bufferView":7,
			"componentType":5123,
			"count":342,
			"type":"SCALAR"
		},
		{
			"bufferView":8,
			"componentType":5126,
			"count":200,
			"max":[
				1.00028395652771,
				0.5099999904632568,
				0.4000000059604645
			],
			"min":[
				-0.9997159838676453,
				0.009999999776482582,
				-0.4000000059604645
			],
			"type":"VEC3"
		},
		{
			"bufferView":9,
			"componentType":5126,
			"count":200,
			"type":"VEC3"
		},
		{
			"bufferView":10,
			"componentType":5126,
			"count":200,
			"type":"VEC2"
		},
		{
			"bufferView":11,
			"componentType":5123,
			"count":312,
			"type":"SCALAR"
		},
		{
			"bufferView":12,
			"componentType":5126,
			"count":6,
			"max":[
				1.00028395652771,
				1.8448174159857444e-05,
				0.5
			],
			"min":[
				0.9996399283409119,
				0,
				-0.5
			],
			"type":"VEC3"
		},
		{
			"bufferView":13,
			"componentType":5126,
			"count":6,
			"type":"VEC3"
		},
		{
			"bufferView":14,
			"componentType":5126,
			"count":6,
			"type":"VEC2"
		},
		{
			"bufferView":15,
			"componentType":5123,
			"count":6,
			"type":"SCALAR"
		},
		{
			"bufferView":16,
			"componentType":5126,
			"count":100,
			"max":[
				1.00028395652771,
				0.5099999904632568,
				0.009999999776482582
			],
			"min":[
				-0.9997159838676453,
				0.009999999776482582,
				-0.009999999776482582
			],
			"type":"VEC3"
		},
		{
			"bufferView":17,
			"componentType":5126,
			"count":100,
			"type":"VEC3"
		},
		{
			"bufferView":18,
			"componentType":5126,
			"count":100,
			"type":"VEC2"
		},
		{
			"bufferView":19,
			"componentType":5123,
			"count":156,
			"type":"SCALAR"
		}
	],
	"bufferViews":[
		{
			"buffer":0,
			"byteLength":6360,
			"byteOffset":0,
			"target":34962
		},
		{
			"buffer":0,
			"byteLength":6360,
			"byteOffset":6360,
			"target":34962
		},
		{
			"buffer":0,
			"byteLength":4240,
			"byteOffset":12720,
			"target":34962
		},
		{
			"buffer":0,
			"byteLength":2256,
			"byteOffset":16960,
			"target":34963
		},
		{
			"buffer":0,
			"byteLength":2544,
			"byteOffset":19216,
			"target":34962
		},
		{
			"buffer":0,
			"byteLength":2544,
			"byteOffset":21760,
			"target":34962
		},
		{
			"buffer":0,
			"byteLength":1696,
			"byteOffset":24304,
			"target":34962
		},
		{
			"buffer":0,
			"byteLength":684,
			"byteOffset":26000,
			"target":34963
		},
		{
			"buffer":0,
			"byteLength":2400,
			"byteOffset":26684,
			"target":34962
		},
		{
			"buffer":0,
			"byteLength":2400,
			"byteOffset":29084,
			"target":34962
		},
		{
			"buffer":0,
			"byteLength":1600,
			"byteOffset":31484,
			"target":34962
		},
		{
			"buffer":0,
			"byteLength":624,
			"byteOffset":33084,
			"target":34963
		},
		{
			"buffer":0,
			"byteLength":72,
			"byteOffset":33708,
			"target":34962
		},
		{
			"buffer":0,
			"byteLength":72,
			"byteOffset":33780,
			"target":34962
		},
		{
			"buffer":0,
			"byteLength":48,
			"byteOffset":33852,
			"target":34962
		},
		{
			"buffer":0,
			"byteLength":12,
			"byteOffset":33900,
			"target":34963
		},
		{
			"buffer":0,
			"byteLength":1200,
			"byteOffset":33912,
			"target":34962
		},
		{
			"buffer":0,
			"byteLength":1200,
			"byteOffset":35112,
			"target":34962
		},
		{
			"buffer":0,
			"byteLength":800,
			"byteOffset":36312,
			"target":34962
		},
		{
			"buffer":0,
			"byteLength":312,
			"byteOffset":37112,
			"target":34963
		}
	],
	"buffers":[
		{
			"byteLength":37424,
			"uri":"road_slantFlatCurve.bin"
		}
	]
}
