{
	"asset":{
		"generator":"Khronos glTF Blender I/O v4.1.62",
		"version":"2.0"
	},
	"scene":0,
	"scenes":[
		{
			"name":"Scene",
			"nodes":[
				0,
				2
			]
		}
	],
	"nodes":[
		{
			"mesh":0,
			"name":"COL01",
			"scale":[
				0.26000022888183594,
				1.630000352859497,
				0.26000022888183594
			],
			"translation":[
				0,
				0.45999979972839355,
				0
			]
		},
		{
			"mesh":1,
			"name":"low_buildingN"
		},
		{
			"children":[
				1
			],
			"name":"tmpParent"
		}
	],
	"materials":[
		{
			"name":"_defaultMat.023",
			"pbrMetallicRoughness":{
				"baseColorFactor":[
					0.7641509771347046,
					0.7641509771347046,
					0.7641509771347046,
					1
				]
			}
		},
		{
			"name":"border.023",
			"pbrMetallicRoughness":{
				"baseColorFactor":[
					0.5607843399047852,
					0.5686274766921997,
					0.6000000238418579,
					1
				]
			}
		}
	],
	"meshes":[
		{
			"name":"\u7acb\u65b9\u4f53.015",
			"primitives":[
				{
					"attributes":{
						"POSITION":0,
						"NORMAL":1,
						"TEXCOORD_0":2
					},
					"indices":3
				}
			]
		},
		{
			"name":"Mesh low_buildingN",
			"primitives":[
				{
					"attributes":{
						"POSITION":4,
						"NORMAL":5,
						"TEXCOORD_0":6
					},
					"indices":7,
					"material":0
				},
				{
					"attributes":{
						"POSITION":8,
						"NORMAL":9,
						"TEXCOORD_0":10
					},
					"indices":11,
					"material":1
				}
			]
		}
	],
	"accessors":[
		{
			"bufferView":0,
			"componentType":5126,
			"count":24,
			"max":[
				1,
				1,
				1
			],
			"min":[
				-1,
				-0.28145402669906616,
				-1
			],
			"type":"VEC3"
		},
		{
			"bufferView":1,
			"componentType":5126,
			"count":24,
			"type":"VEC3"
		},
		{
			"bufferView":2,
			"componentType":5126,
			"count":24,
			"type":"VEC2"
		},
		{
			"bufferView":3,
			"componentType":5123,
			"count":36,
			"type":"SCALAR"
		},
		{
			"bufferView":4,
			"componentType":5126,
			"count":608,
			"max":[
				0.25,
				2.0999999046325684,
				0.25
			],
			"min":[
				-0.25,
				0,
				-0.25
			],
			"type":"VEC3"
		},
		{
			"bufferView":5,
			"componentType":5126,
			"count":608,
			"type":"VEC3"
		},
		{
			"bufferView":6,
			"componentType":5126,
			"count":608,
			"type":"VEC2"
		},
		{
			"bufferView":7,
			"componentType":5123,
			"count":618,
			"type":"SCALAR"
		},
		{
			"bufferView":8,
			"componentType":5126,
			"count":108,
			"max":[
				0.22499999403953552,
				2.049999952316284,
				0.22499999403953552
			],
			"min":[
				-0.22499999403953552,
				0.5,
				-0.22499999403953552
			],
			"type":"VEC3"
		},
		{
			"bufferView":9,
			"componentType":5126,
			"count":108,
			"type":"VEC3"
		},
		{
			"bufferView":10,
			"componentType":5126,
			"count":108,
			"type":"VEC2"
		},
		{
			"bufferView":11,
			"componentType":5123,
			"count":186,
			"type":"SCALAR"
		}
	],
	"bufferViews":[
		{
			"buffer":0,
			"byteLength":288,
			"byteOffset":0,
			"target":34962
		},
		{
			"buffer":0,
			"byteLength":288,
			"byteOffset":288,
			"target":34962
		},
		{
			"buffer":0,
			"byteLength":192,
			"byteOffset":576,
			"target":34962
		},
		{
			"buffer":0,
			"byteLength":72,
			"byteOffset":768,
			"target":34963
		},
		{
			"buffer":0,
			"byteLength":7296,
			"byteOffset":840,
			"target":34962
		},
		{
			"buffer":0,
			"byteLength":7296,
			"byteOffset":8136,
			"target":34962
		},
		{
			"buffer":0,
			"byteLength":4864,
			"byteOffset":15432,
			"target":34962
		},
		{
			"buffer":0,
			"byteLength":1236,
			"byteOffset":20296,
			"target":34963
		},
		{
			"buffer":0,
			"byteLength":1296,
			"byteOffset":21532,
			"target":34962
		},
		{
			"buffer":0,
			"byteLength":1296,
			"byteOffset":22828,
			"target":34962
		},
		{
			"buffer":0,
			"byteLength":864,
			"byteOffset":24124,
			"target":34962
		},
		{
			"buffer":0,
			"byteLength":372,
			"byteOffset":24988,
			"target":34963
		}
	],
	"buffers":[
		{
			"byteLength":25360,
			"uri":"low_buildingN.bin"
		}
	]
}
