{
	"asset":{
		"generator":"Khronos glTF Blender I/O v4.1.62",
		"version":"2.0"
	},
	"scene":0,
	"scenes":[
		{
			"name":"Scene",
			"nodes":[
				0,
				2,
				3,
				4,
				5
			]
		}
	],
	"nodes":[
		{
			"mesh":0,
			"name":"COL01",
			"scale":[
				0.8549999594688416,
				1.0499999523162842,
				0.8100000023841858
			],
			"translation":[
				0,
				1.040000081062317,
				0
			]
		},
		{
			"mesh":1,
			"name":"large_buildingG"
		},
		{
			"children":[
				1
			],
			"name":"tmpParent"
		},
		{
			"mesh":2,
			"name":"COL02",
			"scale":[
				0.3499999940395355,
				0.07000000029802322,
				0.6200000047683716
			],
			"translation":[
				1.179999828338623,
				0.46000000834465027,
				0
			]
		},
		{
			"mesh":3,
			"name":"COL03",
			"scale":[
				0.3700000047683716,
				0.06999999284744263,
				0.23000001907348633
			],
			"translation":[
				0,
				0.3499999940395355,
				0.7900000214576721
			]
		},
		{
			"mesh":4,
			"name":"COL04",
			"scale":[
				0.23000003397464752,
				0.4399999976158142,
				0.22999998927116394
			],
			"translation":[
				0.20000000298023224,
				2.049999952316284,
				-0.5499999523162842
			]
		}
	],
	"materials":[
		{
			"name":"door.008",
			"pbrMetallicRoughness":{
				"baseColorFactor":[
					0.38823530077934265,
					0.4000000059604645,
					0.4470588266849518,
					1
				]
			}
		},
		{
			"name":"window.008",
			"pbrMetallicRoughness":{
				"baseColorFactor":[
					0.7372549176216125,
					0.886274516582489,
					1,
					1
				]
			}
		},
		{
			"name":"_defaultMat.009",
			"pbrMetallicRoughness":{
				"baseColorFactor":[
					0.7641509771347046,
					0.7641509771347046,
					0.7641509771347046,
					1
				]
			}
		},
		{
			"name":"border.009",
			"pbrMetallicRoughness":{
				"baseColorFactor":[
					0.5607843399047852,
					0.5686274766921997,
					0.6000000238418579,
					1
				]
			}
		}
	],
	"meshes":[
		{
			"name":"\u7acb\u65b9\u4f53",
			"primitives":[
				{
					"attributes":{
						"POSITION":0,
						"NORMAL":1,
						"TEXCOORD_0":2
					},
					"indices":3
				}
			]
		},
		{
			"name":"Mesh large_buildingG",
			"primitives":[
				{
					"attributes":{
						"POSITION":4,
						"NORMAL":5,
						"TEXCOORD_0":6
					},
					"indices":7,
					"material":0
				},
				{
					"attributes":{
						"POSITION":8,
						"NORMAL":9,
						"TEXCOORD_0":10
					},
					"indices":11,
					"material":1
				},
				{
					"attributes":{
						"POSITION":12,
						"NORMAL":13,
						"TEXCOORD_0":14
					},
					"indices":15,
					"material":2
				},
				{
					"attributes":{
						"POSITION":16,
						"NORMAL":17,
						"TEXCOORD_0":18
					},
					"indices":19,
					"material":3
				}
			]
		},
		{
			"name":"\u7acb\u65b9\u4f53.004",
			"primitives":[
				{
					"attributes":{
						"POSITION":20,
						"NORMAL":21,
						"TEXCOORD_0":22
					},
					"indices":3
				}
			]
		},
		{
			"name":"\u7acb\u65b9\u4f53.005",
			"primitives":[
				{
					"attributes":{
						"POSITION":23,
						"NORMAL":24,
						"TEXCOORD_0":25
					},
					"indices":3
				}
			]
		},
		{
			"name":"\u7acb\u65b9\u4f53.006",
			"primitives":[
				{
					"attributes":{
						"POSITION":26,
						"NORMAL":27,
						"TEXCOORD_0":28
					},
					"indices":3
				}
			]
		}
	],
	"accessors":[
		{
			"bufferView":0,
			"componentType":5126,
			"count":24,
			"max":[
				1,
				1,
				1
			],
			"min":[
				-1,
				-1,
				-1
			],
			"type":"VEC3"
		},
		{
			"bufferView":1,
			"componentType":5126,
			"count":24,
			"type":"VEC3"
		},
		{
			"bufferView":2,
			"componentType":5126,
			"count":24,
			"type":"VEC2"
		},
		{
			"bufferView":3,
			"componentType":5123,
			"count":36,
			"type":"SCALAR"
		},
		{
			"bufferView":4,
			"componentType":5126,
			"count":179,
			"max":[
				1.4700000286102295,
				2.4000000953674316,
				0.9699999690055847
			],
			"min":[
				-0.800000011920929,
				-1.804778527019556e-16,
				-0.800000011920929
			],
			"type":"VEC3"
		},
		{
			"bufferView":5,
			"componentType":5126,
			"count":179,
			"type":"VEC3"
		},
		{
			"bufferView":6,
			"componentType":5126,
			"count":179,
			"type":"VEC2"
		},
		{
			"bufferView":7,
			"componentType":5123,
			"count":429,
			"type":"SCALAR"
		},
		{
			"bufferView":8,
			"componentType":5126,
			"count":364,
			"max":[
				0.7800000309944153,
				2.2200000286102295,
				0.7800000309944153
			],
			"min":[
				-0.7799999713897705,
				-9.02389263509778e-17,
				-0.7800000309944153
			],
			"type":"VEC3"
		},
		{
			"bufferView":9,
			"componentType":5126,
			"count":364,
			"type":"VEC3"
		},
		{
			"bufferView":10,
			"componentType":5126,
			"count":364,
			"type":"VEC2"
		},
		{
			"bufferView":11,
			"componentType":5123,
			"count":546,
			"type":"SCALAR"
		},
		{
			"bufferView":12,
			"componentType":5126,
			"count":905,
			"max":[
				1.5,
				2.4000000953674316,
				1
			],
			"min":[
				-0.800000011920929,
				0.05000000074505806,
				-0.800000011920929
			],
			"type":"VEC3"
		},
		{
			"bufferView":13,
			"componentType":5126,
			"count":905,
			"type":"VEC3"
		},
		{
			"bufferView":14,
			"componentType":5126,
			"count":905,
			"type":"VEC2"
		},
		{
			"bufferView":15,
			"componentType":5123,
			"count":960,
			"type":"SCALAR"
		},
		{
			"bufferView":16,
			"componentType":5126,
			"count":1871,
			"max":[
				0.8200000524520874,
				2.4800000190734863,
				0.8200000524520874
			],
			"min":[
				-0.8200000524520874,
				-9.02389263509778e-17,
				-0.8200000524520874
			],
			"type":"VEC3"
		},
		{
			"bufferView":17,
			"componentType":5126,
			"count":1871,
			"type":"VEC3"
		},
		{
			"bufferView":18,
			"componentType":5126,
			"count":1871,
			"type":"VEC2"
		},
		{
			"bufferView":19,
			"componentType":5123,
			"count":4479,
			"type":"SCALAR"
		},
		{
			"bufferView":20,
			"componentType":5126,
			"count":24,
			"max":[
				1,
				1,
				1
			],
			"min":[
				-1,
				-1,
				-1
			],
			"type":"VEC3"
		},
		{
			"bufferView":21,
			"componentType":5126,
			"count":24,
			"type":"VEC3"
		},
		{
			"bufferView":22,
			"componentType":5126,
			"count":24,
			"type":"VEC2"
		},
		{
			"bufferView":23,
			"componentType":5126,
			"count":24,
			"max":[
				1,
				1,
				1
			],
			"min":[
				-1,
				-1,
				-1
			],
			"type":"VEC3"
		},
		{
			"bufferView":24,
			"componentType":5126,
			"count":24,
			"type":"VEC3"
		},
		{
			"bufferView":25,
			"componentType":5126,
			"count":24,
			"type":"VEC2"
		},
		{
			"bufferView":26,
			"componentType":5126,
			"count":24,
			"max":[
				1,
				1,
				1
			],
			"min":[
				-1,
				-1,
				-1
			],
			"type":"VEC3"
		},
		{
			"bufferView":27,
			"componentType":5126,
			"count":24,
			"type":"VEC3"
		},
		{
			"bufferView":28,
			"componentType":5126,
			"count":24,
			"type":"VEC2"
		}
	],
	"bufferViews":[
		{
			"buffer":0,
			"byteLength":288,
			"byteOffset":0,
			"target":34962
		},
		{
			"buffer":0,
			"byteLength":288,
			"byteOffset":288,
			"target":34962
		},
		{
			"buffer":0,
			"byteLength":192,
			"byteOffset":576,
			"target":34962
		},
		{
			"buffer":0,
			"byteLength":72,
			"byteOffset":768,
			"target":34963
		},
		{
			"buffer":0,
			"byteLength":2148,
			"byteOffset":840,
			"target":34962
		},
		{
			"buffer":0,
			"byteLength":2148,
			"byteOffset":2988,
			"target":34962
		},
		{
			"buffer":0,
			"byteLength":1432,
			"byteOffset":5136,
			"target":34962
		},
		{
			"buffer":0,
			"byteLength":858,
			"byteOffset":6568,
			"target":34963
		},
		{
			"buffer":0,
			"byteLength":4368,
			"byteOffset":7428,
			"target":34962
		},
		{
			"buffer":0,
			"byteLength":4368,
			"byteOffset":11796,
			"target":34962
		},
		{
			"buffer":0,
			"byteLength":2912,
			"byteOffset":16164,
			"target":34962
		},
		{
			"buffer":0,
			"byteLength":1092,
			"byteOffset":19076,
			"target":34963
		},
		{
			"buffer":0,
			"byteLength":10860,
			"byteOffset":20168,
			"target":34962
		},
		{
			"buffer":0,
			"byteLength":10860,
			"byteOffset":31028,
			"target":34962
		},
		{
			"buffer":0,
			"byteLength":7240,
			"byteOffset":41888,
			"target":34962
		},
		{
			"buffer":0,
			"byteLength":1920,
			"byteOffset":49128,
			"target":34963
		},
		{
			"buffer":0,
			"byteLength":22452,
			"byteOffset":51048,
			"target":34962
		},
		{
			"buffer":0,
			"byteLength":22452,
			"byteOffset":73500,
			"target":34962
		},
		{
			"buffer":0,
			"byteLength":14968,
			"byteOffset":95952,
			"target":34962
		},
		{
			"buffer":0,
			"byteLength":8958,
			"byteOffset":110920,
			"target":34963
		},
		{
			"buffer":0,
			"byteLength":288,
			"byteOffset":119880,
			"target":34962
		},
		{
			"buffer":0,
			"byteLength":288,
			"byteOffset":120168,
			"target":34962
		},
		{
			"buffer":0,
			"byteLength":192,
			"byteOffset":120456,
			"target":34962
		},
		{
			"buffer":0,
			"byteLength":288,
			"byteOffset":120648,
			"target":34962
		},
		{
			"buffer":0,
			"byteLength":288,
			"byteOffset":120936,
			"target":34962
		},
		{
			"buffer":0,
			"byteLength":192,
			"byteOffset":121224,
			"target":34962
		},
		{
			"buffer":0,
			"byteLength":288,
			"byteOffset":121416,
			"target":34962
		},
		{
			"buffer":0,
			"byteLength":288,
			"byteOffset":121704,
			"target":34962
		},
		{
			"buffer":0,
			"byteLength":192,
			"byteOffset":121992,
			"target":34962
		}
	],
	"buffers":[
		{
			"byteLength":122184,
			"uri":"large_buildingG.bin"
		}
	]
}
