{
	"asset":{
		"generator":"Khronos glTF Blender I/O v4.1.62",
		"version":"2.0"
	},
	"extensionsUsed":[
		"KHR_materials_specular"
	],
	"scene":0,
	"scenes":[
		{
			"name":"Scene",
			"nodes":[
				0
			]
		}
	],
	"nodes":[
		{
			"mesh":0,
			"name":"rpg7_warhead",
			"rotation":[
				0,
				-0.7071068286895752,
				0,
				0.7071068286895752
			],
			"scale":[
				0.009999999776482582,
				0.009999999776482582,
				0.009999999776482582
			]
		}
	],
	"materials":[
		{
			"doubleSided":true,
			"extensions":{
				"KHR_materials_specular":{
					"specularFactor":0
				}
			},
			"name":"rpg7_warhead",
			"pbrMetallicRoughness":{
				"baseColorTexture":{
					"index":0
				},
				"roughnessFactor":0.858578622341156
			}
		}
	],
	"meshes":[
		{
			"name":"\u30e1\u30c3\u30b7\u30e5.001",
			"primitives":[
				{
					"attributes":{
						"POSITION":0,
						"NORMAL":1,
						"TEXCOORD_0":2
					},
					"indices":3,
					"material":0
				}
			]
		}
	],
	"textures":[
		{
			"sampler":0,
			"source":0
		}
	],
	"images":[
		{
			"mimeType":"image/png",
			"name":"Map #1",
			"uri":"Map%201.png"
		}
	],
	"accessors":[
		{
			"bufferView":0,
			"componentType":5126,
			"count":1537,
			"max":[
				38.331241607666016,
				3.2528340816497803,
				3.2528326511383057
			],
			"min":[
				-38.33123779296875,
				-3.252837896347046,
				-3.2528395652770996
			],
			"type":"VEC3"
		},
		{
			"bufferView":1,
			"componentType":5126,
			"count":1537,
			"type":"VEC3"
		},
		{
			"bufferView":2,
			"componentType":5126,
			"count":1537,
			"type":"VEC2"
		},
		{
			"bufferView":3,
			"componentType":5123,
			"count":6408,
			"type":"SCALAR"
		}
	],
	"bufferViews":[
		{
			"buffer":0,
			"byteLength":18444,
			"byteOffset":0,
			"target":34962
		},
		{
			"buffer":0,
			"byteLength":18444,
			"byteOffset":18444,
			"target":34962
		},
		{
			"buffer":0,
			"byteLength":12296,
			"byteOffset":36888,
			"target":34962
		},
		{
			"buffer":0,
			"byteLength":12816,
			"byteOffset":49184,
			"target":34963
		}
	],
	"samplers":[
		{
			"magFilter":9729,
			"minFilter":9987
		}
	],
	"buffers":[
		{
			"byteLength":62000,
			"uri":"RPG-7_Bullet.bin"
		}
	]
}
