{
	"asset":{
		"generator":"Khronos glTF Blender I/O v4.1.62",
		"version":"2.0"
	},
	"scene":0,
	"scenes":[
		{
			"name":"Scene",
			"nodes":[
				1
			]
		}
	],
	"nodes":[
		{
			"mesh":0,
			"name":"light_squareCross",
			"translation":[
				0,
				0,
				0.75
			]
		},
		{
			"children":[
				0
			],
			"name":"tmpParent"
		}
	],
	"materials":[
		{
			"name":"pavement.061",
			"pbrMetallicRoughness":{
				"baseColorFactor":[
					0.7568627595901489,
					0.7568627595901489,
					0.800000011920929,
					1
				]
			}
		},
		{
			"name":"light.001",
			"pbrMetallicRoughness":{
				"baseColorFactor":[
					0.9450980424880981,
					0.9490196108818054,
					0.9647058844566345,
					1
				]
			}
		}
	],
	"meshes":[
		{
			"name":"Mesh light_squareCross",
			"primitives":[
				{
					"attributes":{
						"POSITION":0,
						"NORMAL":1,
						"TEXCOORD_0":2
					},
					"indices":3,
					"material":0
				},
				{
					"attributes":{
						"POSITION":4,
						"NORMAL":5,
						"TEXCOORD_0":6
					},
					"indices":7,
					"material":1
				}
			]
		}
	],
	"accessors":[
		{
			"bufferView":0,
			"componentType":5126,
			"count":208,
			"max":[
				0.21249999105930328,
				0.6000000238418579,
				0.21249999105930328
			],
			"min":[
				-0.21249999105930328,
				0,
				-0.21249999105930328
			],
			"type":"VEC3"
		},
		{
			"bufferView":1,
			"componentType":5126,
			"count":208,
			"type":"VEC3"
		},
		{
			"bufferView":2,
			"componentType":5126,
			"count":208,
			"type":"VEC2"
		},
		{
			"bufferView":3,
			"componentType":5123,
			"count":354,
			"type":"SCALAR"
		},
		{
			"bufferView":4,
			"componentType":5126,
			"count":24,
			"max":[
				0.21249999105930328,
				0.574999988079071,
				0.21249999105930328
			],
			"min":[
				-0.21249999105930328,
				0.574999988079071,
				-0.21249999105930328
			],
			"type":"VEC3"
		},
		{
			"bufferView":5,
			"componentType":5126,
			"count":24,
			"type":"VEC3"
		},
		{
			"bufferView":6,
			"componentType":5126,
			"count":24,
			"type":"VEC2"
		},
		{
			"bufferView":7,
			"componentType":5123,
			"count":48,
			"type":"SCALAR"
		}
	],
	"bufferViews":[
		{
			"buffer":0,
			"byteLength":2496,
			"byteOffset":0,
			"target":34962
		},
		{
			"buffer":0,
			"byteLength":2496,
			"byteOffset":2496,
			"target":34962
		},
		{
			"buffer":0,
			"byteLength":1664,
			"byteOffset":4992,
			"target":34962
		},
		{
			"buffer":0,
			"byteLength":708,
			"byteOffset":6656,
			"target":34963
		},
		{
			"buffer":0,
			"byteLength":288,
			"byteOffset":7364,
			"target":34962
		},
		{
			"buffer":0,
			"byteLength":288,
			"byteOffset":7652,
			"target":34962
		},
		{
			"buffer":0,
			"byteLength":192,
			"byteOffset":7940,
			"target":34962
		},
		{
			"buffer":0,
			"byteLength":96,
			"byteOffset":8132,
			"target":34963
		}
	],
	"buffers":[
		{
			"byteLength":8228,
			"uri":"light_squareCross.bin"
		}
	]
}
